<svg width="28" height="31" viewBox="0 0 28 31" fill="none" xmlns="http://www.w3.org/2000/svg">
<path d="M18.9875 18.4062C17.2498 18.4062 16.4143 19.375 13.5625 19.375C10.7107 19.375 9.88125 18.4062 8.1375 18.4062C3.64492 18.4062 0 22.0512 0 26.5437V28.0938C0 29.6982 1.30176 31 2.90625 31H24.2188C25.8232 31 27.125 29.6982 27.125 28.0938V26.5437C27.125 22.0512 23.4801 18.4062 18.9875 18.4062ZM24.2188 28.0938H2.90625V26.5437C2.90625 23.6617 5.25547 21.3125 8.1375 21.3125C9.02148 21.3125 10.4564 22.2812 13.5625 22.2812C16.6928 22.2812 18.0975 21.3125 18.9875 21.3125C21.8695 21.3125 24.2188 23.6617 24.2188 26.5437V28.0938ZM13.5625 17.4375C18.376 17.4375 22.2812 13.5322 22.2812 8.71875C22.2812 3.90527 18.376 0 13.5625 0C8.74902 0 4.84375 3.90527 4.84375 8.71875C4.84375 13.5322 8.74902 17.4375 13.5625 17.4375ZM13.5625 2.90625C16.7654 2.90625 19.375 5.51582 19.375 8.71875C19.375 11.9217 16.7654 14.5312 13.5625 14.5312C10.3596 14.5312 7.75 11.9217 7.75 8.71875C7.75 5.51582 10.3596 2.90625 13.5625 2.90625Z" fill="white"/>
</svg>
