<svg width="29" height="35" viewBox="0 0 29 35" fill="none" xmlns="http://www.w3.org/2000/svg">
<path d="M14.4 19.05C16.9681 19.05 19.05 16.9681 19.05 14.4C19.05 11.8319 16.9681 9.75 14.4 9.75C11.8319 9.75 9.75 11.8319 9.75 14.4C9.75 16.9681 11.8319 19.05 14.4 19.05Z" stroke="black" stroke-width="3" stroke-linecap="round" stroke-linejoin="round"/>
<path d="M14.4 2C11.1113 2 7.95733 3.30642 5.63188 5.63188C3.30642 7.95733 2 11.1113 2 14.4C2 17.3326 2.6231 19.2515 4.325 21.375L14.4 33L24.475 21.375C26.1769 19.2515 26.8 17.3326 26.8 14.4C26.8 11.1113 25.4936 7.95733 23.1681 5.63188C20.8427 3.30642 17.6887 2 14.4 2V2Z" stroke="black" stroke-width="3" stroke-linecap="round" stroke-linejoin="round"/>
</svg>
