<svg width="192" height="192" viewBox="0 0 192 192" fill="none" xmlns="http://www.w3.org/2000/svg">
<g filter="url(#filter0_dd)">
<path d="M41 76C41 45.7742 65.77 21 96 21C126.23 21 151 45.7742 151 76C151 90.9858 144.74 104.582 134.96 114.503L96 127.663L57.04 114.503C47.26 104.582 41 90.9857 41 76ZM72.03 76C72.03 89.2179 82.78 99.9688 96 99.9688C109.22 99.9688 119.97 89.2179 119.97 76C119.97 62.7821 109.22 52.0312 96 52.0312C82.78 52.0312 72.03 62.7821 72.03 76Z" fill="url(#paint0_linear)" stroke="url(#paint1_linear)" stroke-width="2"/>
<path d="M41 76C41 45.7742 65.77 21 96 21C126.23 21 151 45.7742 151 76C151 90.9858 144.74 104.582 134.96 114.503L96 127.663L57.04 114.503C47.26 104.582 41 90.9857 41 76ZM72.03 76C72.03 89.2179 82.78 99.9688 96 99.9688C109.22 99.9688 119.97 89.2179 119.97 76C119.97 62.7821 109.22 52.0312 96 52.0312C82.78 52.0312 72.03 62.7821 72.03 76Z" fill="url(#paint2_linear)" stroke="url(#paint3_linear)" stroke-width="2"/>
<path d="M95.9999 115.375C86.1599 115.375 86.1599 108.812 76.3099 108.812C66.4699 108.812 66.4699 115.441 56.4899 115.375C66.5999 125.481 80.5799 132 95.9999 132C111.42 132 125.4 125.481 135.51 115.375C125.53 115.441 125.6 108.812 115.69 108.812C105.84 108.812 105.84 115.375 95.9999 115.375ZM65.5099 86.8051C64.2299 85.5234 62.1499 85.5234 60.8699 86.8051C59.5899 88.0867 59.5899 90.1633 60.8699 91.445L67.4299 98.0075C68.7099 99.2891 70.7898 99.2891 72.0698 98.0075C73.3498 96.7258 73.3498 94.6492 72.0698 93.3676L65.5099 86.8051ZM95.9999 46.4687H109.13C110.94 46.4687 112.41 45.0011 112.41 43.1874C112.41 41.3738 110.94 39.9062 109.13 39.9062H95.9999C94.1899 39.9062 92.7198 41.3738 92.7198 43.1874C92.7198 45.0011 94.1899 46.4687 95.9999 46.4687ZM124.57 98.0073L131.13 91.4448C132.41 90.1631 132.41 88.0865 131.13 86.8049C129.85 85.5232 127.77 85.5232 126.49 86.8049L119.93 93.3674C118.65 94.649 118.65 96.7256 119.93 98.0073C121.21 99.2891 123.29 99.2891 124.57 98.0073ZM126.49 65.1948C127.77 66.4764 129.85 66.4764 131.13 65.1948C132.41 63.9131 132.41 61.8365 131.13 60.5549L124.57 53.9924C123.29 52.7107 121.21 52.7107 119.93 53.9924C118.65 55.274 118.65 57.3506 119.93 58.6323L126.49 65.1948ZM65.5099 65.1948L72.0698 58.6323C73.3498 57.3506 73.3498 55.274 72.0698 53.9924C70.7898 52.7107 68.7099 52.7107 67.4299 53.9924L60.8699 60.5549C59.5899 61.8365 59.5899 63.9131 60.8699 65.1948C62.1499 66.4767 64.2299 66.4767 65.5099 65.1948ZM82.8799 46.3125C84.6899 46.3125 86.1599 44.8434 86.1599 43.0312C86.1599 41.2191 84.6899 39.75 82.8799 39.75C81.0599 39.75 79.5898 41.2191 79.5898 43.0312C79.5898 44.8434 81.0599 46.3125 82.8799 46.3125ZM59.9099 75.8437C59.9099 74.0316 58.4399 72.5625 56.6299 72.5625C54.8099 72.5625 53.3398 74.0316 53.3398 75.8437C53.3398 77.6559 54.8099 79.125 56.6299 79.125C58.4399 79.125 59.9099 77.6559 59.9099 75.8437ZM135.38 72.5625C133.56 72.5625 132.09 74.0316 132.09 75.8437C132.09 77.6559 133.56 79.125 135.38 79.125C137.19 79.125 138.66 77.6559 138.66 75.8437C138.66 74.0316 137.19 72.5625 135.38 72.5625Z" fill="white"/>
</g>
<defs>
<filter id="filter0_dd" x="0" y="0" width="192" height="192" filterUnits="userSpaceOnUse" color-interpolation-filters="sRGB">
<feFlood flood-opacity="0" result="BackgroundImageFix"/>
<feColorMatrix in="SourceAlpha" type="matrix" values="0 0 0 0 0 0 0 0 0 0 0 0 0 0 0 0 0 0 127 0" result="hardAlpha"/>
<feOffset dy="20"/>
<feGaussianBlur stdDeviation="20"/>
<feColorMatrix type="matrix" values="0 0 0 0 1 0 0 0 0 0.301961 0 0 0 0 0 0 0 0 0.29 0"/>
<feBlend mode="normal" in2="BackgroundImageFix" result="effect1_dropShadow"/>
<feColorMatrix in="SourceAlpha" type="matrix" values="0 0 0 0 0 0 0 0 0 0 0 0 0 0 0 0 0 0 127 0" result="hardAlpha"/>
<feOffset dy="5"/>
<feGaussianBlur stdDeviation="5"/>
<feColorMatrix type="matrix" values="0 0 0 0 1 0 0 0 0 0.3 0 0 0 0 0 0 0 0 0.26 0"/>
<feBlend mode="normal" in2="effect1_dropShadow" result="effect2_dropShadow"/>
<feBlend mode="normal" in="SourceGraphic" in2="effect2_dropShadow" result="shape"/>
</filter>
<linearGradient id="paint0_linear" x1="96" y1="-21.5486" x2="96" y2="165.074" gradientUnits="userSpaceOnUse">
<stop stop-color="#FFAE00"/>
<stop offset="1" stop-color="#FFCD1E"/>
</linearGradient>
<linearGradient id="paint1_linear" x1="96" y1="20" x2="96" y2="128.719" gradientUnits="userSpaceOnUse">
<stop stop-color="#F96222"/>
<stop offset="1" stop-color="#FD725A"/>
</linearGradient>
<linearGradient id="paint2_linear" x1="96" y1="-21.5486" x2="96" y2="165.074" gradientUnits="userSpaceOnUse">
<stop offset="0.630208" stop-color="#F96120"/>
<stop offset="1" stop-color="#FD725C"/>
</linearGradient>
<linearGradient id="paint3_linear" x1="96" y1="20" x2="96" y2="128.719" gradientUnits="userSpaceOnUse">
<stop stop-color="#F96222"/>
<stop offset="1" stop-color="#FD725A"/>
</linearGradient>
</defs>
</svg>
