<svg width="136" height="124" viewBox="0 0 136 124" fill="none" xmlns="http://www.w3.org/2000/svg">
<path d="M115 62.5C115 67.9528 114.169 73.2149 112.622 78.1582C112.454 78.71 112.274 79.2553 112.08 79.7972C111.469 81.5645 110.76 83.2857 109.965 84.9609C109.298 86.3735 108.568 87.7496 107.777 89.0865C106.2 91.7702 104.394 94.2994 102.377 96.648C100.268 99.1082 97.9358 101.372 95.4132 103.408C86.4098 110.658 74.9623 115 62.5 115C33.5056 115 10 91.4944 10 62.5C10 33.5056 33.5051 10 62.4997 10C91.4944 10 115 33.5056 115 62.5Z" fill="url(#paint0_linear)"/>
<path d="M62.7231 27C60.667 27 59 57.0233 59 59.1003C59 60.4237 59.6784 61.5856 60.7016 62.2557L99.0567 101C105.527 94.7085 110.399 86.7528 113 77.8145C104.435 69.2258 62.7231 27 62.7231 27Z" fill="url(#paint1_linear)"/>
<path d="M63 66C64.6569 66 66 64.6569 66 63C66 61.3431 64.6569 60 63 60C61.3431 60 60 61.3431 60 63C60 64.6569 61.3431 66 63 66Z" fill="url(#paint2_linear)"/>
<path d="M62.5003 21C62.0861 21 61.7111 21.1439 61.4395 21.3767C61.1682 21.6092 61 21.9307 61 22.286V31.7143C61 31.9804 61.0943 32.2278 61.2561 32.433C61.3637 32.5699 61.5015 32.688 61.6612 32.7802C61.7409 32.8266 61.8263 32.8663 61.9161 32.8989C62.0955 32.9638 62.2929 33 62.4997 33C62.9139 33 63.2889 32.8561 63.5605 32.6233C63.8318 32.3905 64 32.0693 64 31.714V22.2857C64.0003 21.5756 63.3285 21 62.5003 21Z" fill="url(#paint3_linear)"/>
<path d="M62.5002 92C61.6716 92 61 92.6239 61 93.3929V103.607C61 103.74 61.0262 103.866 61.0636 103.987C61.2424 104.57 61.8146 105 62.4998 105C62.707 105 62.9044 104.961 63.0835 104.89C63.6219 104.679 64 104.184 64 103.607V93.3926C64.0003 92.6236 63.3284 92 62.5002 92Z" fill="url(#paint4_linear)"/>
<path d="M103.607 61H93.3929C92.6236 61 92 61.6715 92 62.5C92 63.3285 92.6236 64 93.3929 64H103.607C104.376 64 105 63.3285 105 62.5C105 61.6715 104.376 61 103.607 61Z" fill="url(#paint5_linear)"/>
<path d="M33 62.4999C33 62.1894 32.9192 61.9005 32.7805 61.6611C32.6882 61.5015 32.5701 61.3637 32.4333 61.2561C32.2281 61.0943 31.9807 61 31.7143 61H22.2859C21.9309 61 21.6095 61.1679 21.3767 61.4394C21.1442 61.711 21 62.0857 21 62.5001C21 63.3285 21.5756 64 22.2857 64H31.7138C32.0688 64 32.3903 63.8321 32.6231 63.5606C32.8558 63.289 33 62.9143 33 62.4999Z" fill="url(#paint6_linear)"/>
<path d="M85.376 41.6332L92.5924 35.1383C93.1359 34.6492 93.1359 33.8561 92.5924 33.3669C92.0489 32.8776 91.1677 32.8778 90.6242 33.3669L83.4078 39.8618C82.8641 40.3512 82.8641 41.144 83.4078 41.6332C83.9513 42.1223 84.8325 42.1223 85.376 41.6332Z" fill="url(#paint7_linear)"/>
<path d="M41.6332 83.4076C41.144 82.8641 40.3507 82.8641 39.8615 83.4076L33.3656 90.6238C32.9437 91.0925 32.8878 91.8115 33.1936 92.3496C33.2325 92.4179 33.279 92.4816 33.3295 92.5432C33.3425 92.559 33.3516 92.5767 33.3656 92.5923C33.6043 92.8575 33.9155 92.9913 34.2284 92.9975C34.236 92.9977 34.2437 93 34.2513 93C34.5718 93 34.8924 92.864 35.1373 92.5923L41.6332 85.376C41.8166 85.1723 41.9314 84.9212 41.9771 84.6579C41.9924 84.5701 42 84.4813 42 84.3921C42.0003 84.0354 41.8781 83.679 41.6332 83.4076Z" fill="url(#paint8_linear)"/>
<path d="M92.5966 90.6257L85.3768 83.4045C85.2069 83.2346 85.0025 83.1241 84.7874 83.0603C84.5804 82.9991 84.3636 82.9827 84.1519 83.0194C83.8795 83.0671 83.6183 83.1936 83.408 83.404C82.864 83.9481 82.864 84.8296 83.408 85.3735L90.6278 92.5947C90.7094 92.6763 90.8 92.7415 90.8946 92.7985C91.4299 93.1221 92.1348 93.0572 92.5972 92.5947C92.8188 92.373 92.9453 92.0943 92.9859 91.806C93.0449 91.3881 92.9188 90.9482 92.5966 90.6257Z" fill="url(#paint9_linear)"/>
<path d="M35.1384 33.367C34.8938 33.1224 34.5731 33 34.2526 33C34.1726 33 34.0923 33.0076 34.0133 33.0229C33.7764 33.0688 33.5503 33.1831 33.367 33.3667C33.1224 33.6113 33 33.9321 33 34.2526C33 34.3326 33.0076 34.4128 33.0229 34.4918C33.0688 34.7288 33.1831 34.9548 33.3667 35.1382L39.8616 41.6333C39.8728 41.6444 39.886 41.6518 39.8977 41.6625C40.012 41.7686 40.1392 41.8527 40.2761 41.9083C40.4267 41.9695 40.5872 42 40.7474 42C41.0679 42 41.3887 41.8776 41.6333 41.633C41.8166 41.4496 41.9314 41.2234 41.9771 40.9867C41.9924 40.9077 42 40.8277 42 40.7474C42 40.4269 41.8776 40.1061 41.633 39.8616L35.1384 33.367Z" fill="url(#paint10_linear)"/>
<path d="M110 85.3934C109.335 86.8182 108.608 88.2062 107.819 89.5547C106.247 92.2615 104.445 94.8126 102.434 97.1815C100.332 99.6629 98.0059 101.946 95.4906 104L58.663 66.7937C56.4457 64.554 56.4457 60.9228 58.663 58.683C58.7611 58.5838 58.8595 58.4907 58.9642 58.4013C61.0863 56.5329 64.257 56.5329 66.3794 58.4013C66.4843 58.4907 66.5824 58.5835 66.6805 58.683C66.7786 58.7823 66.877 58.8884 66.9622 58.9946H66.9653C67.0307 58.9978 67.0964 59.0013 67.1684 59.0045C67.2929 59.0143 67.4305 59.021 67.5777 59.0309C68.3506 59.0805 69.4087 59.1635 70.6368 59.276C71.0036 59.3091 71.3868 59.3457 71.7832 59.3854C72.068 59.415 72.3597 59.4417 72.6577 59.4748C72.9101 59.5012 73.1656 59.5279 73.4272 59.5543C73.6171 59.574 73.8104 59.5975 74.0037 59.6172C74.3117 59.6503 74.6195 59.6869 74.9306 59.7234C76.4112 59.8957 77.9439 60.091 79.4078 60.31C79.6077 60.3396 79.8073 60.3698 80.004 60.4026C80.0333 60.4058 80.0663 60.4093 80.0955 60.4159C80.3247 60.4525 80.551 60.4888 80.7736 60.5221C80.9961 60.5619 81.2158 60.5984 81.4321 60.6347C81.576 60.6611 81.7203 60.6846 81.8643 60.711C82.0837 60.7507 82.3031 60.7905 82.5194 60.8337C82.6275 60.8534 82.7356 60.8734 82.8403 60.8934C83.0629 60.9399 83.2757 60.9828 83.4856 61.026C83.551 61.0394 83.6135 61.0524 83.6758 61.0658C83.761 61.0855 83.8461 61.1058 83.9282 61.1221C83.9674 61.1287 84.0067 61.1386 84.046 61.1485C84.1673 61.1781 84.2884 61.2048 84.4028 61.2312C84.4846 61.2509 84.5632 61.2712 84.6386 61.2874C84.9432 61.3669 85.2283 61.443 85.4967 61.5193C85.559 61.539 85.6212 61.559 85.6803 61.5756C85.7296 61.5889 85.7752 61.6052 85.8211 61.6188C85.8899 61.642 85.9553 61.6652 86.021 61.6852C86.0439 61.6919 86.0669 61.6983 86.0898 61.7084C86.2209 61.7548 86.3422 61.7978 86.4567 61.8442C86.4664 61.8474 86.4762 61.8541 86.4894 61.8573C86.5516 61.8837 86.6138 61.9103 86.6729 61.9336C86.8137 61.9965 86.9382 62.0563 87.0498 62.1192C87.0991 62.1488 87.1413 62.1755 87.184 62.2019C87.3214 62.2913 87.4264 62.3809 87.4952 62.4703C87.5181 62.4935 87.5345 62.5202 87.5477 62.5431C87.5508 62.5498 87.5543 62.553 87.5543 62.5565C87.5706 62.5861 87.5835 62.6162 87.5904 62.649C87.6001 62.6786 87.6033 62.7088 87.6033 62.7384L110 85.3934Z" fill="url(#paint11_linear)"/>
<path d="M66.7299 67C64.67 67 63 65.209 63 63C63 60.791 64.67 59 66.7299 59C68.7898 59 88 60.791 88 63C88.0003 65.2093 68.7898 67 66.7299 67Z" fill="url(#paint12_linear)"/>
<path d="M67 59.2245C67 61.3095 65.209 63 63 63C60.791 63 59 61.3095 59 59.2245C59 57.1395 60.791 27 63 27C65.209 27.0003 67 57.1395 67 59.2245Z" fill="url(#paint13_linear)"/>
<path d="M62.5 68C65.5376 68 68 65.5376 68 62.5C68 59.4624 65.5376 57 62.5 57C59.4624 57 57 59.4624 57 62.5C57 65.5376 59.4624 68 62.5 68Z" fill="white"/>
<path d="M131.566 53.7389H125.522H125.242C120.85 23.3934 94.5895 0 62.9459 0C28.2372 0 0 28.1429 0 62.7356C0 77.0095 4.93982 90.9801 13.9094 102.073C22.7438 113 35.1246 120.742 48.7708 123.873C49.1443 123.959 49.5175 124 49.8854 124C52.1387 124 54.176 122.456 54.7033 120.174C55.3163 117.519 53.6546 114.872 50.9909 114.261C39.4968 111.623 29.0647 105.097 21.6155 95.8847C13.949 86.403 9.89691 74.9406 9.89691 62.7361C9.89691 33.5822 33.6945 9.86419 62.9459 9.86419C89.1205 9.86419 110.925 28.8561 115.223 53.7392H110.003C106.061 53.7392 104.087 58.4894 106.874 61.2673L117.656 72.0131C119.384 73.7352 122.186 73.7352 123.914 72.0131L134.695 61.2673C137.483 58.4892 135.508 53.7389 131.566 53.7389Z" fill="url(#paint14_linear)"/>
<defs>
<linearGradient id="paint0_linear" x1="64.8224" y1="64.8255" x2="133.415" y2="133.418" gradientUnits="userSpaceOnUse">
<stop stop-color="white"/>
<stop offset="1" stop-color="#C3C3C3"/>
</linearGradient>
<linearGradient id="paint1_linear" x1="83.9389" y1="64.3474" x2="27.6967" y2="58.0969" gradientUnits="userSpaceOnUse">
<stop stop-color="#C3C3C3" stop-opacity="0"/>
<stop offset="0.267" stop-color="#A4A4A4" stop-opacity="0.267"/>
<stop offset="0.542" stop-color="#8B8B8B" stop-opacity="0.542"/>
<stop offset="0.794" stop-color="#7C7C7C" stop-opacity="0.794"/>
<stop offset="1" stop-color="#777777"/>
</linearGradient>
<linearGradient id="paint2_linear" x1="62.9986" y1="61.533" x2="62.9986" y2="70.4865" gradientUnits="userSpaceOnUse">
<stop stop-color="#F18D00"/>
<stop offset="1" stop-color="#ED7103"/>
</linearGradient>
<linearGradient id="paint3_linear" x1="59.952" y1="26.3729" x2="63.7752" y2="32.423" gradientUnits="userSpaceOnUse">
<stop stop-color="#FF7A7A"/>
<stop offset="1" stop-color="#F75900"/>
</linearGradient>
<linearGradient id="paint4_linear" x1="59.952" y1="97.8206" x2="64.2272" y2="104.065" gradientUnits="userSpaceOnUse">
<stop stop-color="#FF7A7A"/>
<stop offset="1" stop-color="#F75900"/>
</linearGradient>
<linearGradient id="paint5_linear" x1="87.4585" y1="62.3432" x2="87.5356" y2="64.4569" gradientUnits="userSpaceOnUse">
<stop stop-color="#FF7A7A"/>
<stop offset="1" stop-color="#F75900"/>
</linearGradient>
<linearGradient id="paint6_linear" x1="16.8079" y1="62.3432" x2="16.8913" y2="64.4565" gradientUnits="userSpaceOnUse">
<stop stop-color="#FF7A7A"/>
<stop offset="1" stop-color="#F75900"/>
</linearGradient>
<linearGradient id="paint7_linear" x1="79.5066" y1="37.0297" x2="80.3915" y2="43.2534" gradientUnits="userSpaceOnUse">
<stop stop-color="#FF7A7A"/>
<stop offset="1" stop-color="#F75900"/>
</linearGradient>
<linearGradient id="paint8_linear" x1="29.8559" y1="87.4774" x2="31.0573" y2="94.3216" gradientUnits="userSpaceOnUse">
<stop stop-color="#FF7A7A"/>
<stop offset="1" stop-color="#F75900"/>
</linearGradient>
<linearGradient id="paint9_linear" x1="79.5066" y1="87.4774" x2="80.594" y2="94.3607" gradientUnits="userSpaceOnUse">
<stop stop-color="#FF7A7A"/>
<stop offset="1" stop-color="#F75900"/>
</linearGradient>
<linearGradient id="paint10_linear" x1="29.8559" y1="37.0297" x2="30.8346" y2="43.2246" gradientUnits="userSpaceOnUse">
<stop stop-color="#FF7A7A"/>
<stop offset="1" stop-color="#F75900"/>
</linearGradient>
<linearGradient id="paint11_linear" x1="83.3353" y1="74.9948" x2="60.1789" y2="49.8503" gradientUnits="userSpaceOnUse">
<stop stop-color="#C3C3C3" stop-opacity="0"/>
<stop offset="0.267" stop-color="#A4A4A4" stop-opacity="0.267"/>
<stop offset="0.542" stop-color="#8B8B8B" stop-opacity="0.542"/>
<stop offset="0.794" stop-color="#7C7C7C" stop-opacity="0.794"/>
<stop offset="1" stop-color="#777777"/>
</linearGradient>
<linearGradient id="paint12_linear" x1="65.1635" y1="59.915" x2="69.2222" y2="71.2333" gradientUnits="userSpaceOnUse">
<stop stop-color="#FC773D"/>
<stop offset="1" stop-color="#FF4D00"/>
</linearGradient>
<linearGradient id="paint13_linear" x1="59.6923" y1="31.1175" x2="70.6597" y2="33.2924" gradientUnits="userSpaceOnUse">
<stop stop-color="#FC773D"/>
<stop offset="1" stop-color="#FF4D00"/>
</linearGradient>
<linearGradient id="paint14_linear" x1="11.7692" y1="14.1826" x2="110.743" y2="111.049" gradientUnits="userSpaceOnUse">
<stop stop-color="#FC773D"/>
<stop offset="1" stop-color="#FF4D00"/>
</linearGradient>
</defs>
</svg>
