<svg width="135" height="143" viewBox="0 0 135 143" fill="none" xmlns="http://www.w3.org/2000/svg">
<path d="M121.426 74.2655L69.6148 18.1481C66.7102 15.002 62.3764 13.6118 58.184 14.4665L52.0351 15.7277L29.3777 20.3666L28.9375 20.4551C28.7142 20.5003 28.4956 20.5515 28.2793 20.6095C28.1659 20.6399 28.0503 20.6744 27.9342 20.7093C25.5248 21.4177 23.425 22.8416 21.8866 24.7522C20.8911 25.9837 20.127 27.4179 19.6651 28.9923L11.2121 57.8451C10.0074 61.9637 11.0458 66.4159 13.96 69.5708L65.7512 125.667C68.3959 128.53 71.955 130.039 75.5602 130.166C78.5007 130.273 81.4744 129.458 84.0119 127.703C84.5524 127.33 85.0742 126.914 85.5739 126.456L90.1955 122.188L120.633 94.0859C126.326 88.8307 126.68 79.9556 121.426 74.2655ZM42.2958 50.9223C42.1785 51.1158 42.0623 51.3017 41.9379 51.4822C41.8857 51.5624 41.8269 51.6445 41.7695 51.7187C41.5821 51.9677 41.381 52.2056 41.1715 52.4275C41.1006 52.5054 41.0318 52.5791 40.9578 52.6468C40.8868 52.7246 40.8102 52.7969 40.7355 52.8609C38.1869 55.1929 34.3271 55.7228 31.1739 53.9025C27.275 51.6486 25.9422 46.6747 28.1937 42.7802C30.2421 39.2273 34.5587 37.8056 38.2626 39.2908C38.51 39.3901 38.7612 39.5032 39.0093 39.6319C39.1095 39.6898 39.2112 39.7398 39.316 39.8003C43.2094 42.0479 44.5421 47.0219 42.2958 50.9223Z" fill="#E8E8E8"/>
<path d="M65.7516 125.667C68.3962 128.53 71.9554 130.039 75.5606 130.166C78.5011 130.273 81.4748 129.458 84.0122 127.703C84.5527 127.33 85.0746 126.914 85.5742 126.456L90.1958 122.188L120.633 94.086C126.327 88.831 126.68 79.9559 121.426 74.2658L97.2224 48.0499L67.2308 30.7343C66.1309 29.9546 64.8968 29.3481 63.5634 28.9615L57.5312 27.2152L34.8868 20.6616C33.0293 20.1242 31.1104 20.0482 29.2752 20.3871L28.9688 20.4488C28.8743 20.4686 28.7802 20.4919 28.6861 20.5141C28.5668 20.5411 28.4464 20.5671 28.3293 20.5979C28.1184 20.6544 27.9098 20.7197 27.7017 20.7875C27.6173 20.8143 27.5338 20.8435 27.4504 20.8719C25.6859 21.4902 24.0549 22.5115 22.7075 23.9044L21.883 24.757C20.8894 25.9873 20.1265 27.4199 19.6651 28.9922L11.2121 57.8451C10.0074 61.9636 11.0458 66.4159 13.96 69.5707L65.7516 125.667ZM28.1937 42.7802C30.2421 39.2272 34.5587 37.8055 38.2626 39.2908C38.51 39.39 38.7612 39.5031 39.0093 39.6319C39.1095 39.6897 39.2112 39.7397 39.316 39.8002C43.2098 42.0483 44.5424 47.0217 42.2962 50.9225C42.1789 51.1159 42.0626 51.3018 41.9383 51.4823C41.8861 51.5625 41.8272 51.6446 41.7698 51.7188C41.5824 51.9678 41.3814 52.2057 41.1719 52.4276C41.1009 52.5055 41.0321 52.5792 40.9581 52.6469C40.8871 52.7248 40.8105 52.797 40.7358 52.861C38.1872 55.193 34.3275 55.7229 31.1742 53.9026C27.2753 51.6487 25.9425 46.6748 28.1937 42.7802Z" fill="url(#paint0_linear)"/>
<path d="M69.8732 34.5191L64.4985 31.271L44.3219 19.0802C40.4491 16.7413 35.5993 16.7331 31.7185 19.0602L5.93512 34.527C2.25462 36.7336 0 40.7105 0 45.0038V121.355C0 129.1 6.27964 135.38 14.029 135.38H61.7472C69.4928 135.38 75.7722 129.1 75.7722 121.355V44.9757C75.7725 40.6943 73.5335 36.7336 69.8732 34.5191ZM32.1311 50.2263C28.951 47.0422 28.951 41.892 32.1311 38.7122C35.0306 35.8127 39.568 35.5566 42.76 37.9472C42.9763 38.1074 43.1885 38.2838 43.3928 38.4718C43.4767 38.5518 43.5609 38.628 43.6451 38.7122C46.8249 41.892 46.8249 47.0425 43.6451 50.2263C43.4849 50.3825 43.3245 50.5347 43.1566 50.6749C43.0846 50.7389 43.0084 50.8032 42.9324 50.8593C42.6881 51.0516 42.432 51.2317 42.1714 51.3918C42.0835 51.4479 41.995 51.5002 41.9071 51.548C41.8192 51.6041 41.7268 51.6521 41.6388 51.6962C38.5709 53.29 34.7063 52.8015 32.1311 50.2263Z" fill="#FC773D"/>
<path d="M75.7726 121.354C75.7726 121.354 75.7726 121.017 75.7726 120.394L28.7251 73.3578C26.8997 71.8982 24.483 71.1672 21.474 71.1672C14.8645 71.1672 11.5596 74.2121 11.5596 80.3018V91.2928C11.5596 94.5895 12.5368 96.986 14.474 98.4979L51.3558 135.38H61.7476C69.4929 135.379 75.7726 129.1 75.7726 121.354Z" fill="url(#paint1_linear)"/>
<path d="M53.4749 69.0877C52.8259 68.5434 52.1034 68.2706 51.305 68.2706C50.2188 68.2706 49.4785 68.7163 49.0838 69.6075L21.9197 124.174C21.7226 124.521 21.624 124.892 21.624 125.288C21.624 125.981 21.8979 126.612 22.4464 127.182L30.6441 135.379H61.7475C69.4931 135.379 75.7725 129.1 75.7725 121.354C75.7725 121.354 75.7725 111.394 75.7725 98.9872V91.495L53.4749 69.0877Z" fill="url(#paint2_linear)"/>
<path d="M61.4755 98.3848C59.6502 96.9252 57.2332 96.1942 54.2245 96.1942C47.615 96.1942 44.3101 99.2391 44.3101 105.329V116.32C44.3101 119.616 45.2873 122.013 47.2245 123.525L59.0791 135.379H61.747C69.4926 135.379 75.772 129.1 75.772 121.354C75.772 121.354 75.772 117.963 75.772 112.678L61.4755 98.3848Z" fill="url(#paint3_linear)"/>
<path d="M11.5596 91.2926V80.3016C11.5596 74.2119 14.8645 71.167 21.474 71.167C24.4828 71.167 26.8999 71.898 28.7251 73.3576C30.5491 74.8186 31.4623 77.1337 31.4623 80.3013V91.2923C31.4623 94.4613 30.5494 96.7762 28.7251 98.236C26.8997 99.697 24.4828 100.427 21.474 100.427C14.8645 100.427 11.5596 97.3821 11.5596 91.2926ZM16.8322 91.1686C16.8322 94.0243 18.3792 95.4515 21.4738 95.4515C24.6169 95.4515 26.1891 94.0243 26.1891 91.1686V80.4256C26.1891 77.5712 24.6169 76.143 21.4738 76.143C18.379 76.143 16.8322 77.5712 16.8322 80.4256C16.8325 80.4256 16.8325 91.1686 16.8322 91.1686ZM21.6238 125.288C21.6238 124.892 21.7224 124.521 21.9195 124.174L49.0839 69.6075C49.4786 68.7163 50.2189 68.2706 51.305 68.2706C52.1032 68.2706 52.826 68.5434 53.4749 69.0877C54.1236 69.633 54.4484 70.3013 54.4484 71.0926C54.4484 71.4897 54.3741 71.8853 54.2266 72.2808L27.0601 126.625C26.6152 127.565 25.7766 128.036 24.5431 128.036C23.6941 128.036 22.9955 127.75 22.4462 127.182C21.8977 126.612 21.6238 125.981 21.6238 125.288ZM44.3103 116.473V105.398C44.3103 99.2622 47.6152 96.1942 54.2248 96.1942C57.2335 96.1942 59.6507 96.931 61.4758 98.4023C63.2999 99.8736 64.2131 102.206 64.2131 105.398V116.473C64.2131 119.666 63.2999 121.998 61.4758 123.47C59.6504 124.941 57.2335 125.677 54.2248 125.677C47.615 125.677 44.3103 122.609 44.3103 116.473ZM49.583 116.369C49.583 119.257 51.13 120.701 54.2245 120.701C57.3677 120.701 58.9399 119.258 58.9399 116.369V105.501C58.9399 102.614 57.3677 101.169 54.2245 101.169C51.1297 101.169 49.583 102.614 49.583 105.501V116.369Z" fill="url(#paint4_linear)"/>
<path d="M75.7724 44.9748V70.9376L44.3085 39.4738C44.1059 39.2105 43.8854 38.9545 43.6471 38.7127C43.5619 38.6275 43.4763 38.5528 43.3945 38.4708C43.3377 38.4174 43.2806 38.3674 43.2203 38.3215C43.071 38.1863 42.9143 38.062 42.7615 37.9483C39.7175 35.6687 35.4539 35.7933 32.5522 38.3255V18.6033C35.9055 16.9318 39.8421 16.893 43.2205 18.4894C43.5937 18.6636 43.9638 18.8626 44.3229 19.0799L64.5 31.2699L69.8731 34.5201C73.5321 36.732 75.7724 40.6932 75.7724 44.9748Z" fill="url(#paint5_linear)"/>
<path d="M37.8863 48.0189C34.9405 48.0189 32.5522 45.6307 32.5522 42.6849V5.33402C32.5522 2.38823 34.9405 0 37.8863 0C40.832 0 43.2203 2.38823 43.2203 5.33402V42.6846C43.2205 45.6307 40.832 48.0189 37.8863 48.0189Z" fill="url(#paint6_linear)"/>
<defs>
<linearGradient id="paint0_linear" x1="52.3277" y1="14.1675" x2="112.761" y2="103.535" gradientUnits="userSpaceOnUse">
<stop stop-color="white"/>
<stop offset="1" stop-color="white" stop-opacity="0"/>
</linearGradient>
<linearGradient id="paint1_linear" x1="40.1201" y1="104.481" x2="17.8753" y2="82.236" gradientUnits="userSpaceOnUse">
<stop stop-color="#FF7234" stop-opacity="0"/>
<stop offset="1" stop-color="#FF4D00"/>
</linearGradient>
<linearGradient id="paint2_linear" x1="45.7081" y1="103.087" x2="22.9851" y2="84.7524" gradientUnits="userSpaceOnUse">
<stop stop-color="#FF7234" stop-opacity="0"/>
<stop offset="1" stop-color="#FF4D00"/>
</linearGradient>
<linearGradient id="paint3_linear" x1="58.3036" y1="116.524" x2="45.0495" y2="105.882" gradientUnits="userSpaceOnUse">
<stop stop-color="#FF7234" stop-opacity="0"/>
<stop offset="1" stop-color="#FF4D00"/>
</linearGradient>
<linearGradient id="paint4_linear" x1="37.8852" y1="82.2145" x2="37.8852" y2="148.936" gradientUnits="userSpaceOnUse">
<stop stop-color="white"/>
<stop offset="1" stop-color="#E2EDF2"/>
</linearGradient>
<linearGradient id="paint5_linear" x1="51.7756" y1="45.1371" x2="33.6246" y2="30.5059" gradientUnits="userSpaceOnUse">
<stop stop-color="#FF7234" stop-opacity="0"/>
<stop offset="1" stop-color="#FF4D00"/>
</linearGradient>
<linearGradient id="paint6_linear" x1="28.8254" y1="21.5" x2="44.8254" y2="44" gradientUnits="userSpaceOnUse">
<stop stop-color="#FF7A7A"/>
<stop offset="1" stop-color="#F75900"/>
</linearGradient>
</defs>
</svg>
