<svg width="140" height="140" viewBox="0 0 140 140" fill="none" xmlns="http://www.w3.org/2000/svg">
<g filter="url(#filter0_dd)">
<path d="M108 56C108 35.0132 90.9868 18 70 18C49.0132 18 32 35.0132 32 56C32 76.9868 49.0132 94 70 94C90.9868 94 108 76.9868 108 56Z" fill="#F96120"/>
<path d="M107.5 56C107.5 35.2893 90.7107 18.5 70 18.5C49.2893 18.5 32.5 35.2893 32.5 56C32.5 76.7107 49.2893 93.5 70 93.5C90.7107 93.5 107.5 76.7107 107.5 56Z" stroke="#F96120"/>
</g>
<path d="M61.4351 55.0035C60.855 55.5835 60.855 56.5503 61.4351 57.1304L73.939 69.6988C74.5835 70.2788 75.5503 70.2788 76.1304 69.6988L77.6128 68.2163C78.1929 67.6363 78.1929 66.6695 77.6128 66.0249L67.687 56.0347L77.6128 46.1089C78.1929 45.4644 78.1929 44.4976 77.6128 43.9175L76.1304 42.4351C75.5503 41.855 74.5835 41.855 73.939 42.4351L61.4351 55.0035Z" fill="white"/>
<defs>
<filter id="filter0_dd" x="0" y="0" width="140" height="140" filterUnits="userSpaceOnUse" color-interpolation-filters="sRGB">
<feFlood flood-opacity="0" result="BackgroundImageFix"/>
<feColorMatrix in="SourceAlpha" type="matrix" values="0 0 0 0 0 0 0 0 0 0 0 0 0 0 0 0 0 0 127 0" result="hardAlpha"/>
<feOffset dy="14"/>
<feGaussianBlur stdDeviation="16"/>
<feColorMatrix type="matrix" values="0 0 0 0 1 0 0 0 0 0.301961 0 0 0 0 0 0 0 0 0.29 0"/>
<feBlend mode="normal" in2="BackgroundImageFix" result="effect1_dropShadow"/>
<feColorMatrix in="SourceAlpha" type="matrix" values="0 0 0 0 0 0 0 0 0 0 0 0 0 0 0 0 0 0 127 0" result="hardAlpha"/>
<feOffset dy="5"/>
<feGaussianBlur stdDeviation="4"/>
<feColorMatrix type="matrix" values="0 0 0 0 1 0 0 0 0 0.301961 0 0 0 0 0 0 0 0 0.24 0"/>
<feBlend mode="normal" in2="effect1_dropShadow" result="effect2_dropShadow"/>
<feBlend mode="normal" in="SourceGraphic" in2="effect2_dropShadow" result="shape"/>
</filter>
</defs>
</svg>
