<svg width="64" height="64" viewBox="0 0 64 64" fill="none" xmlns="http://www.w3.org/2000/svg">
<rect width="64" height="64" rx="7" fill="#59CDFF"/>
<path fill-rule="evenodd" clip-rule="evenodd" d="M18.634 29.8253C29.5283 30.1412 40.4225 30.4571 51.3168 30.773C52.7672 30.8141 54.4347 31.1649 55.2029 32.5886C56.0592 34.1764 55.2337 36.1602 54.4859 37.5695L46.4043 52.7996C46.0336 53.4971 45.6792 54.2028 45.251 54.8654C44.9048 55.405 44.5094 55.8891 43.9645 56.2379C43.4257 56.5825 42.8276 56.7364 42.1925 56.8184C41.4284 56.9189 40.652 56.9312 39.8797 56.9579C35.717 57.1015 31.5543 57.2451 27.3916 57.3887C23.1736 57.5344 21.9814 56.2235 20.533 52.3708C18.5562 47.115 16.5814 41.8591 14.6045 36.6033C14.2685 35.7109 13.9469 34.7775 13.8076 33.8379C13.6826 32.9968 13.7195 32.1229 14.1559 31.3905C14.5635 30.7053 15.2211 30.2991 15.977 30.0776C16.8149 29.8294 17.7531 29.8006 18.634 29.8253Z" fill="#860911"/>
<path fill-rule="evenodd" clip-rule="evenodd" d="M18.1811 28.9615C29.0754 29.2774 39.9696 29.5934 50.8639 29.9093C52.4229 29.9544 54.1662 30.3503 54.9856 31.8705C55.1372 32.1515 55.2437 32.4531 55.3093 32.7629C55.6125 34.2399 54.9385 35.8483 54.2727 37.1038L46.1911 52.3339C45.8183 53.0375 45.4577 53.7494 45.0275 54.4182C44.6609 54.9885 44.2409 55.4972 43.6653 55.8665C43.0937 56.2317 42.4627 56.3978 41.7888 56.486C41.0144 56.5866 40.2319 56.6009 39.4514 56.6276C35.2887 56.7712 31.126 56.9148 26.9633 57.0584C22.6183 57.2081 21.3257 55.8214 19.8364 51.86C17.8574 46.6041 15.8806 41.3483 13.9037 36.0924C13.5596 35.1775 13.2359 34.2358 13.0925 33.2716C12.9573 32.369 13.0065 31.4356 13.4735 30.6519C13.914 29.9113 14.6207 29.4662 15.4401 29.2261C16.3128 28.9677 17.2675 28.9348 18.1811 28.9615Z" fill="#860911"/>
<path fill-rule="evenodd" clip-rule="evenodd" d="M18.1877 29.6306C29.0819 29.9465 39.9762 30.2625 50.8704 30.5784C52.1569 30.6153 53.7159 30.9025 54.4022 32.1724C55.1786 33.6105 54.355 35.504 53.6811 36.7759L45.5995 52.006C45.2348 52.6932 44.8825 53.3907 44.4625 54.0452C44.1471 54.5355 43.7865 54.9847 43.2908 55.3027C42.8012 55.6145 42.2542 55.7499 41.6765 55.8258C40.9247 55.9243 40.1606 55.9366 39.4005 55.9633C35.2379 56.1069 31.0752 56.2505 26.9125 56.3941C22.8789 56.5336 21.8444 55.3335 20.4575 51.649C18.4806 46.3932 16.5058 41.1373 14.529 35.8814C14.2053 35.0178 13.8878 34.109 13.7526 33.2002C13.6419 32.4534 13.6624 31.6616 14.0496 31.0113C14.4081 30.4102 14.9878 30.0635 15.6495 29.8686C16.4485 29.6306 17.3519 29.606 18.1877 29.6306Z" fill="white"/>
<path fill-rule="evenodd" clip-rule="evenodd" d="M18.1897 30.0306C29.0839 30.3465 39.9782 30.6625 50.8724 30.9784C51.9623 31.0092 53.4413 31.2246 54.0498 32.3529C54.7463 33.6433 53.9104 35.4711 53.3225 36.5769L45.2409 51.807C44.8845 52.4778 44.528 53.1835 44.1204 53.8174C43.8336 54.2646 43.5078 54.677 43.0633 54.9601C42.6229 55.2411 42.123 55.3581 41.6068 55.4258C40.8775 55.5201 40.1072 55.5345 39.3697 55.5591C35.2071 55.7027 31.0444 55.8463 26.8817 55.9899C23.1164 56.1192 22.1884 55.1262 20.8303 51.5157C18.8534 46.2598 16.8765 41.0039 14.9017 35.7481C14.5924 34.9275 14.2769 34.0166 14.1478 33.1509C14.0495 32.4924 14.0577 31.7887 14.3957 31.2225C14.705 30.7014 15.2172 30.4142 15.7764 30.2501C16.5262 30.0306 17.4071 30.008 18.1897 30.0306Z" fill="#FED705"/>
<path fill-rule="evenodd" clip-rule="evenodd" d="M18.1977 30.4327C29.2415 30.7527 39.8366 31.0604 50.8804 31.3805C54.4224 31.483 54.5248 33.4689 52.9843 36.3717L44.9027 51.6018C43.0959 55.0093 43.1266 55.0298 39.3409 55.1611C34.9672 55.3109 31.2265 55.4401 26.8529 55.5919C23.3191 55.713 22.5078 54.8945 21.1906 51.3885C19.2138 46.1326 17.2389 40.8767 15.2621 35.6209C13.8629 31.8974 14.0596 30.3117 18.1977 30.4327Z" fill="#EA3C27"/>
<path fill-rule="evenodd" clip-rule="evenodd" d="M22.4872 23.6912C22.819 23.125 23.6569 22.7024 24.548 23.1189C24.6873 23.1845 24.8062 23.2789 24.9004 23.4102C25.1052 23.6912 25.1667 24.2246 24.9147 24.5221C26.066 24.7478 25.5682 26.7664 25.1052 27.3449C25.771 28.3542 25.097 29.2794 24.9332 29.4354C24.9864 29.7944 25.009 30.1882 25.0602 30.5288C25.3736 30.0918 25.6973 29.6344 26.023 29.1317C26.109 29.0004 26.3282 28.8035 26.3528 28.6722C26.3999 28.3994 26.2422 28.0116 26.2729 27.7142C26.3037 27.4188 26.4655 27.1213 26.4204 26.8054C26.3713 26.471 26.1992 26.2002 26.1439 25.8966C26.0947 25.6217 26.0824 25.3509 26.1213 25.0801C26.1705 24.7231 26.4491 24.3805 26.2135 23.9149C25.8612 23.921 25.3019 24.0667 25.22 23.6235C25.1728 23.3589 25.3388 23.0881 25.5109 22.963C25.6932 22.8296 25.9165 22.7886 26.0783 22.686C26.0353 22.5835 26.0025 22.4809 25.9738 22.3865C25.9165 22.1896 25.855 21.9393 25.8386 21.7341C25.7546 20.7782 25.7977 19.976 26.0005 19.0447C26.1357 18.421 26.3221 17.902 26.7052 17.3932C26.783 17.2886 26.8813 17.186 26.994 17.0917C26.5966 17.1778 26.1213 17.1327 25.8878 16.9152C25.7178 16.7552 25.5908 16.3757 25.7444 16.1316C25.9861 15.748 26.5966 16.0947 26.9346 15.8608C27.0145 15.8054 27.1149 15.6556 27.1518 15.5367C27.3648 14.8494 27.1477 13.9468 27.1436 13.1631C27.1415 12.6154 27.0821 12.1333 27.1456 11.7086C27.2501 11.0029 27.3648 10.4162 27.6659 9.92794C27.7602 9.77408 27.8974 9.65509 27.9876 9.50328C28.1904 9.15863 28.3399 8.8263 28.6083 8.54319C28.934 8.19855 29.3765 7.96468 29.8067 7.70414C30.4213 7.33078 31.1342 7.05588 32.099 7.02511C32.349 7.0169 32.5825 7.11332 32.816 7.09075C33.4613 7.02716 34.0411 6.68661 34.7663 6.71123C35.1268 6.72354 35.5161 6.8056 35.8602 6.8815C36.2126 6.95741 36.5997 7.08255 36.9337 7.06408C37.5769 7.02716 38.1853 6.79124 38.8614 6.82406C39.1932 6.84047 39.5599 6.92869 39.859 7.03536C40.1581 7.14409 40.5043 7.28564 40.8054 7.29795C41.3627 7.31847 41.8871 7.16255 42.4115 7.07229C42.9974 6.97177 43.4481 7.07639 43.9234 7.17281C44.8329 7.35744 45.5028 8.05084 46.4431 8.03033C47.2154 8.01391 47.9058 7.82313 48.6228 7.87031C48.7088 7.87647 48.8092 7.88877 48.8829 7.9175C49.5262 8.15547 50.0424 8.74629 50.698 9.00272C51.0216 9.12991 51.417 9.10324 51.8226 9.14633C52.1299 9.17915 52.4249 9.28993 52.6789 9.3925C52.9944 9.51969 53.2443 9.71869 53.5762 9.86229C54.6804 10.3423 55.3953 11.1896 55.7415 12.6113C55.7887 12.8041 55.93 12.9559 55.9689 13.1939C56.0324 13.5796 55.9812 13.9509 55.971 14.2832C55.9587 14.632 55.8214 14.911 55.7928 15.2187C55.7292 15.8998 55.6412 16.3285 55.4056 16.8516C55.2806 17.1286 55.2765 17.4548 55.1331 17.7256C54.8689 18.2302 54.5206 18.6077 54.199 19.0754C54.0351 19.3155 53.8855 19.5124 53.6704 19.6868C53.4512 19.8653 53.2996 20.0827 53.0948 20.2694C52.6113 20.7105 51.8226 20.9915 51.2367 21.3444C50.9684 21.5064 50.7307 21.7793 50.4296 21.9454C50.6365 22.1096 50.9786 22.288 51.0729 22.5835C51.29 23.2686 50.6754 23.5825 50.1141 23.5764C49.6798 23.5723 49.3398 23.3281 49.0427 23.2071C48.5388 23.6153 48.1188 24.0974 47.6989 24.5795C47.9611 25.4001 48.3974 25.8104 48.9833 26.2433C49.307 26.4812 49.772 26.5797 49.7229 27.2485C49.686 27.7491 49.1923 28.2106 48.5593 27.9706C48.1782 27.825 48.0123 27.5029 47.7665 27.1398C47.4244 26.6351 47.1888 26.0299 46.904 25.4637C46.4738 25.8843 46.1071 26.3602 45.7015 26.8013C45.9412 27.4044 46.228 27.9501 46.4902 28.5307C46.8139 29.2425 47.1273 29.8703 47.4141 30.656C47.4797 30.8386 47.6046 31.0088 47.6477 31.1812C47.8566 32.0448 47.326 32.4736 46.5967 32.7218C46.0826 32.8982 45.5479 33.0562 45.1177 33.2778C44.8227 33.4275 44.5174 33.6655 44.2511 33.8276C44.1139 34.2461 43.8168 34.5271 43.401 34.7056C43.0753 35.4051 42.7168 36.2175 42.137 36.7653C41.7212 37.1571 41.2275 37.5489 40.4142 37.4546C40.3568 37.4484 40.2278 37.3889 40.1724 37.3499C39.9922 37.2227 39.8529 36.7099 39.562 36.8453C39.48 36.8822 39.3653 37.2289 39.3059 37.3786C39.1994 37.6474 39.1625 37.8874 39.1277 38.1767C39.1092 38.3244 38.9925 38.5316 39.1564 38.6506C39.5189 38.6506 39.7894 38.7593 39.9676 39.026C40.0925 39.2127 40.1786 39.6599 39.9901 39.8425C39.6009 40.2199 39.0334 39.7112 38.7528 39.5594C38.7425 39.7809 38.6811 39.9573 38.6586 40.1686C39.1338 40.2917 39.2547 41.1944 38.5049 41.1349C38.4475 42.0027 38.6749 43.2253 38.6422 44.1095C38.6176 44.7496 37.8125 44.8357 37.2942 44.6203C36.9193 44.4644 36.5301 44.1936 36.1818 43.9639C35.7312 43.6664 35.2969 43.1925 34.881 42.8232C34.1927 42.214 34.2336 42.4971 34.0616 42.7104C33.6437 43.2356 32.9103 43.0981 32.6911 42.3924C32.5129 41.8262 33.1233 41.6149 32.9717 41.0754C32.9164 40.8744 32.7259 40.7841 32.5743 40.5871C32.1585 40.0456 31.9188 39.3193 31.4394 38.8537C31.2325 38.6772 31.0748 38.8003 31.044 39.0568C30.9764 39.6353 30.9416 40.2261 30.4069 40.3697C29.5199 40.6118 29.4093 39.7009 29.5629 39.067C29.6285 38.8003 29.8272 38.5418 29.989 38.2936C30.1181 38.0967 30.3946 37.7684 30.4028 37.5202C30.4069 37.4197 30.3393 37.2679 30.3045 37.153C30.2348 36.9273 30.114 36.6791 30.0259 36.4719C29.7616 36.4329 29.4974 35.9098 29.2925 35.6821C29.1102 35.481 28.8685 35.7334 28.7886 35.918C28.7087 36.1006 28.6984 36.316 28.5919 36.5027C28.4936 36.675 28.2928 37.0053 28.1289 37.0976C27.9261 37.2145 27.6434 37.1489 27.5512 36.9766C27.2993 36.5068 27.5533 35.8544 27.7172 35.4975C27.9056 35.0872 28.258 34.8225 28.3399 34.4348C28.3604 34.3425 28.3481 34.164 28.3338 34.0942C28.1986 33.4398 27.5021 33.3249 27.5123 32.5269C27.5144 32.4305 27.5697 32.3649 27.5697 32.2828C27.5738 31.8274 27.0862 31.653 27.0145 31.2386C26.6232 31.694 26.1193 32.1987 25.7321 32.8223C25.39 33.3742 25.1462 34.3876 24.1527 34.2071C23.6467 34.1148 23.6385 33.5937 23.45 33.0931C23.1181 32.213 22.6982 30.5944 22.3049 29.9072C22.2618 29.8313 22.1369 29.8087 22.057 29.7472C21.7702 29.5174 21.5264 29.1523 21.5961 28.6271C20.9979 28.5573 20.2727 28.1286 19.9039 27.6896C19.7257 27.4783 19.4676 27.2054 19.4348 26.8649C19.4 26.512 19.4512 26.153 19.908 26.231C19.6028 25.9766 19.0415 25.3078 18.9718 24.4605C18.9288 23.9231 19.2791 23.4266 19.738 23.4081C20.1518 23.3917 20.3956 23.8307 20.4304 23.8266C20.1149 23.0204 20.3362 21.5372 21.4219 21.5782C22.0508 21.6028 22.2782 22.0378 22.3868 22.5999C22.4524 22.9486 22.4585 23.3199 22.4872 23.6912ZM23.7901 25.5683C23.7839 25.2975 23.8782 25.115 23.9458 24.9078C23.2574 25.0062 23.325 25.515 23.7901 25.5683ZM44.0401 29.3512C43.4501 29.7349 43.1715 30.5144 43.0199 31.2755C43.1777 31.2858 43.5218 31.415 43.6325 31.5176C43.9807 31.5381 44.5359 31.3248 44.921 31.2427C45.214 31.1791 45.4229 31.1319 45.4475 30.8919C45.0071 30.3544 44.5297 29.7903 44.0401 29.3512Z" fill="#860911"/>
<path fill-rule="evenodd" clip-rule="evenodd" d="M48.2726 19.8201C47.8363 20.2448 47.6478 21.1208 48.2071 21.5639C48.8626 22.0809 49.4977 22.0296 50.1471 22.2716C50.6981 22.4788 50.821 23.2092 49.8603 23.0286C49.7066 22.9999 49.5591 22.9384 49.426 22.8563C48.9691 22.5794 48.4939 21.8962 48.0739 21.687C47.7031 21.5023 47.0681 21.529 46.771 21.8183C46.769 21.7136 46.7833 21.6747 46.7915 21.5331C46.4801 21.8572 46.4781 22.3332 46.5641 22.8132C46.6235 23.1394 46.8899 23.523 47.0046 23.9456C47.1275 24.4093 47.5454 25.1293 47.8199 25.5314C48.1436 26.0053 48.5308 26.4012 48.9835 26.7213C49.1781 26.9675 49.2621 27.4454 48.8217 27.4495C48.5697 27.4516 48.0534 26.8423 47.9059 26.6064C47.5188 25.9869 47.3344 25.3591 47.0271 24.7375C46.8386 24.1385 46.1688 23.322 45.4272 23.8492C45.0769 24.0995 45.2899 24.6678 45.3678 25.1478C44.8802 25.1765 45.038 25.634 45.2182 25.8986C44.7962 26.0361 44.5422 26.3192 44.1776 26.5079C44.2759 26.0812 44.407 25.9725 44.5873 25.8043C43.7351 26.0853 43.0447 27.7819 43.1922 28.703C43.2414 28.5409 43.2619 28.4363 43.352 28.3481C43.4278 28.5676 43.4012 28.9964 43.3581 29.2323C42.9873 29.1092 43.0652 28.4958 42.5367 28.5861C41.9487 28.6845 41.9549 29.4046 42.1208 29.9954C41.8586 29.7267 41.7521 29.1605 41.75 28.7543C41.582 28.863 41.496 29.2548 41.5472 29.5318C41.5656 29.6303 41.6722 29.9831 41.748 30.0836C41.7951 30.1452 41.8811 30.1636 41.9364 30.2149C42.2191 30.4796 42.3892 30.7893 42.3994 31.3576C42.2314 31.3617 42.1249 31.4212 42.0327 31.4909C41.6783 31.2407 41.3505 31.2817 41.074 30.9473C40.9552 30.8017 40.9654 30.6068 40.9019 30.3606C40.8056 29.977 40.5496 29.5297 40.0845 29.6344C39.8633 29.6836 39.5806 29.8416 39.4167 30.1226C39.0951 30.6704 39.0152 31.5422 39.2549 31.9628C38.7325 32.3546 37.8311 32.7341 37.7697 33.5178C37.743 33.8686 37.8926 34.1045 38.1077 34.2276C38.1978 34.7076 37.9643 35.4811 38.5215 35.7149C38.3269 36.3611 38.0462 37.034 38.2162 37.7951C38.374 38.509 38.6936 38.9891 39.304 39.2065C39.5949 39.3091 39.4802 39.5594 39.2385 39.4199C39.1319 39.3583 39.048 39.2455 38.9537 39.1881C38.8452 39.1224 38.6628 39.028 38.5379 39.0075C38.0196 38.9214 37.5914 39.2168 37.5361 39.5348C37.3968 40.3225 38.2552 40.2589 38.5624 40.6179C37.026 40.8395 37.5443 42.5463 37.786 43.5618C37.9233 44.1403 37.5443 44.2244 37.1326 43.9495C36.7187 43.6746 36.3008 43.3505 35.8952 43.0551C35.463 42.7412 35.1844 42.4335 34.8586 42.097C34.5718 41.8016 34.0638 41.6621 33.7668 42.0745C33.6664 42.2119 33.6336 42.4109 33.4882 42.4622C33.103 42.5935 32.9473 42.134 33.1399 41.9165C33.3284 41.7032 33.5189 41.6683 33.566 41.5452C33.7156 41.1575 33.3796 41.0652 32.8511 40.1625C32.6339 39.7912 32.3574 39.3665 32.0767 39.0116C31.8923 38.7778 31.6322 38.3941 31.3658 38.3675C31.1282 38.3429 30.7492 38.548 30.6734 38.7429C30.5485 39.067 30.5874 39.4937 30.4358 39.7809C30.2576 40.1194 29.8643 40.1276 29.854 39.6476C29.8397 38.9788 30.1347 38.9009 30.401 38.39C30.5034 38.1951 30.6038 37.9305 30.7021 37.7295C30.9029 37.3151 30.993 36.7858 30.7062 36.1724C30.7062 36.437 30.6775 36.5581 30.6529 36.7448C30.5014 36.4658 30.3498 36.1806 30.0916 36.0308C30.0097 35.9837 29.9175 35.9878 29.8602 35.9262C29.7803 35.8421 29.7782 35.6985 29.7209 35.5857C29.6205 35.3908 29.2968 35.1692 29.0346 35.2226C28.6454 35.3026 28.4876 35.7252 28.3319 36.1232C27.998 36.9786 27.8464 36.4288 27.9591 36.0165C28.0718 35.6 28.5183 35.28 28.6556 34.8123C28.7007 34.6584 28.6658 34.4963 28.6945 34.3425C28.7457 34.0758 28.9281 33.844 28.7888 33.4706C28.7642 33.405 28.6945 33.368 28.6822 33.2532C28.5982 33.3598 28.6904 33.6163 28.6351 33.7455C28.4405 33.3701 28.0554 33.1137 28.0267 32.5803C28.0021 32.1187 28.2684 31.4745 27.8403 31.1545C27.8013 31.3494 27.9632 31.6838 27.869 31.9012C27.6948 31.6181 27.4367 31.3638 27.3589 30.9781C27.3179 30.7729 27.3957 30.5678 27.3855 30.3626C27.3671 29.9934 27.1601 29.7616 27.0434 29.4723C27.324 29.6549 27.6743 29.4149 27.7932 29.2507C27.957 30.0016 28.0738 30.8037 28.8871 30.7483C29.2415 30.7257 29.5201 30.338 29.557 29.9646C29.6205 29.3102 29.2702 28.9799 29.096 28.5717C29.7926 28.4322 29.8909 27.5131 29.5693 26.8977C29.4054 26.5859 29.1063 26.4177 28.7683 26.3705C28.0472 26.2679 27.1069 26.8382 26.857 27.4885C26.8488 26.9962 27.0065 26.5674 26.8631 26.0915C26.7689 25.7776 26.6132 25.5089 26.6275 25.1232C26.648 24.5385 27.2216 24.1467 27.0598 23.4861C26.9225 23.6461 26.9635 23.96 26.8119 24.1098C26.8897 23.7138 26.6378 23.3671 26.2506 23.3958C26.0273 23.4123 25.8327 23.5723 25.6196 23.562C25.7282 23.1086 26.4268 23.164 26.6357 22.7948C26.48 20.8315 27.1007 18.0743 27.5084 17.5615C27.6866 17.3358 27.9222 17.0855 27.9099 16.6814C27.9038 16.4988 27.8403 16.3265 27.6846 16.2793C27.6354 16.3449 27.701 16.468 27.7174 16.5378C27.3138 16.2896 26.5886 16.9173 26.1768 16.4968C26.3469 16.4085 26.5886 16.4701 26.7955 16.4332C27.3589 16.3326 27.5719 15.9141 27.7235 15.4136C28.4425 15.469 29.2947 15.6721 30.0998 15.748C29.8356 15.7049 29.6512 15.5674 29.432 15.4751C29.8888 15.3418 30.276 15.4772 30.6673 15.5982C31.5809 15.8854 32.636 15.6515 33.6725 15.5859C34.0085 15.5654 34.3998 15.6105 34.6743 15.7172C34.7644 15.7521 34.8382 15.8382 34.9222 15.8793C35.3462 16.0803 35.9157 16.0783 36.3254 16.2957C36.0632 16.3778 35.7477 16.3162 35.5326 16.2608C35.7498 16.4865 36.1042 16.4968 36.434 16.5255C36.5467 16.5357 36.6655 16.6198 36.7863 16.6219C37.1366 16.6239 37.4562 16.5357 37.8065 16.5706C38.1978 16.6096 38.6178 16.5644 38.9455 16.6116C39.4269 16.6814 39.7076 17.1348 40.2607 17.0363C40.1419 16.9317 39.8612 16.9153 39.7383 16.7737C40.2996 16.5952 40.8077 16.8927 41.3628 17.0363C41.4673 17.063 41.623 17.1245 41.7418 17.1758C42.2683 17.3994 42.8726 17.7297 43.4544 17.9636C43.8846 18.1359 44.448 18.2282 44.8188 18.4395C45.4313 18.7903 46.2855 18.6857 47.1541 18.6754C46.9943 18.7226 46.8735 18.8026 46.6993 18.8375C46.9698 18.8662 47.3119 18.739 47.6704 18.7329C48.0514 18.7267 48.4488 18.7411 48.6885 18.8826C48.9179 19.018 48.8913 19.4919 48.7745 19.5616C48.7336 19.4611 48.7643 19.2703 48.7131 19.2149C48.5308 19.3586 48.5574 19.736 48.5287 20.0499C48.5205 20.1279 48.498 20.2038 48.4673 20.2694C48.244 20.733 48.1456 20.4971 48.1661 20.214C48.1641 20.0561 48.2706 19.8653 48.2726 19.8201Z" fill="#FED705"/>
<path fill-rule="evenodd" clip-rule="evenodd" d="M48.2729 19.82C47.8365 20.2446 47.6481 21.1206 48.2073 21.5637C48.8629 22.0807 49.4979 22.0294 50.1473 22.2715C50.6984 22.4787 50.8213 23.209 49.8605 23.0285C49.7069 22.9998 49.5594 22.9382 49.4262 22.8562C48.9694 22.5792 48.4941 21.8961 48.0742 21.6868C47.7034 21.5022 47.0683 21.5289 46.7713 21.8181C46.7692 21.7135 46.7836 21.6745 46.7918 21.533C46.4804 21.8571 46.4783 22.333 46.5644 22.8131C46.6238 23.1393 46.8901 23.5229 47.0048 23.9455C47.1277 24.4091 47.5456 25.1292 47.8201 25.5313C48.1438 26.0052 48.531 26.4011 48.9837 26.7211C49.1783 26.9673 49.2623 27.4453 48.8219 27.4494C48.5699 27.4515 48.0537 26.8422 47.9062 26.6062C47.519 25.9867 47.3346 25.359 47.0273 24.7374C46.8389 24.1383 46.169 23.3218 45.4274 23.8491C45.0771 24.0994 45.2902 24.6676 45.368 25.1477C44.8805 25.1764 45.0382 25.6339 45.2185 25.8985C44.7965 26.0359 44.5424 26.319 44.1778 26.5078C44.2761 26.0811 44.4072 25.9723 44.5875 25.8041C43.7353 26.0852 43.0449 27.7817 43.1924 28.7029C43.2416 28.5408 43.2621 28.4362 43.3522 28.3479C43.428 28.5675 43.4014 28.9962 43.3584 29.2321C42.9876 29.109 43.0654 28.4957 42.5369 28.5859C41.949 28.6844 41.9551 29.4045 42.121 29.9953C41.8588 29.7265 41.7523 29.1603 41.7503 28.7541C41.5823 28.8629 41.4962 29.2547 41.5474 29.5316C41.5659 29.6301 41.6724 29.983 41.7482 30.0835C41.7953 30.145 41.8814 30.1635 41.9367 30.2148C42.2194 30.4794 42.3894 30.7892 42.3996 31.3575C42.2317 31.3616 42.1251 31.421 42.033 31.4908C41.6786 31.2405 41.3508 31.2815 41.0742 30.9472C41.0087 30.8672 40.982 30.7728 40.9616 30.6641C41.1746 30.3727 41.7031 28.1223 42.4365 27.1007C43.1699 26.079 44.438 24.0501 44.6756 23.7219C44.9153 23.3936 46.2161 21.9022 46.4189 21.5412C46.6217 21.1822 47.3223 20.1298 47.562 19.9431C47.7321 19.8118 48.0168 19.1286 48.1663 18.7471C48.3651 18.7655 48.5474 18.8045 48.6785 18.8825C48.9079 19.0179 48.8813 19.4918 48.7645 19.5615C48.7236 19.461 48.7543 19.2702 48.7031 19.2148C48.5208 19.3584 48.5474 19.7359 48.5187 20.0498C48.5105 20.1277 48.488 20.2036 48.4572 20.2693C48.234 20.7329 48.1356 20.497 48.1561 20.2139C48.1643 20.0559 48.2708 19.8651 48.2729 19.82ZM38.1325 34.8655C38.1366 35.2245 38.1796 35.5732 38.5217 35.7168C38.3271 36.363 38.0465 37.0359 38.2165 37.797C38.3742 38.5109 38.6938 38.991 39.3043 39.2084C39.5952 39.311 39.4804 39.5613 39.2387 39.4218C39.1322 39.3602 39.0482 39.2474 38.954 39.19C38.8454 39.1243 38.6631 39.0299 38.5381 39.0094C38.0198 38.9233 37.5917 39.2187 37.5364 39.5367C37.3971 40.3244 38.2554 40.2608 38.5627 40.6198C37.0263 40.8414 37.5446 42.5482 37.7863 43.5637C37.8375 43.777 37.817 43.9227 37.7515 44.0089C37.4052 43.0385 36.9996 41.8282 36.9648 41.4158C36.9034 40.6875 37.4442 39.1038 37.5814 38.5253C37.7207 37.9447 37.5773 35.9445 38.1325 34.8655Z" fill="#FCC437"/>
<path fill-rule="evenodd" clip-rule="evenodd" d="M54.4284 11.3003C54.2809 11.2675 54.2174 11.1342 54.0678 11.1034C54.5062 11.6901 54.8012 11.5527 55.1065 12.3815C55.2683 12.8205 55.3851 13.358 55.3871 13.8565C55.3892 14.437 55.2376 15.0053 55.1823 15.5428C55.0307 17.0055 54.3341 18.2261 53.5127 19.1575C52.9022 19.8488 52.177 20.4991 51.3043 20.9669C51.4846 20.811 51.6854 20.6756 51.8554 20.5114C51.2736 20.612 50.7881 21.1166 50.319 21.4469C50.194 21.5351 49.9482 21.7875 49.8478 21.8039C49.7884 21.8141 49.7085 21.7423 49.6409 21.7198C49.2107 21.572 48.6166 21.4838 48.3974 21.0859C48.7108 20.7638 48.928 20.3576 48.9218 19.7585C49.1533 19.5985 49.1984 19.2785 49.3049 19.0118C49.5016 19.3585 50.151 19.5247 50.5382 19.2498C50.1838 19.3913 49.7126 19.1759 49.5589 18.8436C49.7658 18.819 49.7843 18.5872 49.6204 18.5092C48.4302 18.1605 48.2315 16.2054 48.4179 14.7591C48.422 14.7201 48.4384 14.6401 48.4486 14.5971C48.7231 13.5816 49.7576 12.0019 50.6344 11.4501C51.081 11.169 51.5379 10.8367 52.0869 10.7034C52.6318 10.5721 53.4615 10.5392 53.8363 10.7157C54.0945 10.8367 54.2993 11.0398 54.4284 11.3003ZM38.1894 43.3422C38.1033 43.1063 37.835 41.3708 38.1709 41.2538C38.2058 41.4754 38.3635 43.1494 38.1894 43.3422ZM38.7384 36.0616C38.8326 36.1929 38.7814 36.279 38.8142 36.4411C38.8408 36.5703 39.0232 36.6647 39.0416 36.7632C39.0764 36.9437 38.8326 37.1981 38.7794 37.3643C38.7138 37.5715 38.6974 37.7376 38.6257 37.9223C38.3471 37.2966 38.6544 36.6093 38.7384 36.0616ZM38.4291 39.4157C38.3881 39.6209 38.3389 39.8199 38.3021 40.0291C37.9518 40.0045 37.9333 39.2311 38.4291 39.4157ZM43.2698 29.5174C43.1264 29.9338 42.8683 30.2518 42.6962 30.6436C42.4709 30.1492 42.1226 29.5112 42.3623 28.9122C42.8786 28.5922 42.8847 29.4394 43.2698 29.5174ZM46.7114 25.0165C46.355 25.5581 45.8715 25.9868 45.5253 26.5346C45.4044 26.432 45.2631 26.3561 45.0746 26.3335C45.2856 26.2125 45.6708 26.0955 45.6072 25.7899C45.5827 25.6729 45.4577 25.6565 45.4393 25.5088C46.0538 25.3488 45.4679 24.5672 45.5745 24.202C45.6974 23.7876 46.3079 24.2061 46.398 24.3374C46.5537 24.559 46.5701 24.8134 46.7114 25.0165ZM48.7129 22.8378C48.4117 22.5875 48.0819 22.0439 47.6333 21.9372C46.4103 21.6459 47.3875 23.722 47.4899 24.1897C47.9098 23.7917 48.2376 23.2235 48.7129 22.8378Z" fill="#EDA951"/>
<path fill-rule="evenodd" clip-rule="evenodd" d="M55.1248 12.4309C55.2764 12.8597 55.385 13.3746 55.387 13.8526C55.3891 14.4331 55.2375 15.0014 55.1822 15.5389C55.0306 17.0016 54.3341 18.2222 53.5126 19.1536C52.9021 19.8449 52.1769 20.4952 51.3043 20.963C51.4845 20.8071 51.6853 20.6717 51.8553 20.5075C51.2735 20.6081 50.788 21.1127 50.3189 21.443C50.1939 21.5312 49.9481 21.7836 49.8477 21.8C49.7883 21.8102 49.7084 21.7384 49.6408 21.7159L49.6326 21.7138L49.7146 21.642C49.7924 21.5743 49.8703 21.5066 49.9543 21.4348C50.9622 20.5629 51.2121 20.3168 52.3818 19.6705C52.4515 19.6316 52.0376 20.2409 52.1012 20.1916C53.3836 19.1884 54.2296 18.0191 54.7131 16.4826C55.1023 15.2496 55.2949 13.7828 55.1248 12.4309ZM38.5581 37.7235C38.6441 37.3583 38.7589 36.909 38.8756 36.5521C38.9391 36.63 39.0313 36.6957 39.0436 36.7634C39.0784 36.9439 38.8347 37.1983 38.7814 37.3645C38.7158 37.5717 38.6995 37.7378 38.6278 37.9225C38.597 37.8568 38.5745 37.7912 38.5581 37.7235ZM42.5487 30.3238C42.7249 30.0489 42.9174 29.7515 43.1223 29.4396C43.1653 29.4786 43.2124 29.5053 43.2698 29.5176C43.1264 29.934 42.8683 30.252 42.6962 30.6439C42.6491 30.5433 42.5979 30.4346 42.5487 30.3238ZM45.2733 26.383C45.3511 26.2804 45.429 26.1799 45.5068 26.0793C45.5376 26.0506 45.5621 26.0198 45.5806 25.985C45.7711 25.7429 45.9596 25.5111 46.146 25.2916C46.3058 25.1028 46.4533 24.9305 46.5885 24.7705C46.6212 24.8567 46.6561 24.9408 46.7093 25.0187C46.3529 25.5603 45.8694 25.9891 45.5232 26.5368C45.4515 26.4712 45.3696 26.4178 45.2733 26.383ZM47.3854 23.8555C47.7602 23.4391 48.0962 23.0985 48.5489 22.68C48.6043 22.7395 48.6596 22.7929 48.7128 22.838C48.2376 23.2237 47.9098 23.7919 47.4898 24.1899C47.4735 24.114 47.4345 23.9971 47.3854 23.8555Z" fill="#EDA951"/>
<path fill-rule="evenodd" clip-rule="evenodd" d="M54.8032 11.8154C54.9077 11.9385 55.006 12.1067 55.1064 12.3796C55.2682 12.8186 55.385 13.3561 55.387 13.8546C55.3891 14.4352 55.2375 15.0034 55.1822 15.5409C55.0306 17.0036 54.3341 18.2242 53.5126 19.1556C52.9021 19.8469 52.1769 20.4972 51.3042 20.965C51.4845 20.8091 51.6853 20.6737 51.8553 20.5096C51.2735 20.6101 50.788 21.1147 50.3189 21.445C50.1939 21.5332 49.9481 21.7856 49.8477 21.802C49.7883 21.8122 49.7084 21.7404 49.6408 21.7179C49.5753 21.6953 49.5036 21.6727 49.4319 21.6522C49.5712 21.5271 49.6838 21.4286 49.7494 21.3712C50.1284 21.0429 50.9621 20.489 51.1731 20.3762C51.3841 20.2634 52.3777 19.6726 52.3777 19.6726L52.2568 19.8839C52.2568 19.8839 53.0291 19.133 53.3815 18.7617C53.7338 18.3883 54.4099 17.3277 54.711 16.4866C55.0121 15.6455 55.0961 14.4311 55.1125 14.0638C55.1289 13.6966 54.879 12.794 54.8401 12.1826C54.8339 12.0698 54.8196 11.9447 54.8032 11.8154ZM38.5376 37.6332C38.6216 37.3193 38.7425 36.8926 38.8674 36.5418C38.9309 36.6238 39.0293 36.6936 39.0436 36.7633C39.0784 36.9439 38.8346 37.1983 38.7814 37.3644C38.7158 37.5716 38.6994 37.7378 38.6277 37.9224C38.5847 37.8281 38.556 37.7316 38.5376 37.6332ZM42.4176 30.0058C42.5282 29.8089 42.6101 29.6612 42.6573 29.5812C42.7412 29.4355 42.8314 29.2919 42.9195 29.1565C43.0137 29.3165 43.1079 29.4847 43.2698 29.5176C43.1264 29.934 42.8683 30.252 42.6962 30.6438C42.6081 30.4489 42.4995 30.2335 42.4176 30.0058ZM45.0828 26.3357L45.091 26.3255C45.304 26.2065 45.6686 26.0896 45.6092 25.79C45.6031 25.7593 45.5908 25.7367 45.5744 25.7162C45.812 25.4167 46.0067 25.1746 46.107 25.0577L46.5208 24.5715C46.5823 24.7274 46.6212 24.8833 46.7134 25.0166C46.357 25.5582 45.8735 25.987 45.5273 26.5347C45.4064 26.4342 45.2671 26.3583 45.0828 26.3357ZM47.3095 23.638L47.541 23.3652C47.541 23.3652 47.9569 22.9877 48.4322 22.5569C48.5305 22.6656 48.6227 22.7662 48.7128 22.84C48.2375 23.2257 47.9098 23.794 47.4898 24.1919C47.4652 24.0791 47.3915 23.876 47.3095 23.638Z" fill="#FDDC95"/>
<path fill-rule="evenodd" clip-rule="evenodd" d="M48.3566 15.7498C48.3545 15.4072 48.3771 15.0687 48.418 14.7548C48.4221 14.7159 48.4385 14.6359 48.4488 14.5928C48.7233 13.5773 49.7578 11.9977 50.6346 11.4458C51.0812 11.1648 51.538 10.8324 52.087 10.6991C52.4639 10.6088 52.9761 10.5657 53.3797 10.6047C53.9451 10.8386 54.5719 12.1413 54.7338 12.6706C54.8956 13.1998 54.8587 14.1743 54.8731 14.9067C54.8874 15.639 54.4531 16.2073 54.3671 16.6278C54.281 17.0504 52.636 18.6444 52.5316 18.5316C52.4271 18.4188 52.8655 17.7151 53.0314 17.3069C51.0484 19.0547 48.9076 17.6064 48.3566 15.7498Z" fill="#FEC375"/>
<path fill-rule="evenodd" clip-rule="evenodd" d="M52.8081 12.4226C52.4598 12.6831 52.298 11.92 52.7405 12.1067C52.8614 12.16 52.9474 12.2872 52.8081 12.4226Z" fill="#860911"/>
<path fill-rule="evenodd" clip-rule="evenodd" d="M49.9852 13.0115C49.8541 13.3705 49.7619 13.9982 49.8233 14.546C49.4423 13.9305 49.6758 13.3069 49.9852 13.0115Z" fill="#860911"/>
<path fill-rule="evenodd" clip-rule="evenodd" d="M53.4371 13.5322C53.2711 13.4235 53.4371 13.2614 53.5416 13.3353C53.6665 13.4235 53.601 13.6389 53.4371 13.5322Z" fill="#860911"/>
<path fill-rule="evenodd" clip-rule="evenodd" d="M51.0341 14.6401C50.9296 14.5786 50.9358 14.4227 51.0608 14.3878C51.2513 14.3324 51.2411 14.7591 51.0341 14.6401Z" fill="#860911"/>
<path fill-rule="evenodd" clip-rule="evenodd" d="M52.8712 14.55C52.8732 14.591 52.8692 14.63 52.863 14.6669C52.8015 14.9562 52.5967 15.5675 52.3037 15.43C52.1808 15.1921 52.4615 15.0362 52.5229 14.8556C52.5598 14.7448 52.5475 14.5828 52.5742 14.4679C52.6151 14.2833 52.863 14.2422 52.8712 14.55Z" fill="#860911"/>
<path fill-rule="evenodd" clip-rule="evenodd" d="M54.3896 14.9334C54.5473 14.9723 54.6313 15.2308 54.3568 15.2452C54.1028 15.2616 54.1376 14.8718 54.3896 14.9334Z" fill="#860911"/>
<path fill-rule="evenodd" clip-rule="evenodd" d="M49.4731 15.8136C49.4834 15.6023 49.764 15.6597 49.7415 15.8259C49.7272 15.9428 49.4895 15.9613 49.4731 15.8136Z" fill="#860911"/>
<path fill-rule="evenodd" clip-rule="evenodd" d="M54.2153 16.2114C54.2522 17.0033 53.8322 17.7295 53.2197 18.0311C53.7482 17.4731 54.119 16.4022 54.2153 16.2114Z" fill="#860911"/>
<path fill-rule="evenodd" clip-rule="evenodd" d="M50.0098 16.6321C50.5281 17.4547 51.2779 17.2537 51.5544 17.1388C51.2676 17.5163 50.147 17.6065 50.0098 16.6321Z" fill="#860911"/>
<path fill-rule="evenodd" clip-rule="evenodd" d="M51.9107 19.1411C51.9885 18.9811 52.2568 18.9954 52.2486 19.1924C52.2404 19.3729 51.9086 19.4016 51.9107 19.1411Z" fill="#860911"/>
<path fill-rule="evenodd" clip-rule="evenodd" d="M22.3334 24.5386C22.567 23.7242 23.7387 22.9897 24.4721 23.5354C24.9474 23.8883 24.7712 24.5899 24.1485 24.5283C24.0624 24.5201 23.9764 24.5119 23.8985 24.5263C23.4417 24.6083 23.0873 24.9243 23.0914 25.3099C23.0955 25.7346 23.411 25.8844 23.8125 25.8844C23.8043 26.1367 23.9026 26.4813 24.1034 26.4383C23.919 26.2105 23.962 26.1141 24.1321 25.8392C24.3472 25.4864 24.3 24.8361 24.7589 24.8053C25.0355 24.7868 25.2956 25.154 25.3366 25.4494C25.3919 25.8515 25.2588 26.5039 25.0744 26.8465C24.8368 27.2876 24.4209 27.8456 23.9764 28.0856C23.3495 28.4241 22.5485 28.5184 21.85 28.2169C22.0036 28.1512 22.0569 27.9974 22.2167 27.9358C21.3583 28.1492 20.5553 27.8907 20.1743 27.2896C19.8608 26.7932 19.9387 26.3767 20.5389 26.7542C20.7806 26.906 21.1658 26.867 20.9609 26.7049C20.3504 26.2249 19.7195 25.3305 19.5454 24.7971C19.3343 24.155 19.5925 23.56 20.3586 24.5037C20.5614 24.7725 20.752 25.072 20.9855 25.312C21.0633 25.3941 21.2661 25.5725 21.3645 25.5766C21.5325 25.5828 21.3194 25.1971 21.1084 24.7417C20.9261 24.3499 20.7335 23.5867 20.7212 23.0246C20.7089 22.4564 20.9343 22.1466 21.2334 22.0994C21.4689 22.0604 21.7701 22.124 21.893 22.7538C21.9995 23.3446 22.0774 24.1386 22.3334 24.5386Z" fill="white"/>
<path fill-rule="evenodd" clip-rule="evenodd" d="M25.0131 26.9529C24.7693 27.3735 24.3821 27.8658 23.9724 28.0874C23.3455 28.4259 22.5445 28.5203 21.846 28.2187C21.9996 28.153 22.0529 27.9992 22.2127 27.9376C21.3543 28.151 20.5513 27.8925 20.1703 27.2914C19.9449 26.9365 19.9224 26.6227 20.1457 26.6104C20.5964 27.5992 21.5325 27.6566 22.141 27.3981C22.692 28.0341 23.3865 28.3254 25.0131 26.9529Z" fill="#E6E6E6"/>
<path fill-rule="evenodd" clip-rule="evenodd" d="M47.437 20.2305C47.4514 20.5772 47.0724 20.7659 46.8184 20.9526C46.9413 20.7228 47.1502 20.3884 47.437 20.2305Z" fill="#860911"/>
<path fill-rule="evenodd" clip-rule="evenodd" d="M21.9795 28.6169C22.4752 28.7113 23.3295 28.6867 23.8027 28.4631C23.7495 28.5492 23.6716 28.6128 23.6511 28.6477C24.2452 28.4364 24.7369 27.9317 24.8639 27.7061C25.6075 29.4006 22.2724 30.6171 21.9795 28.6169Z" fill="white"/>
<path fill-rule="evenodd" clip-rule="evenodd" d="M21.9795 28.6169C22.3544 28.6887 22.9321 28.6908 23.3971 28.5923C23.2353 28.8549 23.2906 29.4621 23.8908 29.5175C23.098 29.8252 22.1311 29.6509 21.9795 28.6169ZM24.7512 27.864C24.8003 27.8045 24.8393 27.7491 24.8639 27.7061C24.8741 27.7307 24.8843 27.7573 24.8946 27.782C24.8495 27.8066 24.8003 27.8353 24.7512 27.864Z" fill="#E6E6E6"/>
<path fill-rule="evenodd" clip-rule="evenodd" d="M43.0038 26.3357C42.967 26.9183 42.5122 27.2301 42.209 27.6179C42.4179 27.185 42.5736 26.6126 43.0038 26.3357Z" fill="#860911"/>
<path fill-rule="evenodd" clip-rule="evenodd" d="M44.3907 33.091C44.4071 32.5822 44.194 32.1084 43.9195 31.8355C44.5996 31.6509 45.3371 31.5175 46.05 31.4601C46.2057 31.5524 46.3143 31.7924 46.429 31.8868C46.4372 31.259 44.8742 29.5358 44.1223 28.748C43.6839 28.2885 43.8007 28.1347 44.0875 27.552C43.9339 27.6362 43.8396 27.8269 43.7393 27.9213C43.7843 27.4146 44.2125 26.7848 44.8639 26.8504C45.2613 26.8915 46.4802 29.3737 46.8326 30.1492C46.9985 30.5144 47.3754 31.3021 47.3447 31.6283C47.3181 31.9114 47.0374 32.1617 46.6974 32.3217C46.0295 32.6376 45.0893 32.7997 44.3907 33.091Z" fill="#EA3C27"/>
<path fill-rule="evenodd" clip-rule="evenodd" d="M44.3908 33.091C44.3949 32.9556 44.3826 32.8202 44.358 32.693C44.9951 32.4817 45.6343 32.2684 46.2714 32.0571C47.2792 31.9217 46.7016 30.9288 46.3656 30.3851C45.667 29.2568 44.9705 28.1265 44.272 26.9981C44.4379 26.8874 44.6366 26.8279 44.862 26.8504C45.2594 26.8894 46.4783 29.3737 46.8306 30.1492C46.9965 30.5144 47.3735 31.3021 47.3428 31.6283C47.3161 31.9114 47.0355 32.1617 46.6954 32.3217C46.0296 32.6376 45.0893 32.7997 44.3908 33.091Z" fill="#D42C1A"/>
<path fill-rule="evenodd" clip-rule="evenodd" d="M44.3908 33.0912C44.3929 33.0276 44.3908 32.964 44.3867 32.9024C44.9931 32.6911 45.5278 32.5803 46.0993 32.4203C46.7815 32.2275 47.3203 31.8562 47.0109 31.0971C46.4373 29.6878 45.7531 28.2723 44.8395 26.8506C44.8476 26.8506 44.8538 26.8526 44.862 26.8526C45.2594 26.8916 46.4783 29.3759 46.8307 30.1514C46.9966 30.5166 47.3735 31.3043 47.3428 31.6305C47.3162 31.9136 47.0355 32.1639 46.6955 32.3239C46.0297 32.6378 45.0894 32.7998 44.3908 33.0912Z" fill="#EB6455"/>
<path fill-rule="evenodd" clip-rule="evenodd" d="M22.8438 30.0427C23.446 30.2007 24.1077 29.9196 24.5604 29.6612C24.6793 30.5125 24.8288 31.448 24.9148 32.3116C25.1361 32.0839 25.0193 31.5854 25.0214 31.1895C25.6236 30.6479 26.0129 29.9237 26.5352 29.3145C26.6623 29.7227 27.0761 30.0735 26.861 30.5597C26.7647 30.7792 26.5168 31.0849 26.3529 31.2839C25.9658 31.7557 25.513 32.3999 25.1422 32.9066C25.0808 32.9886 25.0951 33.1404 25.0234 33.2492C24.5789 33.9159 23.9705 34.041 23.8271 33.1302C23.7513 32.6501 23.5218 32.1516 23.3559 31.7393C23.1285 31.1833 23.0466 30.5741 22.8438 30.0427Z" fill="#EA3C27"/>
<path fill-rule="evenodd" clip-rule="evenodd" d="M22.8438 30.0426C23.1019 30.1103 23.3682 30.098 23.6263 30.0405L24.0975 32.5946C24.1528 32.89 24.415 33.3516 24.7428 33.0152C24.8677 32.888 24.9947 32.5762 25.091 32.4818C25.2385 32.3341 26.3919 30.6375 26.8589 29.9893C26.9265 30.1636 26.9511 30.3483 26.8589 30.5596C26.7626 30.7791 26.5148 31.0847 26.3509 31.2837C25.9637 31.7556 25.511 32.3997 25.1402 32.9064C25.0787 32.9885 25.0931 33.1403 25.0214 33.249C24.5768 33.9158 23.9684 34.0409 23.825 33.13C23.7492 32.65 23.5198 32.1515 23.3538 31.7392C23.1285 31.1832 23.0466 30.5739 22.8438 30.0426Z" fill="#D42C1A"/>
<path fill-rule="evenodd" clip-rule="evenodd" d="M22.8438 30.0427C22.9134 30.0612 22.9831 30.0735 23.0527 30.0797C23.2555 31.1751 23.95 32.7732 23.9664 32.9702C23.9766 33.1015 23.9111 33.4543 24.2306 33.7702C24.0401 33.7292 23.8865 33.5282 23.823 33.1281C23.7472 32.6481 23.5177 32.1496 23.3518 31.7372C23.1285 31.1833 23.0466 30.5741 22.8438 30.0427Z" fill="#EB6455"/>
<path fill-rule="evenodd" clip-rule="evenodd" d="M30.1901 29.905C30.3213 30.7687 29.7968 31.4744 29.043 31.6365C29.5367 31.1564 30.0324 30.6784 30.1901 29.905Z" fill="#FFAE00"/>
<path fill-rule="evenodd" clip-rule="evenodd" d="M31.8411 30.0857C32.0399 30.7299 31.7981 31.5012 31.415 31.9156C31.6855 31.4068 31.835 30.2498 31.8411 30.0857Z" fill="#FFAE00"/>
<path fill-rule="evenodd" clip-rule="evenodd" d="M43.436 34.3075C43.35 33.4028 43.0407 32.4201 42.5736 31.8478C43.9052 31.2077 44.405 33.8459 43.436 34.3075ZM40.5025 30.3399C40.3386 29.9235 39.9494 30.0691 39.7507 30.3933C39.5253 30.7584 39.5048 31.3616 39.5827 31.7678C39.9125 31.5934 40.6172 31.4641 40.9347 31.6898C40.7012 31.7124 40.4205 31.8006 40.2607 31.8826C39.7732 32.135 39.1893 32.3483 38.8411 32.7401C38.6752 32.9268 38.3945 33.2304 38.3679 33.4725C38.3207 33.8972 38.6956 34.0059 38.6977 34.3649C38.6997 34.6193 38.5563 35.128 38.7079 35.284C38.8882 35.4706 39.216 35.4419 39.2242 35.8768C39.0992 36.2851 39.4495 36.5723 39.8654 36.4471C40.0088 36.4041 40.0907 36.5025 40.1563 36.6236C40.398 37.0605 40.9429 37.0831 41.3424 36.8574C41.834 36.5764 42.4199 35.9117 42.6924 35.4276C42.8317 35.1793 42.8891 34.8737 43.014 34.6049C43.1554 34.3054 42.9444 33.9751 42.8337 33.6428C42.8297 33.7474 42.7805 33.8131 42.7067 33.8582C42.7375 33.3289 42.5244 32.4858 42.2253 32.0816C41.9406 31.696 41.535 31.6713 41.1703 31.4539C40.7811 31.22 40.6725 30.7687 40.5025 30.3399Z" fill="white"/>
<path fill-rule="evenodd" clip-rule="evenodd" d="M43.4359 34.3078C43.3991 33.9139 43.3192 33.5036 43.2024 33.12C43.5547 33.1856 43.7473 33.0031 43.8866 32.7405C44.028 33.36 43.9009 34.0863 43.4359 34.3078ZM40.3569 36.8537C40.6335 37.0588 41.033 37.0342 41.3423 36.8557C41.8339 36.5747 42.4198 35.91 42.6923 35.4259C42.8316 35.1776 42.889 34.872 43.0139 34.6032C43.1389 34.3386 42.9893 34.0493 42.8767 33.758C42.4321 35.3951 41.1518 36.5419 40.3569 36.8537Z" fill="#E6E6E6"/>
<path fill-rule="evenodd" clip-rule="evenodd" d="M37.0218 36.9561C37.1447 37.1981 37.1836 37.5653 37.2512 37.8464C37.577 39.1634 36.817 39.9245 36.3438 40.5913C36.944 39.742 37.1857 38.4618 37.0218 36.9561Z" fill="#FFAE00"/>
<path fill-rule="evenodd" clip-rule="evenodd" d="M50.6673 9.43359C50.8558 9.43154 50.9971 9.62027 51.2061 9.62643C51.0647 9.74131 50.8373 9.78234 50.6939 9.89722C50.8742 9.85004 51.1078 9.87055 51.3249 9.84388C51.4867 9.82337 51.626 9.70849 51.7694 9.69412C52.3983 9.63053 52.8921 10.0183 53.3919 10.1947C51.9763 10.2501 51.5236 9.94851 50.1818 11.0768C48.7888 12.2462 47.7358 14.0514 47.8526 15.7234C47.7543 15.2413 47.6764 14.4864 47.7358 14.0514C46.984 15.5798 47.6252 17.7461 48.0718 18.2139C47.4593 18.1831 46.8201 18.2549 46.2281 18.2549C45.042 18.2529 44.1693 17.9062 43.6387 17.4159C43.1634 16.9748 42.977 16.4537 42.9278 15.3952C42.7558 15.8649 42.6984 16.704 42.9258 17.2353C42.2395 16.8927 41.7315 16.1111 40.8998 16.0188C41.1128 16.2219 41.3812 16.4886 41.543 16.6691C41.291 16.5891 41.0657 16.4168 40.7605 16.3717C40.4409 16.3224 39.8632 16.4086 39.6481 16.2383C39.3838 16.0291 39.222 15.6721 39.1626 15.2228C39.0868 15.5675 39.1093 15.908 39.2179 16.2752C39.0745 16.2814 38.9413 16.2793 38.7959 16.2875C38.0727 14.7592 38.3903 13.5283 38.6422 12.837C38.0236 13.5468 37.9273 15.5634 38.3718 16.2773C37.8535 16.3142 37.4172 16.2691 37.1058 16.0352C36.7699 15.7829 36.4196 15.7254 36.1942 15.5182C36.2454 15.6372 36.3683 15.8075 36.5015 15.8567C35.9791 15.8157 35.4854 15.6557 34.9978 15.4485C34.2358 15.1244 34.371 14.0453 34.584 13.5632C34.2173 13.8237 34.033 14.5397 34.1108 15.2269C33.6417 15.071 33.0312 15.2249 32.5498 15.3234C32.095 15.4157 31.6525 15.3767 31.2695 15.2598C30.4459 15.0095 30.4787 14.6751 30.489 13.8135C30.3599 14.1622 30.2411 14.6402 30.3742 15.1182C30.0936 15.0238 29.7556 15.1039 29.4299 15.1449C28.4527 15.268 28.3236 14.2217 28.3339 13.7212C28.1659 14.1766 28.2642 14.7654 28.4302 15.0074C27.8033 14.7223 27.6558 13.6555 27.7152 12.8308C27.7726 12.0246 27.6271 11.163 27.9569 10.6522C27.9979 10.7794 28.045 10.8676 28.0163 11.0912C28.4527 10.6029 27.9836 10.166 28.719 9.22639C29.0386 8.81815 29.4135 8.4735 29.8928 8.23143C31.1773 7.58316 31.5808 7.59547 32.9042 7.49085C32.7342 7.72677 32.556 8.13911 32.4433 8.49402C32.9985 7.93807 33.6274 7.16056 34.8381 7.16877C34.3771 7.3616 34.2276 7.66932 34.1702 7.96268C34.3567 7.59547 34.8012 7.16877 35.6575 7.32468C36.1266 7.41084 36.5793 7.52572 37.1447 7.45187C36.395 7.74318 35.9095 8.1904 35.6227 8.95354C35.9566 8.52684 36.1307 8.34426 36.5117 8.14116C36.7473 8.01397 37.03 7.94217 37.2636 7.80677C37.5073 7.66317 37.6364 7.4252 37.9601 7.35135C38.5542 7.21595 39.052 7.41699 39.5108 7.54008C39.9328 7.65291 40.3466 7.65291 40.7768 7.76369C40.4143 8.00371 39.9636 8.62326 39.9083 9.35768C40.2975 8.41196 41.1886 7.81908 42.0326 7.61188C43.3683 7.2857 44.243 7.93396 45.2038 8.14116C45.341 8.24989 45.5111 8.31759 45.7016 8.36067C44.2389 8.99868 43.4093 10.1516 43.1552 11.8666C43.6612 10.4183 44.5646 9.50744 45.4803 8.99252C46.099 8.64582 46.4821 8.47145 47.3958 8.38939C48.7007 8.2704 49.4914 8.80174 50.3436 9.30229C49.8663 9.51154 49.4996 9.81516 49.2989 10.2644C49.5775 9.96697 50.192 9.43769 50.6673 9.43359Z" fill="#FEC375"/>
<path fill-rule="evenodd" clip-rule="evenodd" d="M50.6673 9.43359C50.8558 9.43154 50.9972 9.62027 51.2061 9.62643C51.0648 9.74131 50.8374 9.78234 50.694 9.89722C50.8743 9.85004 51.1078 9.87055 51.3249 9.84388C51.4868 9.82337 51.6261 9.70849 51.7695 9.69412C52.3984 9.63053 52.8921 10.0183 53.3919 10.1947C51.9764 10.2501 51.5236 9.94851 50.1818 11.0768C49.7578 11.4338 49.3645 11.8482 49.0264 12.3015C48.3586 10.1352 46.5928 10.9742 45.2919 11.9036C45.5849 11.3435 45.8778 10.7814 46.1728 10.2214C44.8802 10.6522 43.905 11.8441 42.6636 12.9047C41.9589 13.5058 41.8831 12.2482 41.9876 11.0707C42.0429 10.4429 41.6906 9.2346 40.7974 9.49308C39.8796 9.75977 38.419 11.4912 38.0523 10.4511C37.3066 8.33195 34.5144 10.3609 33.4594 10.7158C33.8999 8.59043 32.0439 8.57197 30.4788 9.22434C29.8683 9.47872 29.813 9.88081 29.391 10.3219C29.94 8.5494 29.2947 8.77917 28.2827 10.0942C28.3319 9.85619 28.4384 9.57514 28.7109 9.22639C29.0304 8.81815 29.4053 8.4735 29.8847 8.23143C31.1691 7.58316 31.5727 7.59547 32.8961 7.49085C32.726 7.72677 32.5478 8.13911 32.4351 8.49402C32.9903 7.93807 33.6192 7.16056 34.8299 7.16877C34.369 7.3616 34.2194 7.66932 34.1621 7.96268C34.3485 7.59547 34.793 7.16877 35.6493 7.32468C36.1185 7.41084 36.5712 7.52572 37.1366 7.45187C36.3868 7.74318 35.9013 8.1904 35.6145 8.95354C35.9484 8.52684 36.1226 8.34426 36.5036 8.14116C36.7392 8.01397 37.0219 7.94217 37.2554 7.80677C37.4992 7.66317 37.6283 7.4252 37.9519 7.35135C38.546 7.21595 39.0438 7.41699 39.5027 7.54008C39.9247 7.65291 40.3385 7.65291 40.7687 7.76369C40.4061 8.00371 39.9554 8.62326 39.9001 9.35768C40.2893 8.41196 41.1805 7.81908 42.0245 7.61188C43.3601 7.2857 44.2349 7.93396 45.1956 8.14116C45.3329 8.24989 45.5029 8.31759 45.6934 8.36067C44.2308 8.99868 43.4011 10.1516 43.1471 11.8666C43.6531 10.4183 44.5565 9.50744 45.4722 8.99252C46.0909 8.64582 46.4739 8.47145 47.3876 8.38939C48.6925 8.2704 49.4833 8.80174 50.3355 9.30229C49.8582 9.51154 49.4915 9.81516 49.2907 10.2644C49.5775 9.96697 50.1921 9.43769 50.6673 9.43359Z" fill="#EDA951"/>
<path fill-rule="evenodd" clip-rule="evenodd" d="M50.6674 9.4336C50.8559 9.43155 50.9972 9.62029 51.2062 9.62644C51.0648 9.74132 50.8374 9.78235 50.694 9.89723C50.8743 9.85005 51.1078 9.87056 51.325 9.84389C51.4868 9.82338 51.6261 9.7085 51.7695 9.69414C52.3984 9.63054 52.8921 10.0183 53.392 10.1947C52.5685 10.2275 52.0706 10.1393 51.5339 10.2809C51.4397 10.2521 51.368 10.2316 51.3311 10.2255C51.073 10.1844 50.5752 10.0511 50.2925 9.87467C50.2085 9.82133 50.1061 9.75363 49.9975 9.67978C50.2208 9.53823 50.4584 9.43565 50.6674 9.4336ZM29.8027 8.27247C29.8294 8.25811 29.858 8.24375 29.8867 8.22939C31.1712 7.58112 31.5747 7.59343 32.8981 7.48881C32.8469 7.56061 32.7936 7.64882 32.7424 7.74729C31.5932 7.76371 30.8065 7.9586 29.8027 8.27247ZM33.4922 7.5483C33.8487 7.32264 34.2789 7.16468 34.8299 7.16878C34.5902 7.2693 34.4345 7.4006 34.3321 7.5442C34.0125 7.52163 33.7012 7.53394 33.4922 7.5483ZM34.4858 7.55856C35.2765 7.52573 35.8829 7.60779 36.4319 7.82935C36.6347 7.6796 36.8682 7.55651 37.1346 7.45188C36.5691 7.52573 36.1164 7.41085 35.6473 7.32469C35.1126 7.22827 34.7377 7.35751 34.4858 7.55856ZM37.282 7.78832C37.5074 7.64472 37.6385 7.42111 37.9499 7.35136C38.544 7.21596 39.0418 7.41701 39.5006 7.5401C39.9227 7.65293 40.3365 7.65293 40.7667 7.76371C40.6335 7.85192 40.4901 7.98937 40.359 8.16579C39.3572 8.13707 38.9475 7.38624 37.282 7.78832ZM40.9674 8.07758C41.2993 7.85397 41.666 7.69806 42.0224 7.6119C43.3581 7.28571 44.2328 7.93398 45.1936 8.14118C45.3309 8.2499 45.5009 8.3176 45.6914 8.36068C45.4702 8.4571 45.2633 8.56583 45.0707 8.68687C43.8948 8.16374 42.7128 7.59138 40.9674 8.07758ZM45.7406 8.84688C47.8424 8.4571 48.6229 8.72584 49.85 9.5772C49.9934 9.47053 50.1573 9.38026 50.3335 9.30231C49.4813 8.8038 48.6905 8.27042 47.3856 8.3894C46.6112 8.4612 46.2199 8.5966 45.7406 8.84688Z" fill="#FDDC95"/>
<path fill-rule="evenodd" clip-rule="evenodd" d="M34.7624 30.9554C34.0884 31.5175 33.4903 32.2006 33.3325 33.1751C34.1356 33.2387 34.8812 32.9802 35.4118 32.6273C35.7007 32.4345 36.0592 32.135 36.3173 31.8704C36.9892 31.1831 37.5096 30.4056 37.8107 29.4968C36.1288 29.6589 35.5184 30.8528 34.8546 31.8232C34.8997 31.3288 35.1107 30.9205 35.2725 30.5615C35.1025 30.6908 34.8771 30.7749 34.7624 30.9554Z" fill="black"/>
<path fill-rule="evenodd" clip-rule="evenodd" d="M34.0881 26.7294C33.9201 27.2341 33.4121 27.7921 32.7422 27.9439C31.9945 28.1141 31.3901 27.8926 30.9354 27.6403C30.8882 28.3357 31.4291 28.5039 31.8777 28.6742C32.8733 29.0517 34.0451 28.9717 35.1636 28.5696C36.0854 28.2372 36.911 27.8762 37.5604 27.4043C37.8615 27.1848 38.1873 26.8853 38.4495 26.6145C38.6933 26.3601 38.1053 26.313 37.9005 26.2637C38.597 25.9622 39.3468 26.4155 39.271 27.2053C39.23 26.9469 38.7998 26.393 38.765 26.7561C38.6339 28.1777 38.2262 29.2014 37.7694 30.3072C37.3781 31.2529 36.4214 32.2602 35.5754 32.8407C35.0325 33.2121 34.2315 33.5054 33.367 33.4459C32.9819 33.4193 32.7115 33.2695 32.3755 33.1649C32.2628 33.13 31.8859 32.9967 31.7937 33.1341C31.6728 33.3146 32.0006 33.8439 32.1071 33.9485C32.4144 34.2542 32.9675 34.3793 33.408 34.4635C32.5967 34.5476 31.4885 34.1619 31.4967 33.169C31.5008 32.6417 32.2055 32.7833 32.5332 32.9228C32.8344 31.8786 33.0065 30.7216 32.9143 29.3368C32.2096 29.224 31.4045 29.1071 30.9251 28.6886C30.5379 28.3501 30.3843 27.7654 30.5728 27.2833C30.1405 26.8484 29.4665 25.4801 30.1672 24.9549C30.4539 24.7395 30.9497 24.7908 31.3471 24.6861C30.6199 24.5323 30.1344 23.8943 29.8476 23.1188C29.4583 22.0664 29.5546 20.7206 30.1323 19.937C30.6486 19.2374 31.8367 18.9215 32.5148 19.5923C32.4329 19.2251 32.2731 18.9359 32.0744 18.7205C33.7747 19.9267 34.1168 25.1436 31.3021 25.2626C30.6137 25.2913 30.3495 25.3283 30.5318 26.1386C30.878 27.6628 33.0474 28.1552 34.0881 26.7294Z" fill="#860911"/>
<path fill-rule="evenodd" clip-rule="evenodd" d="M27.3632 28.9714C27.4185 28.9755 27.4472 28.9242 27.4799 28.875C27.5967 28.6945 27.7012 28.916 27.6274 29.0063C27.2402 29.4781 26.9268 29.1684 26.9186 28.6617C26.9084 27.7754 27.398 26.9897 28.1498 26.7928C28.746 26.6369 29.1536 26.8379 29.3523 27.2851C29.5715 27.7836 29.1311 28.5734 28.9549 28.0113C28.9119 27.8718 28.9733 27.6975 29.1331 27.6298C28.5063 27.5703 28.7173 28.5222 28.9344 28.8606C28.7972 28.7745 28.6435 28.4934 28.5309 28.2924C28.4694 28.9386 29.1925 29.193 29.1188 30.0033C29.0963 30.2495 28.9365 30.471 28.5985 30.4321C28.031 30.4013 28.3055 28.4463 27.5332 28.6022C27.3795 28.637 27.2833 28.8483 27.3632 28.9714Z" fill="#FACD78"/>
<path fill-rule="evenodd" clip-rule="evenodd" d="M35.8442 30.2086C35.752 30.5061 35.6271 30.8487 35.6414 31.2426C36.0675 30.4138 36.4301 29.4147 37.7351 29.1213C37.5876 29.866 37.2557 30.5286 36.7948 31.1359C36.6186 31.3698 36.3666 31.6405 36.1577 31.8211C35.7746 32.1514 35.2153 32.4283 34.5762 32.4591C34.611 31.4682 35.2071 30.6292 35.8442 30.2086Z" fill="#B51E1B"/>
<path fill-rule="evenodd" clip-rule="evenodd" d="M35.6493 30.4878C35.422 30.6827 35.2253 30.9206 35.0717 31.175C34.8586 31.5299 34.7213 31.9279 34.6865 32.3423C34.8811 32.3238 35.0737 32.2807 35.2601 32.2151C35.2314 31.4068 35.4035 30.8406 35.6493 30.4878Z" fill="#E24745"/>
<path fill-rule="evenodd" clip-rule="evenodd" d="M34.3896 35.1427C34.5432 35.1058 34.8935 35.1304 35.0615 35.1879C35.6597 35.3951 36.0018 35.9408 36.2189 36.6588C36.3193 36.9911 36.4812 37.2906 36.4935 37.8056C36.5098 38.4784 36.2886 39.3134 35.8707 39.5391C35.8051 39.5739 35.7232 39.5719 35.6638 39.5903C35.4364 39.6642 35.25 39.857 34.9324 39.9022C34.6661 39.9411 34.3117 39.8365 34.1376 39.7073C33.5722 39.2908 32.976 38.4169 32.8101 37.5348C32.7118 37.0198 32.8531 36.5931 32.9924 36.2587C33.2198 35.7089 33.7217 35.3027 34.3896 35.1427Z" fill="#EA3C27"/>
<path fill-rule="evenodd" clip-rule="evenodd" d="M43.7862 18.8623C44.9662 18.7392 45.7631 19.9393 45.2632 21.0184C44.8453 21.923 43.78 22.8134 43.1634 23.0862C42.6369 23.3181 41.9609 23.4124 41.4713 23.1334C41.0432 22.8893 40.8014 22.3374 40.7707 21.681C40.7482 21.1784 41.0555 20.5198 41.289 20.1608C41.8032 19.3731 42.4894 18.9977 43.7862 18.8623Z" fill="#EA3C27"/>
<path fill-rule="evenodd" clip-rule="evenodd" d="M36.9131 33.009C37.333 32.6951 37.8022 32.3669 37.9169 31.8232C37.6137 32.2397 37.1405 32.5638 36.9131 33.009Z" fill="#860911"/>
<path fill-rule="evenodd" clip-rule="evenodd" d="M43.8354 24.0174C44.2882 23.6235 44.7409 23.2296 45.0277 22.6921C44.4726 22.9896 44.0813 23.484 43.8354 24.0174Z" fill="#FFAE00"/>
<path fill-rule="evenodd" clip-rule="evenodd" d="M33.2998 29.3183C33.3408 29.5686 33.3367 29.8538 33.3736 30.1738C35.0534 30.0322 38.2635 28.586 38.5052 26.8381C37.6653 28.2454 34.6109 29.265 33.2998 29.3183Z" fill="white"/>
<path fill-rule="evenodd" clip-rule="evenodd" d="M36.1063 29.3082C37.3088 28.6948 38.3699 27.8127 38.5052 26.8362C38.0811 27.5481 37.0916 28.1594 36.0469 28.5984C36.1985 28.8241 36.1862 29.0641 36.1063 29.3082Z" fill="#CCCCCC"/>
<path fill-rule="evenodd" clip-rule="evenodd" d="M29.3604 17.8017C29.176 17.4139 29.1412 16.659 28.8154 16.3369C29.2047 16.4354 29.7373 17.3011 29.3604 17.8017Z" fill="#FFAE00"/>
<path fill-rule="evenodd" clip-rule="evenodd" d="M32.8365 18.3966C31.7057 17.4878 30.155 18.0929 29.4277 19.17C30.0136 17.4673 31.8471 16.8641 32.8365 18.3966Z" fill="#860911"/>
<path fill-rule="evenodd" clip-rule="evenodd" d="M39.677 19.1311C39.1096 17.7771 36.7496 17.8797 35.709 18.8049C36.7476 17.1145 39.2304 17.1166 39.677 19.1311Z" fill="#860911"/>
<path fill-rule="evenodd" clip-rule="evenodd" d="M35.1126 18.4456C34.8503 18.7615 34.3976 19.3338 34.1743 19.8754C34.2091 19.141 34.5902 18.6035 35.1126 18.4456Z" fill="#FFAE00"/>
<path fill-rule="evenodd" clip-rule="evenodd" d="M39.736 21.9762C39.7462 21.9762 39.7585 21.9741 39.7688 21.9741C39.9511 22.967 39.8159 23.9107 39.2505 24.4359C39.5025 23.7835 39.7585 22.8665 39.736 21.9762Z" fill="#FFAE00"/>
<path fill-rule="evenodd" clip-rule="evenodd" d="M40.8037 23.4309C41.1581 23.8063 41.6231 24.0484 42.2295 24.1182C41.4654 24.3377 40.9758 24.0115 40.8037 23.4309Z" fill="#FFAE00"/>
<path fill-rule="evenodd" clip-rule="evenodd" d="M35.389 20.2037C34.8175 21.291 34.6351 22.5855 34.8789 23.7897C35.2579 25.6668 37.2799 25.5683 38.2181 24.159C39.1195 22.803 39.2035 20.4663 38.3226 19.3114C37.4622 18.183 35.9401 19.1554 35.389 20.2037Z" fill="#860911"/>
<path fill-rule="evenodd" clip-rule="evenodd" d="M27.7666 23.6893C28.0022 23.8247 28.3033 23.5539 28.4447 23.4062C28.7233 23.1129 28.9466 22.5856 28.9998 22.1897C28.7253 22.8072 28.2767 23.2749 27.7666 23.6893Z" fill="#FFAE00"/>
<path fill-rule="evenodd" clip-rule="evenodd" d="M30.0057 21.096C29.7434 22.6244 30.3457 24.6697 31.8945 24.3045C30.8189 23.5434 31.0566 20.2242 32.8921 20.9627C32.677 19.7421 31.8391 19.4631 31.2348 19.5656C30.6776 19.6579 30.1695 20.1441 30.0057 21.096Z" fill="white"/>
<path fill-rule="evenodd" clip-rule="evenodd" d="M29.9829 22.3743C30.1325 23.5436 30.7593 24.5714 31.8942 24.3027C31.7139 24.1734 31.5685 23.9724 31.464 23.7303C30.7061 23.8431 30.2431 23.0779 29.9829 22.3743Z" fill="#E6E6E6"/>
<path fill-rule="evenodd" clip-rule="evenodd" d="M38.55 20.8313C38.3165 20.618 38.0481 20.3431 37.5749 20.5113C36.7514 20.8047 36.0979 22.0458 36.3314 23.1987C36.4461 23.767 36.7923 24.3886 37.3311 24.5076C37.0095 24.8009 36.5547 24.9363 36.0528 24.8379C35.2457 24.6819 35.0838 23.4429 35.133 22.3905C35.1596 21.8325 35.2907 21.3298 35.4751 20.8785C36.2986 18.8681 38.3329 18.1665 38.55 20.8313Z" fill="white"/>
<path fill-rule="evenodd" clip-rule="evenodd" d="M37.2002 24.6123C36.8909 24.8318 36.4894 24.922 36.053 24.8379C35.4589 24.723 35.2131 24.0214 35.1455 23.2378C35.3995 24.3517 36.2517 24.7436 37.2002 24.6123Z" fill="#E6E6E6"/>
<path fill-rule="evenodd" clip-rule="evenodd" d="M37.8432 21.7689C38.2078 21.6664 38.3553 22.0254 38.3983 22.4254C38.4618 23.006 37.8923 23.8614 37.4212 23.324C37.0319 22.8767 37.4294 21.8859 37.8432 21.7689Z" fill="#860911"/>
<path fill-rule="evenodd" clip-rule="evenodd" d="M41.4141 21.6376C41.7808 21.8284 41.7869 20.7842 41.3588 21.1084C41.2932 21.2499 41.2666 21.5617 41.4141 21.6376ZM43.3049 22.5587C44.0792 22.171 45.2531 21.2109 44.956 20.058C44.827 21.2561 44.1591 21.7751 43.3049 22.5587ZM43.8539 20.8786C43.645 20.6816 43.9522 20.3349 44.1469 20.5237C44.1284 20.7001 44.1182 20.9812 43.8539 20.8786ZM43.9891 19.6744C44.2185 19.6436 44.1694 19.1718 43.901 19.2949C43.7269 19.3749 43.7986 19.699 43.9891 19.6744ZM42.9792 20.1339C43.1943 20.1421 43.2291 19.6908 43.0017 19.7462C42.8501 19.7811 42.7866 20.1257 42.9792 20.1339ZM42.0266 20.0313C41.7931 19.9924 41.7521 20.3452 41.9774 20.3657C42.0614 20.3083 42.1475 20.1113 42.0266 20.0313ZM42.8419 21.4058C43.1062 21.4263 43.1308 21.1001 43.0222 20.8909C42.6903 20.6816 42.5654 21.3833 42.8419 21.4058Z" fill="#B32A1B"/>
<path fill-rule="evenodd" clip-rule="evenodd" d="M32.0788 35.5959C32.0788 35.8237 31.9866 36.0596 31.8146 36.1745C31.8105 35.9509 31.8207 35.5959 32.0788 35.5959Z" fill="#FFAE00"/>
<path fill-rule="evenodd" clip-rule="evenodd" d="M32.6954 35.7847C32.4476 36.2401 32.2693 36.9376 32.2263 37.6412C31.9743 36.952 32.1649 36.078 32.6954 35.7847Z" fill="#FFAE00"/>
<path fill-rule="evenodd" clip-rule="evenodd" d="M34.3851 35.7682C34.551 35.6984 34.5797 36.0123 34.4035 35.9938C34.295 35.9815 34.2929 35.8051 34.3851 35.7682Z" fill="#B32A1B"/>
<path fill-rule="evenodd" clip-rule="evenodd" d="M33.9549 36.4964C34.3257 36.3733 34.3626 37.0257 34.0922 37.0646C33.8381 37.0995 33.7111 36.5764 33.9549 36.4964Z" fill="#B32A1B"/>
<path fill-rule="evenodd" clip-rule="evenodd" d="M33.5185 37.3952C33.75 37.3173 33.7889 37.785 33.5861 37.8096C33.3935 37.8342 33.3485 37.4527 33.5185 37.3952Z" fill="#B32A1B"/>
<path fill-rule="evenodd" clip-rule="evenodd" d="M34.715 37.4545C34.9854 37.4298 35.1002 37.7519 34.9608 37.9899C34.6761 38.4761 34.0901 37.5119 34.715 37.4545Z" fill="#B32A1B"/>
<path fill-rule="evenodd" clip-rule="evenodd" d="M35.6203 38.4474C35.5834 38.472 35.5588 38.4494 35.5301 38.433C35.4912 38.2997 35.6838 38.3448 35.6203 38.4474Z" fill="#B32A1B"/>
<path fill-rule="evenodd" clip-rule="evenodd" d="M33.6849 38.5848C33.7566 38.5541 33.9082 38.6566 33.8816 38.7961C33.8263 39.0834 33.4309 38.6936 33.6849 38.5848Z" fill="#B32A1B"/>
<path fill-rule="evenodd" clip-rule="evenodd" d="M35.2008 38.8678C35.3093 38.8925 35.3565 39.1551 35.2397 39.2043C35.1926 39.1899 35.1475 39.1756 35.0819 39.1838C34.957 39.1079 34.9324 38.8063 35.2008 38.8678Z" fill="#B32A1B"/>
<path fill-rule="evenodd" clip-rule="evenodd" d="M34.4116 39.1613C34.5817 39.0957 34.6042 39.3603 34.4751 39.3829C34.3625 39.4034 34.2703 39.2147 34.4116 39.1613Z" fill="#B32A1B"/>
<path fill-rule="evenodd" clip-rule="evenodd" d="M36.0817 38.624C36.3521 37.7173 35.9486 36.7818 35.6597 36.1048C35.5266 35.793 35.2316 35.6022 34.998 35.5017C35.5307 36.033 36.1657 37.9327 36.0817 38.624Z" fill="#B32A1B"/>
<path fill-rule="evenodd" clip-rule="evenodd" d="M29.7271 33.5669C30.0528 34.0613 30.5178 34.3834 30.485 35.3086C30.1142 34.8716 29.9647 34.168 29.7271 33.5669Z" fill="#FFAE00"/>
<path fill-rule="evenodd" clip-rule="evenodd" d="M26.228 21.6971C26.14 20.6919 26.1973 19.9759 26.3817 19.1286C26.5148 18.5132 26.6849 18.0721 27.0147 17.6331C27.2871 17.27 28.0369 16.8084 28.4794 17.1141C29.6246 17.906 28.8195 21.7278 27.7194 22.6961C27.4572 22.928 26.8385 23.0203 26.6255 22.7987C26.4042 22.6797 26.2444 21.8817 26.228 21.6971Z" fill="#EA3C27"/>
<path fill-rule="evenodd" clip-rule="evenodd" d="M27.5083 17.9553C27.5861 17.705 27.8873 17.6352 27.9057 17.9922C27.9057 18.0107 27.9057 18.0291 27.9057 18.0455C27.8586 18.5748 27.4222 18.2302 27.5083 17.9553Z" fill="#B32A1B"/>
<path fill-rule="evenodd" clip-rule="evenodd" d="M27.0903 18.6488C27.1436 18.5483 27.2399 18.4888 27.289 18.6119C27.3464 18.7596 26.906 18.9955 27.0903 18.6488Z" fill="#B32A1B"/>
<path fill-rule="evenodd" clip-rule="evenodd" d="M27.58 19.1062C27.6845 18.8806 27.7828 19.0242 27.7726 19.1698C27.75 19.4837 27.4735 19.338 27.58 19.1062Z" fill="#B32A1B"/>
<path fill-rule="evenodd" clip-rule="evenodd" d="M26.9611 19.8857C26.9078 20.3145 26.7459 20.0642 26.7664 19.7975C26.7931 19.4446 26.9897 19.6477 26.9611 19.8857Z" fill="#B32A1B"/>
<path fill-rule="evenodd" clip-rule="evenodd" d="M27.3671 19.9329C27.6498 19.7504 27.6765 20.3453 27.4941 20.376C27.3343 20.4048 27.2831 20.0478 27.3671 19.9329Z" fill="#B32A1B"/>
<path fill-rule="evenodd" clip-rule="evenodd" d="M26.8874 20.7392C26.9222 21.1618 26.6416 21.1413 26.6723 20.7248C26.701 20.3412 26.8607 20.4109 26.8874 20.7392Z" fill="#B32A1B"/>
<path fill-rule="evenodd" clip-rule="evenodd" d="M27.3954 21.1229C27.4548 21.5517 27.1639 21.4142 27.1782 21.1598C27.1926 20.926 27.3483 20.7762 27.3954 21.1229Z" fill="#B32A1B"/>
<path fill-rule="evenodd" clip-rule="evenodd" d="M26.8548 21.9966C26.8793 21.7833 27.0719 21.6848 27.1252 21.9043C27.2091 22.2531 26.8056 22.4233 26.8548 21.9966Z" fill="#B32A1B"/>
<path fill-rule="evenodd" clip-rule="evenodd" d="M28.2436 17.3604C28.557 17.504 28.6041 18.183 28.6 18.7041C28.5898 20.1237 28.3173 21.5228 27.5635 22.288C28.0183 21.1945 28.4157 19.5841 28.389 18.0291C28.3829 17.785 28.3358 17.5224 28.2436 17.3604Z" fill="#B32A1B"/>
<path fill-rule="evenodd" clip-rule="evenodd" d="M45.7567 14.0801C45.8038 13.4318 46.1029 12.3179 46.1254 12.2317C45.8857 12.4574 45.519 13.2759 45.7567 14.0801Z" fill="#860911"/>
<path fill-rule="evenodd" clip-rule="evenodd" d="M40.4287 12.6626C40.8405 10.6522 41.8217 9.59365 42.508 8.88794C41.0576 9.06026 40.5352 11.0297 40.4287 12.6626Z" fill="#860911"/>
<path fill-rule="evenodd" clip-rule="evenodd" d="M29.7698 12.5659C29.8517 11.3637 30.5154 9.97078 31.0685 9.45996C29.7534 9.95231 29.5424 11.8048 29.7698 12.5659Z" fill="#860911"/>
<path fill-rule="evenodd" clip-rule="evenodd" d="M33.8284 8.92065C32.7057 9.37403 32.1895 10.9803 32.294 12.1497C32.5336 10.8654 33.3121 9.50737 33.8284 8.92065Z" fill="#860911"/>
<path fill-rule="evenodd" clip-rule="evenodd" d="M36.6673 22.5526C36.5382 23.2419 36.7103 23.8471 37.1037 23.9784C37.5011 24.1117 37.9948 23.7178 38.2878 23.0716C38.468 22.6757 38.0112 22.5505 37.8145 22.8665C37.6896 23.0655 37.583 23.4183 37.3065 23.3465C36.9971 23.2686 37.1672 22.9075 37.1713 22.688C37.1815 22.2449 36.7513 22.1013 36.6673 22.5526Z" fill="#0180C5"/>
<path fill-rule="evenodd" clip-rule="evenodd" d="M37.5993 23.7999C37.3576 23.9579 37.0892 23.9558 36.9089 23.7199C36.7676 23.5332 36.7 23.2624 36.7225 22.9834C36.784 23.3239 37.0401 23.9743 37.5993 23.7999Z" fill="#00CCFF"/>
<path fill-rule="evenodd" clip-rule="evenodd" d="M38.2693 22.1587C38.0911 22.0992 37.9006 22.1977 37.8432 22.3782C37.7859 22.5587 37.8821 22.7536 38.0604 22.8131C38.2386 22.8726 38.4291 22.7742 38.4865 22.5936C38.5459 22.4131 38.4475 22.2182 38.2693 22.1587Z" fill="white"/>
<path fill-rule="evenodd" clip-rule="evenodd" d="M31.4761 22.6655C31.4864 23.3651 31.7568 23.9292 32.1419 23.9928C32.5312 24.0564 32.9102 23.5866 33.0577 22.9014C33.1478 22.4809 32.7073 22.4357 32.5844 22.7783C32.5066 22.9958 32.4759 23.3589 32.2075 23.3363C31.9084 23.3117 31.9985 22.9281 31.9617 22.7127C31.89 22.2757 31.47 22.208 31.4761 22.6655Z" fill="#0180C5"/>
<path fill-rule="evenodd" clip-rule="evenodd" d="M32.5621 23.7319C32.3695 23.9268 32.1237 23.972 31.9147 23.7709C31.7508 23.613 31.6382 23.3565 31.6074 23.0796C31.7262 23.4037 32.0827 23.9986 32.5621 23.7319Z" fill="#00CCFF"/>
<path fill-rule="evenodd" clip-rule="evenodd" d="M32.8715 22.0089C32.6974 21.9802 32.5417 22.1094 32.5233 22.2961C32.5049 22.4828 32.6298 22.6592 32.8039 22.6859C32.9781 22.7146 33.1337 22.5853 33.1522 22.3987C33.1706 22.212 33.0457 22.0355 32.8715 22.0089Z" fill="white"/>
<path fill-rule="evenodd" clip-rule="evenodd" d="M31.5171 13.1385C31.5171 13.1385 31.5396 14.2484 32.1624 14.2627C32.3447 14.2668 32.8343 13.635 33.074 13.5262C34.129 13.0462 35.1369 12.519 35.309 13.2944C35.4811 14.0719 35.8969 13.1488 36.4685 13.8729C37.04 14.5992 36.9478 15.151 37.1343 14.6689C37.2981 14.2443 36.9376 13.5734 37.3186 12.9252C37.9189 11.9076 39.0763 11.0235 37.2285 11.8399C35.6839 12.5231 36.0936 11.3784 35.4811 11.3599C34.8685 11.3414 34.0245 11.8194 33.6292 12.2482C33.2338 12.6769 32.7196 13.2698 32.4369 13.319C32.1562 13.3703 31.5355 13.3539 31.5171 13.1385Z" fill="#FFCF91"/>
<path fill-rule="evenodd" clip-rule="evenodd" d="M39.1689 13.0256C39.1689 13.0256 39.2509 14.2975 39.5459 14.4493C39.8409 14.5991 40.0396 14.3631 40.4063 14.5129C40.773 14.6627 41.3261 14.7057 41.6456 14.9273C41.9652 15.1489 42.2029 15.4997 42.3647 15.0155C42.5245 14.5314 43.938 13.081 43.2824 13.5467C42.6269 14.0123 41.5453 14.199 41.3302 13.7169C41.1151 13.2348 40.9942 12.8717 40.7607 13.2266C40.5292 13.5815 40.3551 13.9959 40.1051 13.5385C39.8532 13.081 39.5295 12.2932 39.5295 12.2932L39.1689 13.0256Z" fill="#FFCF91"/>
<path fill-rule="evenodd" clip-rule="evenodd" d="M35.2152 32.607C34.4368 32.7034 33.6337 32.7424 32.9352 32.3977C32.8655 32.5987 32.8163 32.808 32.7549 33.007C33.8591 33.3475 34.7645 33.0296 35.2152 32.607Z" fill="white"/>
<path fill-rule="evenodd" clip-rule="evenodd" d="M35.2149 32.6072C34.8134 32.6564 34.4057 32.6913 34.0083 32.6667C34.0861 32.8205 34.0718 32.9764 34.0165 33.1303C34.5368 33.0626 34.9527 32.8534 35.2149 32.6072Z" fill="#CCCCCC"/>
<path fill-rule="evenodd" clip-rule="evenodd" d="M24.0874 51.9462C24.0628 51.9216 24.0382 51.8949 24.0157 51.8682C23.7412 51.5523 23.5896 51.1625 23.5261 50.7522C23.4708 50.3891 23.4749 50.0178 23.5097 49.6527C23.5261 49.4885 23.5486 49.3265 23.5732 49.1644C23.397 49.3183 23.2127 49.4639 23.0221 49.6034C22.2437 50.1717 21.3669 50.5348 20.4164 50.701C20.0435 50.7666 19.5928 50.7953 19.1708 50.7994C19.0541 51.5851 19.0438 52.3688 19.1729 53.1627C19.1995 53.3207 19.2528 53.4725 19.2753 53.6346C19.3122 53.9013 19.2753 54.1474 19.1606 54.3936C18.9762 54.7834 18.628 55.0296 18.2162 55.1239C17.743 55.2327 17.2698 55.3393 16.7966 55.4501C15.9341 55.6512 14.9877 55.6265 14.3485 54.9229C14.2236 54.7854 14.1232 54.6336 14.0433 54.4736C14.029 54.4593 14.0146 54.4449 14.0023 54.4285C13.439 53.8048 13.3755 52.9186 13.4554 52.1206C13.4902 51.7739 13.5414 51.4272 13.5967 51.0825C13.6868 50.5348 13.7934 49.9891 13.9081 49.4475C14.0515 48.7685 14.1949 48.0915 14.3547 47.4165C14.5309 46.6678 14.7091 45.9169 14.9037 45.1722C15.1126 44.3681 15.3277 43.5659 15.549 42.7659C15.6268 42.4848 15.7026 42.2058 15.7825 41.9247C15.5613 41.7463 15.3933 41.5268 15.2724 41.2826C14.9406 40.9421 14.7603 40.4949 14.7009 40.0066C14.6476 39.5738 14.7214 39.1553 14.9303 38.7716C15.3523 37.9962 16.2271 37.5325 17.026 37.2392C18.0114 36.8761 19.0664 36.6381 20.0988 36.4658C20.8916 36.3324 21.6967 36.2401 22.4998 36.2196C24.0628 36.1827 25.2366 36.554 25.9475 37.4484C26.1237 36.8781 26.433 36.3694 26.9042 35.9755C27.486 35.4872 28.1989 35.2616 28.9548 35.2944C29.6615 35.3252 30.3376 35.5795 30.735 36.197C30.778 36.2647 30.8169 36.3345 30.8517 36.4042C30.9357 36.4904 31.0115 36.5848 31.0812 36.6914C31.4171 37.2105 31.4766 37.8136 31.3762 38.4126C31.3454 38.5911 31.3045 38.7655 31.2492 38.9316C31.3721 38.9111 31.495 38.8988 31.62 38.8927C33.4227 38.8024 35.2254 38.7183 37.0282 38.6403C37.3416 38.626 37.6427 38.7121 37.8988 38.8968C37.9684 38.9481 38.0319 39.0035 38.0873 39.065C38.2245 38.9501 38.3761 38.8537 38.5379 38.7757C38.8637 38.6157 39.2242 38.548 39.5848 38.5337C41.3854 38.4639 43.1861 38.4044 44.9868 38.349C45.2736 38.3408 45.5625 38.4208 45.8021 38.5767C45.9927 38.6998 46.1361 38.8681 46.2323 39.0568C46.2487 39.0445 46.2651 39.0322 46.2815 39.0199C46.7342 38.6855 47.2484 38.4557 47.7851 38.2936C48.3956 38.109 49.0409 38.029 49.678 38.0208C50.8437 38.0064 52.1015 38.2095 52.9864 39.0342C53.2446 39.2742 53.4535 39.5409 53.6194 39.8281C54.232 40.5544 54.4798 41.4673 54.4737 42.4335C54.4716 42.6797 54.4491 42.9259 54.4245 43.172C54.3918 43.5003 54.361 43.8285 54.3201 44.1547C54.2832 44.4583 54.2484 44.764 54.2176 45.0697C54.4512 45.2153 54.6294 45.4287 54.7277 45.6831C54.994 45.9149 55.1579 46.2534 55.1579 46.639C55.1579 46.9816 55.1067 47.3222 55.0166 47.6525C54.9141 48.0361 54.74 48.391 54.5044 48.709C54.2361 49.068 53.8878 49.3429 53.4883 49.5439C53.0397 49.7696 52.5419 49.8557 52.0441 49.8681C51.3394 49.8865 50.6224 49.7491 50.0775 49.2731C50.0672 49.2629 50.055 49.2526 50.0447 49.2444C49.9914 49.2854 49.9361 49.3265 49.8808 49.3654C49.2191 49.8373 48.4345 50.0486 47.6315 50.106C47.23 50.1347 46.8244 50.1204 46.427 50.0547C45.9783 49.9809 45.5584 49.8147 45.1896 49.5501C45.1855 49.546 45.1794 49.5439 45.1753 49.5398C45.1671 49.5501 45.1609 49.5603 45.1527 49.5726C44.7348 50.145 44.0547 50.3604 43.3807 50.4384C41.3158 50.6743 39.2549 50.941 37.1961 51.2302C36.8848 51.2733 36.5816 51.2097 36.3337 51.0579C35.9568 51.3451 35.4856 51.4969 35.0083 51.5728C32.9269 51.9011 30.8497 52.2519 28.7765 52.6191C28.5471 52.6601 28.3156 52.6417 28.1067 52.5678C27.8977 52.7278 27.6457 52.8222 27.3794 52.8714C27.1807 52.9083 26.982 52.9453 26.7833 52.9842C26.3592 53.0663 25.9065 53.1032 25.4804 53.0109C25.0461 52.9166 24.6528 52.7093 24.3578 52.3709C24.2513 52.2355 24.1611 52.096 24.0874 51.9462ZM30.0385 44.1362C29.9647 44.4706 29.893 44.8071 29.8213 45.1435C29.9422 44.9897 30.063 44.8337 30.1839 44.6799C30.3007 44.5301 30.4154 44.3804 30.5301 44.2306C30.358 44.2306 30.1901 44.1978 30.0385 44.1362ZM37.7718 43.2931C37.6366 43.4654 37.4911 43.6275 37.3518 43.7957C36.9933 44.2224 36.6512 44.6635 36.3071 45.1025C35.9772 45.523 35.6515 45.9436 35.3278 46.3682C35.4016 46.358 35.4753 46.3498 35.5511 46.3395C35.8195 46.3067 36.092 46.3457 36.3357 46.4626C36.5549 46.1672 36.7844 45.88 37.0179 45.5969C37.5034 45.0081 37.9807 44.4132 38.4621 43.8203C38.5154 43.7567 38.5666 43.6911 38.6178 43.6254C38.2942 43.6172 37.9951 43.5003 37.7718 43.2931Z" fill="#860911"/>
<path fill-rule="evenodd" clip-rule="evenodd" d="M27.6582 51.3268C27.6356 51.376 27.607 51.4252 27.5742 51.4704C27.4205 51.6755 27.1829 51.7719 26.9391 51.8171C26.7384 51.854 26.5376 51.8909 26.3368 51.9299C25.9906 51.9955 25.6035 52.0345 25.2573 51.9586C24.9418 51.8909 24.6529 51.7453 24.4399 51.4991C24.235 51.2632 24.1285 50.9698 24.0814 50.6641C24.0322 50.3503 24.0384 50.022 24.0691 49.7061C24.0978 49.4025 24.1551 49.0927 24.2022 48.7911C24.2883 48.2516 24.401 47.71 24.5136 47.1766C24.6263 46.6433 24.739 46.1119 24.8578 45.5806C24.6365 46.0299 24.3846 46.4627 24.0978 46.873C23.6143 47.5644 23.0325 48.1593 22.3524 48.6558C21.6415 49.1727 20.8467 49.503 19.9801 49.6548C19.6319 49.7164 18.9169 49.7594 18.3618 49.7389C18.1631 50.74 18.116 51.7371 18.2798 52.7587C18.3311 53.0808 18.4785 53.3126 18.3147 53.6593C18.204 53.8911 17.9951 54.0285 17.7513 54.0839C17.276 54.1927 16.8028 54.2993 16.3276 54.4101C15.6782 54.5619 14.9099 54.5907 14.4224 54.0511C13.9779 53.5588 13.9553 52.7997 14.0168 52.174C14.0496 51.8396 14.0987 51.5032 14.154 51.1729C14.2421 50.6334 14.3486 50.0959 14.4613 49.5604C14.6027 48.8855 14.7461 48.2126 14.9038 47.5439C15.0779 46.7992 15.2562 46.0545 15.4487 45.3119C15.6577 44.5097 15.8728 43.7117 16.092 42.9116C16.2374 42.3783 16.387 41.8449 16.5365 41.3115C16.3112 41.2746 16.094 41.2007 15.8994 41.0715C15.504 40.8089 15.3176 40.3945 15.2603 39.9349C15.1128 38.7492 16.2784 38.1091 17.2228 37.7624C18.161 37.4178 19.2099 37.1798 20.1952 37.0157C20.9594 36.8885 21.744 36.7962 22.5183 36.7777C24.7984 36.7223 26.0808 37.5532 26.1689 39.9575C26.173 40.0498 26.173 40.1442 26.173 40.2365C26.2201 40.1216 26.2774 40.017 26.3532 39.937C26.5048 39.779 26.7056 39.7175 26.9125 39.697C26.4393 39.3667 26.2549 38.7697 26.3881 38.0107C26.4987 37.3829 26.7711 36.8167 27.2648 36.4023C27.7401 36.0043 28.3117 35.8238 28.9324 35.8505C29.4527 35.873 29.971 36.0392 30.268 36.4967C30.5262 36.8947 30.5569 37.3624 30.4811 37.8219C30.3828 38.4128 30.1308 38.9297 29.6985 39.3462C29.4404 39.5924 29.1454 39.7606 28.8238 39.8631C29.0287 39.976 29.1987 40.136 29.3216 40.3432C29.4752 40.6017 29.5408 40.8909 29.5449 41.1884C29.549 41.4777 29.5203 41.769 29.4691 42.0541C29.4138 42.3618 29.338 42.6737 29.2683 42.9814C29.1475 43.5271 29.0287 44.0748 28.9139 44.6205C28.7316 45.478 28.5472 46.3335 28.3793 47.1951C28.3096 47.5459 28.2441 47.8988 28.1826 48.2516C28.4612 47.8229 28.7767 47.4085 29.0901 47.0064C29.6043 46.3458 30.1144 45.6832 30.6306 45.0246C31.1407 44.3723 31.6324 43.7035 32.1118 43.0265C31.4972 43.0737 30.8806 43.1229 30.266 43.1742C29.9075 43.2029 29.5715 43.0101 29.5203 42.6326C29.5039 42.5034 29.5162 42.368 29.5429 42.2408C29.6064 41.9331 29.674 41.6274 29.7457 41.3197C29.7907 41.1248 29.8419 40.934 29.9116 40.7453C29.9894 40.5299 30.0919 40.3288 30.2312 40.1463C30.3869 39.9411 30.5856 39.779 30.813 39.658C31.0711 39.5206 31.3661 39.4631 31.6549 39.4488C33.4556 39.3585 35.2583 39.2744 37.059 39.1964C37.2475 39.1882 37.4237 39.2374 37.5794 39.3482C37.8231 39.5247 37.9112 39.8242 37.8518 40.1114C37.7863 40.4355 37.7146 40.7596 37.6531 41.0858C37.5712 41.5207 37.3663 41.9249 37.1164 42.2839C36.9648 42.5034 36.7558 42.7352 36.5838 42.9383C36.2212 43.3691 35.8729 43.8163 35.5267 44.2594C35.0473 44.8687 34.5741 45.4842 34.1091 46.1037C33.8387 46.4627 33.5744 46.8279 33.3122 47.1931C34.0825 47.0884 34.8527 46.9879 35.625 46.8915C35.8053 46.8689 35.9876 46.8997 36.1474 46.9879C36.2847 47.0638 36.3789 47.1766 36.4342 47.3079C36.4588 47.269 36.4834 47.23 36.508 47.191C36.7948 46.7602 37.1246 46.3478 37.4544 45.9499C37.9399 45.359 38.4193 44.7621 38.9007 44.1692C39.3534 43.6091 39.7898 43.0347 40.2159 42.4521C39.5993 42.489 38.9847 42.528 38.3681 42.567C38.0382 42.5875 37.7248 42.4295 37.6429 42.0869C37.6101 41.9536 37.6121 41.8141 37.6347 41.6787C37.6797 41.3997 37.7351 41.1228 37.7842 40.8438C37.817 40.6653 37.86 40.4888 37.9153 40.3165C37.9809 40.1052 38.0813 39.9124 38.2144 39.736C38.3681 39.5349 38.5647 39.3831 38.7901 39.2723C39.0441 39.1472 39.3329 39.098 39.6136 39.0877C41.4122 39.0179 43.2129 38.9585 45.0116 38.9031C45.1857 38.8969 45.3578 38.9461 45.5032 39.0405C45.749 39.2005 45.8515 39.4775 45.8146 39.7647C45.7818 40.017 45.7409 40.2673 45.706 40.5176C45.7142 40.5012 45.7245 40.4827 45.7327 40.4663C45.9519 40.0683 46.2591 39.7339 46.6217 39.4652C47.0212 39.1698 47.4821 38.9687 47.9554 38.8231C48.5146 38.6528 49.1087 38.583 49.6925 38.5748C50.7025 38.5625 51.8415 38.7205 52.6117 39.4364C53.3185 40.095 53.5807 40.9791 53.5746 41.929C53.5725 42.1546 53.552 42.3885 53.5295 42.6142C53.4967 42.9383 53.466 43.2624 53.4271 43.5866C53.3881 43.9004 53.3533 44.2143 53.3226 44.5282C53.3042 44.7128 53.2796 44.9159 53.2775 45.1026C53.2775 45.1477 53.2796 45.2524 53.296 45.3036C53.3185 45.3262 53.3451 45.3467 53.3779 45.357C53.466 45.3857 53.5582 45.4144 53.6483 45.4308C54.0048 45.4965 54.2608 45.7693 54.2608 46.1386C54.2608 46.432 54.2158 46.7233 54.14 47.0064C54.0539 47.3223 53.9146 47.6136 53.72 47.8741C53.5049 48.1634 53.2222 48.3829 52.9006 48.545C52.5298 48.7337 52.1078 48.7994 51.694 48.8096C51.1368 48.824 50.5447 48.7317 50.1104 48.3521C49.9773 48.2373 49.8646 48.106 49.7704 47.9665C49.5963 48.1244 49.4119 48.2721 49.2214 48.4096C48.6457 48.8199 47.9554 48.9983 47.2588 49.0476C46.9003 49.0722 46.5398 49.0619 46.1854 49.0024C45.8228 48.943 45.4827 48.8096 45.1816 48.5942C44.9829 48.4506 44.8169 48.2742 44.6838 48.0731C44.6182 48.3111 44.5138 48.5368 44.3663 48.7399C44.0508 49.1727 43.4895 49.3204 42.9835 49.3799C40.9144 49.6158 38.8474 49.8846 36.7845 50.1718C36.4219 50.2231 36.1146 50.0323 36.0061 49.7225C35.9917 49.7451 35.9774 49.7697 35.961 49.7923C35.6537 50.2477 35.1047 50.4344 34.5864 50.5164C32.503 50.8467 30.4217 51.1975 28.3444 51.5647C28.0535 51.616 27.8098 51.5155 27.6582 51.3268ZM45.3844 41.5166C45.327 41.6192 45.2635 41.7197 45.1959 41.8161C45.0566 42.0192 44.8661 42.2326 44.7063 42.4193C44.3683 42.8152 44.0344 43.2173 43.7046 43.6214C43.258 44.1712 42.8155 44.7272 42.3792 45.2852C42.1436 45.5868 41.9141 45.8904 41.6867 46.196C42.457 46.1201 43.2293 46.0483 43.9996 45.9786C44.1143 45.9683 44.229 45.9786 44.3376 46.0114C44.5117 45 45.0997 44.202 45.9826 43.6091C46.1219 43.5148 46.2673 43.4286 46.4189 43.3486C46.1321 43.2522 45.872 43.0901 45.6773 42.8378C45.4192 42.5054 45.3414 42.0972 45.368 41.6869C45.3721 41.6315 45.3762 41.5741 45.3844 41.5166ZM49.7192 42.4931C49.7212 42.4624 49.7233 42.4316 49.7233 42.4008C49.7274 42.249 49.7171 42.05 49.6413 41.9105C49.5717 41.8756 49.3914 41.8736 49.3279 41.8736C49.2296 41.8756 49.1025 41.8879 49.0104 41.931C48.951 41.9598 48.8977 41.9987 48.8567 42.0521C48.7953 42.13 48.7502 42.2285 48.7154 42.3229C48.6764 42.4254 48.6437 42.5321 48.6129 42.6367C48.9837 42.5711 49.3545 42.5239 49.7192 42.4931ZM19.3 45.478C19.3574 45.478 19.4168 45.478 19.4742 45.478C19.5909 45.478 19.7118 45.4698 19.8286 45.4555C20.0928 45.4185 20.312 45.3078 20.5025 45.119C20.7463 44.8769 20.945 44.5979 21.1069 44.2964C21.281 43.9702 21.4203 43.6296 21.5289 43.2747C21.5924 43.0655 21.6559 42.8583 21.7173 42.649C21.7849 42.4172 21.8669 42.1608 21.914 41.9228C21.955 41.7156 22.0717 41.014 21.8628 40.8479C21.6436 40.6735 20.9266 40.7904 20.4595 40.8868C20.2506 41.6808 20.0211 42.4706 19.8286 43.2706C19.6462 44.0051 19.4742 44.7415 19.3 45.478ZM49.3135 44.9877C49.1066 45.0288 48.8997 45.0903 48.7092 45.1806C48.5802 45.2421 48.4572 45.3221 48.3651 45.4308C48.3077 45.4965 48.2831 45.5683 48.2811 45.6565C48.2811 45.6627 48.2811 45.6688 48.2811 45.677C48.3302 45.6934 48.3815 45.6996 48.4368 45.6955C48.5474 45.6893 48.6601 45.6503 48.7584 45.6032C48.8752 45.5478 48.9776 45.4719 49.0636 45.3754C49.162 45.2606 49.2439 45.1252 49.3135 44.9877Z" fill="#EA3C27"/>
<path fill-rule="evenodd" clip-rule="evenodd" d="M26.9373 38.111C27.0336 37.5633 27.263 37.1366 27.6215 36.835C27.9821 36.5334 28.4082 36.3919 28.906 36.4144C29.3403 36.4329 29.6394 36.5662 29.7951 36.8063C29.9487 37.0442 29.9897 37.3499 29.9262 37.7335C29.8442 38.2218 29.6435 38.6239 29.3075 38.9459C28.9695 39.2701 28.5229 39.4301 27.9718 39.4301C27.1299 39.426 26.7837 38.987 26.9373 38.111ZM16.1987 53.8642C15.5555 54.014 15.0946 53.9606 14.8364 53.6755C14.5865 53.3985 14.5066 52.9082 14.5722 52.2292C14.5927 52.0282 14.6316 51.7061 14.7053 51.263C14.777 50.8198 14.8795 50.2885 15.0065 49.6751C15.1355 49.0638 15.2769 48.3909 15.4469 47.6708C15.6169 46.9467 15.7931 46.2061 15.9898 45.4532C16.2315 44.5239 16.4487 43.7259 16.631 43.0612C16.8133 42.3945 16.9731 41.8242 17.1063 41.3462C17.1616 41.1431 17.2148 40.9564 17.264 40.782C16.5531 40.8169 15.9201 40.741 15.8116 39.8671C15.744 39.3214 16.1086 38.7675 17.4115 38.2895C18.7431 37.7992 20.9022 37.3786 22.5268 37.3396C24.4975 37.2925 25.5279 37.8874 25.6057 39.9799C25.6283 40.5605 25.5668 41.2292 25.4275 41.9862C25.2759 42.813 25.0485 43.6171 24.7556 44.4008C24.4606 45.1886 24.0878 45.9066 23.6371 46.5528C23.1823 47.2031 22.6456 47.7488 22.0208 48.2042C21.3919 48.6617 20.681 48.9653 19.8821 49.1048C19.4006 49.1889 18.2371 49.2094 17.9216 49.1356C17.5201 50.7788 17.5877 51.9892 17.727 52.8508C17.7823 53.1934 17.9667 53.4621 17.6266 53.5401C17.3644 53.5975 16.461 53.8047 16.1987 53.8642ZM19.9988 40.4107C19.837 41.0446 19.4969 42.2324 19.2798 43.1371C19.0626 44.0438 18.8414 44.9957 18.5997 45.9968C18.7492 46.0358 19.3248 46.0379 19.4744 46.0379C19.628 46.0379 19.7755 46.0276 19.9046 46.0092C20.2877 45.9558 20.6175 45.7917 20.8961 45.5168C21.1686 45.246 21.4041 44.926 21.6008 44.5588C21.7954 44.1916 21.947 43.8202 22.0638 43.4366C22.1805 43.053 22.4079 42.3042 22.4612 42.0293C22.8771 39.8978 21.611 40.0517 19.9988 40.4107ZM50.0513 44.3454C49.7686 44.3536 49.4859 44.3803 49.2093 44.4357C48.9389 44.489 48.689 44.569 48.4698 44.6716C48.2547 44.7742 48.0765 44.9055 47.9413 45.0634C47.8061 45.2214 47.7303 45.4101 47.7221 45.6296C47.7118 45.8799 47.7917 46.0481 47.9495 46.1363C48.1051 46.2246 48.2793 46.2615 48.4657 46.2512C48.646 46.241 48.8242 46.1876 48.9983 46.1056C49.1765 46.0215 49.3425 45.9004 49.4838 45.7404C49.6252 45.5783 49.746 45.3835 49.8526 45.1537C49.957 44.928 50.0246 44.6572 50.0513 44.3454ZM44.85 46.4974C44.895 45.5004 45.3805 44.6901 46.2963 44.0767C47.2038 43.4674 48.521 43.1145 50.2336 43.0161C50.25 42.8971 50.2561 42.7986 50.2643 42.7165C50.2725 42.6365 50.2807 42.536 50.2848 42.417C50.2971 42.0724 50.2336 41.8016 50.1127 41.5985C49.9919 41.3975 49.7256 41.301 49.3179 41.3092C49.0946 41.3133 48.9143 41.3523 48.7689 41.4241C48.6275 41.4918 48.5108 41.5862 48.4206 41.7011C48.3264 41.8201 48.2547 41.9596 48.1932 42.1257C48.1318 42.2898 48.0765 42.4724 48.0252 42.6694C47.9986 42.7678 47.9433 42.8335 47.8696 42.8622C47.7917 42.893 47.677 42.9094 47.5131 42.9176C46.4089 42.9648 45.8784 42.5709 45.9296 41.7216C45.9501 41.379 46.0504 41.0508 46.2225 40.7369C46.3946 40.4251 46.6404 40.1481 46.9559 39.9163C47.2714 39.6824 47.6565 39.5019 48.1195 39.3603C48.5784 39.2208 49.111 39.1429 49.703 39.1367C50.8748 39.1203 51.7106 39.3624 52.233 39.8486C52.7595 40.3389 53.0237 41.0282 53.0156 41.9247C53.0156 42.0416 53.0033 42.2529 52.9725 42.5565C52.9418 42.8601 52.9111 43.1822 52.8701 43.5187C52.8291 43.8551 52.7943 44.1751 52.7636 44.4726C52.7349 44.7721 52.7185 44.9793 52.7165 45.0963C52.7144 45.3629 52.7636 45.5537 52.866 45.6645C52.9643 45.7732 53.0791 45.8491 53.2061 45.8902C53.3331 45.9312 53.4458 45.962 53.5461 45.9804C53.6486 45.9989 53.6998 46.0522 53.6998 46.1363C53.6998 46.3702 53.6649 46.6123 53.5973 46.8585C53.5297 47.1067 53.4212 47.3324 53.2675 47.5375C53.1139 47.7426 52.907 47.9109 52.6448 48.0442C52.3825 48.1776 52.0568 48.2391 51.6778 48.2494C51.1452 48.2637 50.7437 48.1632 50.4753 47.9314C50.207 47.6975 50.0287 47.3611 49.9509 46.9241C49.6805 47.3118 49.322 47.6503 48.8938 47.956C48.4636 48.2637 47.9064 48.4422 47.2181 48.4894C46.8842 48.5119 46.5708 48.4996 46.2737 48.4504C45.9787 48.4012 45.7247 48.2965 45.5055 48.1406C45.2925 47.9868 45.1224 47.7714 45.0036 47.5006C44.8827 47.2298 44.8315 46.8933 44.85 46.4974ZM36.7028 49.6197C38.7739 49.3305 40.8471 49.0617 42.9161 48.8258C43.418 48.7684 43.7499 48.635 43.9117 48.4135C44.0756 48.1899 44.1739 47.9109 44.2047 47.5765C44.2313 47.3016 44.2702 47.0246 44.303 46.7518C44.3132 46.6595 44.2846 46.6041 44.2334 46.5733C44.1821 46.5446 44.1207 46.5343 44.0531 46.5405C42.867 46.6472 41.687 46.76 40.505 46.8831C40.9741 46.2184 41.4555 45.5681 41.9431 44.9424C42.4306 44.3167 42.8752 43.7607 43.2746 43.2704C43.6741 42.7781 44.0101 42.3781 44.2846 42.058C44.5509 41.7483 44.7004 41.5575 44.7393 41.5C44.9626 41.1759 45.0958 40.8784 45.1306 40.6015C45.1695 40.2979 45.2208 39.9984 45.2597 39.6968C45.272 39.6086 45.2474 39.547 45.1962 39.5142C45.1491 39.4834 45.0897 39.465 45.0282 39.467C43.2296 39.5245 41.4289 39.584 39.6343 39.6517C39.3905 39.6619 39.1918 39.7029 39.0341 39.7809C38.8764 39.8589 38.7514 39.9573 38.6572 40.0804C38.5629 40.2056 38.4933 40.3409 38.4462 40.4907C38.399 40.6405 38.3601 40.7943 38.3335 40.9502C38.2843 41.2251 38.229 41.5 38.1839 41.7749C38.1696 41.859 38.1737 41.9206 38.1839 41.9616C38.1942 42.0026 38.2433 42.019 38.3294 42.0129C39.3393 41.9493 40.3472 41.8857 41.349 41.8283C40.5808 42.9237 39.9027 43.8243 39.3311 44.528C38.7534 45.2399 38.2761 45.8348 37.8808 46.3128C37.4874 46.7887 37.1842 47.1867 36.9671 47.5088C36.752 47.8309 36.6311 48.157 36.5984 48.4812C36.5656 48.8074 36.5328 49.1315 36.5164 49.4536C36.5103 49.5808 36.5799 49.6361 36.7028 49.6197ZM28.2423 51.0147C28.1214 51.0352 28.0538 50.9778 28.062 50.8322C28.0825 50.4793 28.1193 50.1203 28.1603 49.7654C28.2013 49.4064 28.3385 49.0474 28.5639 48.6904C28.7892 48.3335 29.1129 47.8842 29.5267 47.3529C29.9385 46.8215 30.4486 46.161 31.0652 45.3732C31.6777 44.5895 32.4049 43.5905 33.2469 42.3801C32.237 42.456 31.225 42.536 30.215 42.6181C30.129 42.6242 30.0757 42.6078 30.0696 42.5606C30.0634 42.5176 30.0655 42.4478 30.086 42.3575C30.1495 42.0539 30.2171 41.7503 30.2867 41.4467C30.3277 41.2723 30.3728 41.1041 30.4322 40.94C30.4936 40.7718 30.5694 40.622 30.6719 40.4866C30.7763 40.3492 30.9095 40.2404 31.0713 40.1543C31.2311 40.0702 31.436 40.023 31.6777 40.0107C33.4804 39.9204 35.277 39.8363 37.0798 39.7583C37.1453 39.7563 37.1986 39.7686 37.2477 39.8055C37.2928 39.8383 37.3174 39.906 37.299 40.0025C37.2334 40.3307 37.1597 40.6569 37.0982 40.9851C37.0408 41.2867 36.8974 41.6129 36.6516 41.9657C36.6065 42.0293 36.4427 42.2324 36.1497 42.5811C35.8588 42.9278 35.5044 43.3771 35.0804 43.9167C34.6502 44.4644 34.1708 45.0819 33.6546 45.7712C33.1322 46.4666 32.62 47.1846 32.1222 47.9252C33.3084 47.7632 34.4965 47.6011 35.6867 47.4534C35.7543 47.4452 35.8158 47.4554 35.867 47.4842C35.9182 47.5129 35.9387 47.5765 35.9264 47.6729C35.8875 47.9724 35.8342 48.2699 35.8015 48.5714C35.7605 48.9325 35.6601 49.2341 35.4921 49.4843C35.3262 49.7285 34.9984 49.8885 34.4924 49.9685C32.409 50.2947 30.3215 50.6475 28.2423 51.0147ZM26.2326 51.3799C26.4334 51.3409 26.6321 51.304 26.839 51.265C26.9844 51.2383 27.0807 51.1953 27.1258 51.1358C27.1709 51.0742 27.1954 50.9614 27.2159 50.8055C27.4064 49.3572 27.6256 48.114 27.8264 47.0862C28.0292 46.0543 28.2156 45.1947 28.3631 44.5034C28.5106 43.8079 28.6294 43.2602 28.7196 42.8581C28.8097 42.454 28.8794 42.1565 28.9162 41.9555C28.9654 41.6765 28.9859 41.4221 28.9838 41.1985C28.9797 40.9749 28.9306 40.7861 28.8384 40.6302C28.7462 40.4763 28.6048 40.3635 28.4184 40.2938C28.2279 40.222 27.9718 40.1994 27.6379 40.2179C27.431 40.2302 27.2262 40.2425 27.0193 40.2527C26.882 40.2589 26.796 40.2835 26.7529 40.3266C26.6976 40.384 26.6403 40.5666 26.5645 40.8702C26.1814 42.3965 25.8639 43.6766 25.6242 44.7167C25.3866 45.7527 25.2042 46.6123 25.0608 47.2913C24.9174 47.9663 24.8171 48.4955 24.7556 48.8792C24.6941 49.2607 24.647 49.5541 24.6265 49.7613C24.5958 50.0772 24.5999 50.3521 24.6347 50.5798C24.6696 50.8096 24.7433 50.9963 24.8621 51.1317C24.9871 51.2753 25.1633 51.3655 25.3743 51.4107C25.5935 51.4599 25.8844 51.4476 26.2326 51.3799Z" fill="#FED705"/>
<path fill-rule="evenodd" clip-rule="evenodd" d="M17.5384 53.2693C17.5322 53.2406 17.524 53.2098 17.5199 53.1934C17.4933 53.0929 17.4667 52.9944 17.4503 52.8918C17.2413 51.5994 17.3397 50.3357 17.649 49.0659L17.7146 48.7951L17.985 48.8587C18.0915 48.8833 18.2472 48.8874 18.3558 48.8915C18.5565 48.8997 18.7593 48.8977 18.9601 48.8915C19.2387 48.8833 19.5562 48.871 19.8307 48.8238C20.5703 48.6946 21.2463 48.4156 21.8527 47.9724C22.459 47.5314 22.9753 47.0021 23.4055 46.3867C23.8008 45.8205 24.1245 45.2112 24.3847 44.5732C23.6329 44.3516 22.8708 44.2039 22.1128 44.1137C22.0329 44.3085 21.9428 44.4993 21.8445 44.686C21.6437 45.0635 21.3938 45.4102 21.0906 45.7117C20.771 46.0277 20.3859 46.2205 19.9413 46.282C19.7857 46.3026 19.6279 46.3128 19.4722 46.3128C19.3227 46.3128 19.1752 46.3108 19.0256 46.3067C18.8781 46.3026 18.6692 46.2985 18.5278 46.2636L18.2615 46.1959L18.3271 45.9271C18.4766 45.3035 18.6241 44.6778 18.7716 44.0542C17.9993 44.1095 17.2598 44.208 16.5735 44.327C16.467 44.725 16.3625 45.1209 16.258 45.5189C16.0675 46.2533 15.8913 46.9918 15.7172 47.7304C15.5615 48.395 15.4181 49.0618 15.2788 49.7285C15.1682 50.2516 15.0658 50.7768 14.9797 51.304C14.9285 51.6179 14.8814 51.9359 14.8507 52.2518C14.8158 52.5944 14.7913 53.2037 15.0432 53.4827C15.285 53.7494 15.8319 53.657 16.1351 53.5873C16.6022 53.4827 17.0693 53.376 17.5384 53.2693ZM53.4149 46.2431C53.3145 46.2205 53.2162 46.1918 53.1178 46.159C52.9376 46.1015 52.7819 45.9948 52.6549 45.8533C52.4725 45.6522 52.4316 45.3568 52.4336 45.0942C52.4357 44.8829 52.4602 44.6573 52.4828 44.446C52.5012 44.2675 52.5196 44.089 52.5401 43.9085C52.3312 43.8798 52.1161 43.847 51.8887 43.81C50.8337 43.6377 49.8319 43.5187 48.8834 43.4387C48.0128 43.5823 47.1401 43.8429 46.4498 44.3044C45.6611 44.8337 45.1714 45.5435 45.1284 46.5057C45.1161 46.797 45.1387 47.1149 45.2575 47.3837C45.3497 47.5909 45.4808 47.7755 45.6652 47.9089C45.8598 48.0484 46.081 48.1304 46.3145 48.1694C46.6054 48.2166 46.9004 48.2268 47.1934 48.2063C47.7301 48.1694 48.2832 48.0401 48.7278 47.7242C49.1026 47.4555 49.4529 47.1416 49.7193 46.76L50.1044 46.2061L50.2232 46.8708C50.2806 47.1929 50.4055 47.4986 50.6575 47.7181C50.9177 47.9437 51.3417 47.9766 51.6695 47.9683C51.9501 47.9622 52.2636 47.9212 52.5176 47.794C52.7204 47.6914 52.9048 47.5539 53.042 47.3714C53.1731 47.1949 53.2674 47.0001 53.3247 46.7867C53.3739 46.6123 53.4067 46.4277 53.4149 46.2431ZM50.3297 44.3701C50.3031 44.6799 50.2355 44.9917 50.1044 45.2748C49.9958 45.5086 49.8627 45.7343 49.6926 45.9271C49.5328 46.1118 49.3362 46.2554 49.117 46.36C48.9162 46.4544 48.7011 46.52 48.4799 46.5323C48.2443 46.5446 48.0169 46.4974 47.81 46.3805C47.5293 46.2226 47.4269 45.9271 47.4413 45.6174C47.4535 45.3425 47.5478 45.0901 47.7281 44.8809C47.8981 44.6819 48.1132 44.5301 48.3488 44.4193C48.6028 44.2983 48.8793 44.2162 49.1539 44.1608C49.4468 44.1034 49.7438 44.0747 50.0409 44.0644L50.3564 44.0542L50.3297 44.3701ZM36.8051 49.3223C38.8271 49.0413 40.8531 48.7787 42.8812 48.5469C43.1106 48.5202 43.5326 48.4504 43.6821 48.2473C43.8317 48.0442 43.8993 47.7981 43.9239 47.5478C43.9464 47.3057 43.9792 47.0637 44.0099 46.8236C42.8484 46.9283 41.6889 47.039 40.5294 47.1601L39.9148 47.2237L40.2713 46.719C40.7384 46.0584 41.2198 45.4061 41.7176 44.7681C42.0412 44.3516 42.369 43.9393 42.6988 43.5269C41.7585 43.6398 40.9022 43.7916 40.1299 43.9618C39.9374 44.2101 39.7448 44.4583 39.5461 44.7004C39.0626 45.2953 38.5833 45.8943 38.0957 46.4872C37.7843 46.8647 37.4709 47.2565 37.2005 47.6606C37.0305 47.915 36.9096 48.1981 36.8789 48.5058C36.8502 48.7787 36.8236 49.0495 36.8051 49.3223ZM35.6354 47.7406C34.4759 47.8863 33.3185 48.0442 32.161 48.2022L31.5424 48.2863L31.8906 47.7673C32.329 47.1149 32.7838 46.4728 33.2529 45.841C32.5646 45.923 31.8189 45.9538 30.9933 45.9189C30.5775 46.4544 30.1616 46.9898 29.7458 47.5252C29.418 47.9478 29.0841 48.3868 28.7973 48.8402C28.615 49.1315 28.4757 49.4557 28.4347 49.7982C28.3999 50.1019 28.3671 50.4055 28.3466 50.7111C30.3767 50.3542 32.411 50.0116 34.4472 49.6895C34.7033 49.6485 35.1007 49.5562 35.2585 49.3244C35.4162 49.0905 35.4899 48.8156 35.5207 48.5386C35.5534 48.2699 35.5985 48.0053 35.6354 47.7406ZM26.9024 50.9594C26.9188 50.9101 26.9331 50.8096 26.9372 50.7706C27.1031 49.5192 27.308 48.274 27.5518 47.0349C27.6521 46.5262 27.7566 46.0215 27.8631 45.5148C27.2301 45.3856 26.5582 45.2214 25.8433 45.0204C25.6671 45.7958 25.4991 46.5734 25.3352 47.3529C25.2246 47.874 25.116 48.4012 25.032 48.9264C24.987 49.2115 24.9337 49.5049 24.905 49.7921C24.8804 50.0362 24.8743 50.2988 24.9112 50.5409C24.9337 50.6804 24.9767 50.8424 25.073 50.9512C25.1652 51.0578 25.2983 51.1112 25.4335 51.1399C25.6589 51.1891 25.9559 51.1502 26.1792 51.1071C26.382 51.0681 26.5848 51.0291 26.7897 50.9922C26.8143 50.986 26.8716 50.9737 26.9024 50.9594Z" fill="#FFE863"/>
<path fill-rule="evenodd" clip-rule="evenodd" d="M16.526 34.2439C16.5403 34.2337 16.5547 34.2214 16.571 34.2111C16.9582 33.9301 17.3987 33.7536 17.8821 33.7536C18.1566 33.7536 18.4188 33.8193 18.6647 33.9383C18.8163 34.0121 18.9576 34.1044 19.0846 34.2152C19.0846 34.2132 19.0867 34.2091 19.0867 34.207C19.1133 34.1065 19.1399 34.006 19.1645 33.9054L19.1932 33.7947H19.3079C19.4124 33.7947 19.5148 33.7947 19.6193 33.7947C19.648 33.7947 19.6767 33.7947 19.7074 33.7947C19.816 33.3782 19.9245 32.9638 20.0331 32.5474C20.0597 32.4468 20.0864 32.3463 20.111 32.2458L20.1396 32.135H20.2544C20.3588 32.135 20.4613 32.135 20.5657 32.135C20.9365 32.135 21.3053 32.135 21.6761 32.135C21.8481 32.135 22.0223 32.135 22.1943 32.135H22.3869L22.3398 32.3217C22.2968 32.4899 22.2538 32.6581 22.2107 32.8243C22.1267 33.1484 22.0448 33.4705 21.9608 33.7947C22.1349 33.7947 22.3091 33.7947 22.4832 33.7947H22.6778L22.6266 33.9834C22.5795 34.1537 22.5344 34.3219 22.4873 34.4922C22.4115 34.7691 22.3357 35.0481 22.2599 35.3251C22.2333 35.4235 22.2066 35.522 22.178 35.6225L22.1472 35.7333H22.0325C21.9301 35.7333 21.8277 35.7333 21.7252 35.7333C21.6351 35.7333 21.545 35.7333 21.4548 35.7333C21.3647 36.0861 21.2745 36.439 21.1803 36.7898C21.4692 36.7898 21.756 36.7898 22.0448 36.7898C22.221 36.7898 22.3972 36.7898 22.5713 36.7898H22.7659L22.7147 36.9785C22.6676 37.1488 22.6225 37.317 22.5754 37.4873C22.4996 37.7643 22.4238 38.0433 22.348 38.3202C22.3214 38.4187 22.2947 38.5171 22.266 38.6177L22.2353 38.7284H22.1206C22.0182 38.7284 21.9157 38.7284 21.8133 38.7284C21.2889 38.7284 20.7644 38.7284 20.24 38.7284C19.9962 38.7284 19.7484 38.7325 19.5066 38.7018C19.2383 38.6669 18.9904 38.5766 18.8265 38.3469C18.7794 38.2812 18.7466 38.2115 18.722 38.1376C18.6401 38.2135 18.554 38.2853 18.4619 38.351C18.0747 38.632 17.6342 38.8084 17.1508 38.8084C16.8783 38.8084 16.612 38.751 16.3682 38.632C16.0138 38.4576 15.7475 38.2033 15.5672 37.8812C15.5304 38.0268 15.4914 38.1725 15.4546 38.3161C15.4279 38.4166 15.4013 38.5171 15.3767 38.6177L15.348 38.7284H15.2333C15.1289 38.7284 15.0264 38.7284 14.9219 38.7284C14.504 38.7284 14.0861 38.7284 13.6682 38.7284H13.5187C13.4654 38.7284 13.4122 38.7284 13.3568 38.7284H13.2073C12.6194 38.7284 12.0314 38.7284 11.4455 38.7284C11.2714 38.7284 11.0993 38.7284 10.9252 38.7284H10.7326L10.7818 38.5418C10.8248 38.3735 10.8699 38.2053 10.9129 38.0371C11.1915 36.9703 11.4681 35.9036 11.7467 34.8368C11.4886 34.7014 11.3185 34.4716 11.2059 34.1926C11.2059 34.1906 11.2038 34.1885 11.2038 34.1865C10.8084 34.0983 10.4991 33.8829 10.2143 33.5875C10.1119 33.4808 9.98696 33.3946 9.83332 33.409C9.62846 33.4274 9.39083 33.6244 9.22899 33.7434L8.94629 33.9485L8.99545 33.5998C9.13066 32.6438 9.67967 31.5401 10.7818 31.5155C11.3431 31.5032 11.8368 31.8293 12.2752 32.1432C12.2773 32.1453 12.2813 32.1473 12.2854 32.1473C12.3244 32.1473 12.3961 32.0735 12.4186 32.0468C12.4657 31.9914 12.5128 31.9217 12.5456 31.8581C12.5825 31.7842 12.6194 31.7104 12.6562 31.6345L12.6972 31.5524H12.7894C12.8713 31.5524 12.9553 31.5524 13.0373 31.5524C13.4634 31.5524 13.8874 31.5524 14.3135 31.5524H14.4631C14.5102 31.5524 14.5573 31.5524 14.6044 31.5524H14.754C15.3399 31.5524 15.9257 31.5524 16.5116 31.5524C16.6858 31.5524 16.8599 31.5524 17.032 31.5524H17.2245L17.1754 31.7391C17.1323 31.9073 17.0873 32.0755 17.0443 32.2437C16.8722 32.9105 16.7001 33.5772 16.526 34.2439Z" fill="#860911"/>
<path fill-rule="evenodd" clip-rule="evenodd" d="M13.039 32.1042C13.4385 32.1042 13.838 32.1042 14.2374 32.1042C14.0408 32.8489 13.756 33.9341 13.5594 34.6788C13.9219 34.6788 14.2845 34.6788 14.6471 34.6788C14.8418 33.9341 15.1245 32.8489 15.3191 32.1042C15.7165 32.1042 16.116 32.1042 16.5134 32.1042C15.9848 34.129 15.4563 36.1518 14.9278 38.1766C14.5304 38.1766 14.1309 38.1766 13.7335 38.1766C13.9957 37.1754 14.1678 36.5149 14.4279 35.5137C14.0653 35.5137 13.7028 35.5137 13.3402 35.5137C13.082 36.5149 12.9141 37.1754 12.6559 38.1766C12.2544 38.1766 11.8529 38.1766 11.4534 38.1766C11.7791 36.9231 12.1069 35.6697 12.4326 34.4162C12.1315 34.4306 11.8857 34.3854 11.7238 33.9854C11.941 34.0859 12.1684 34.1064 12.3405 34.0551C12.6744 33.9567 12.8977 33.5402 12.0659 33.651C11.521 33.7228 11.1134 33.7187 10.6156 33.2038C11.0826 33.2038 11.605 33.2674 10.9229 32.7258C10.6115 32.4776 10.21 32.576 9.74902 32.9494C10.464 31.6221 11.1933 32.0509 11.9533 32.5945C12.3077 32.8468 12.7707 32.6396 13.039 32.1042ZM20.2459 38.1766C20.6023 38.1766 21.4627 38.1766 21.8192 38.1766C21.895 37.8996 21.9708 37.6206 22.0465 37.3437C21.8069 37.3437 21.221 37.3437 20.9792 37.3437C20.5572 37.3437 20.4446 37.4155 20.5511 37.0154C20.7129 36.4082 20.8686 35.7927 21.0284 35.1814C21.2619 35.1814 21.4934 35.1814 21.727 35.1814C21.8028 34.9045 21.8786 34.6255 21.9544 34.3485C21.7188 34.3485 21.4832 34.3485 21.2476 34.3485C21.391 33.7946 21.5324 33.2428 21.6758 32.6889C21.305 32.6889 20.9362 32.6889 20.5654 32.6889C20.422 33.2428 20.2766 33.7946 20.1332 34.3485C19.9611 34.3485 19.7911 34.3485 19.619 34.3485C19.5453 34.6255 19.4736 34.9045 19.3998 35.1814C19.5719 35.1814 19.744 35.1814 19.914 35.1814C19.7378 35.8563 19.6395 36.2338 19.4633 36.9108C19.1437 38.1335 18.9983 38.1766 20.2459 38.1766ZM16.6179 38.1355C16.7838 38.2176 16.9661 38.2566 17.1587 38.2566C17.4926 38.2566 17.8224 38.1396 18.144 37.9037C18.4677 37.6698 18.7217 37.3539 18.9122 36.96C19.0884 36.5969 19.1786 36.2277 19.1786 35.8502C19.1786 35.1486 18.9225 34.6808 18.4185 34.4326C18.2506 34.3506 18.0703 34.3034 17.8777 34.3034C17.5438 34.3034 17.214 34.4203 16.8924 34.6562C16.5687 34.8901 16.3147 35.206 16.1242 35.5999C15.948 35.963 15.8578 36.3302 15.8578 36.7098C15.8578 37.4134 16.1119 37.8873 16.6179 38.1355ZM17.888 35.1814C18.0928 35.1814 18.1952 35.3619 18.1952 35.723C18.1952 35.9712 18.1399 36.2297 18.0293 36.4964C17.9187 36.7631 17.7876 36.9723 17.638 37.1242C17.4864 37.276 17.3492 37.3498 17.2263 37.3498C17.0214 37.3498 16.919 37.1713 16.919 36.8164C16.919 36.5682 16.9743 36.3056 17.089 36.0307C17.1956 35.7722 17.3267 35.565 17.4762 35.4112C17.6257 35.2573 17.763 35.1814 17.888 35.1814Z" fill="white"/>
<path fill-rule="evenodd" clip-rule="evenodd" d="M14.0434 32.254C13.7381 32.254 13.4329 32.254 13.1297 32.254C13.0375 32.4181 12.9166 32.5679 12.7651 32.6786C12.6114 32.7915 12.427 32.8612 12.2345 32.8469C12.1013 32.8386 11.9764 32.7894 11.8678 32.7115C11.583 32.5063 11.1651 32.2068 10.7984 32.215C10.5833 32.2191 10.4031 32.3319 10.2515 32.4858C10.5055 32.4037 10.7718 32.414 11.0156 32.6068C11.118 32.6889 11.2368 32.7874 11.3167 32.8899C11.3823 32.9761 11.4314 33.0848 11.3802 33.1915C11.3208 33.3125 11.1754 33.3392 11.0545 33.3495C11.0422 33.3495 11.032 33.3515 11.0197 33.3515C11.3208 33.5505 11.6117 33.5587 12.046 33.5013C12.1956 33.4808 12.3799 33.4684 12.5274 33.5033C12.6462 33.532 12.7569 33.6018 12.7835 33.729C12.806 33.8439 12.7466 33.9546 12.6667 34.0326C12.5889 34.1085 12.4864 34.1659 12.382 34.1967C12.2959 34.2213 12.2037 34.2316 12.1116 34.2295C12.1935 34.2644 12.2959 34.2726 12.425 34.2665L12.6278 34.2562L12.5766 34.4531C12.2673 35.645 11.9559 36.8349 11.6465 38.0268C11.9456 38.0268 12.2427 38.0268 12.5418 38.0268C12.761 37.1754 12.9781 36.3261 13.1973 35.4748L13.226 35.3619H13.3407C13.7033 35.3619 14.0659 35.3619 14.4285 35.3619H14.6211L14.5719 35.5486C14.3568 36.3733 14.1417 37.2 13.9245 38.0247C14.2195 38.0247 14.5166 38.0247 14.8116 38.0247C15.3135 36.1005 15.8154 34.1762 16.3173 32.2519C16.0223 32.2519 15.7252 32.2519 15.4302 32.2519C15.2151 33.0725 15.0021 33.8931 14.787 34.7157L14.7583 34.8265H14.6436C14.281 34.8265 13.9184 34.8265 13.5558 34.8265H13.3612L13.4103 34.6398C13.6234 33.8459 13.8324 33.05 14.0434 32.254ZM21.7582 34.4962C21.5882 34.4962 21.4161 34.4962 21.2461 34.4962H21.0535L21.1007 34.3095C21.2277 33.8192 21.3526 33.3269 21.4796 32.8366C21.2113 32.8366 20.945 32.8366 20.6766 32.8366C20.5414 33.3536 20.4082 33.8685 20.273 34.3854L20.2444 34.4962H20.1317C19.9985 34.4962 19.8654 34.4962 19.7343 34.4962C19.6871 34.6747 19.64 34.8532 19.595 35.0317C19.7015 35.0317 19.8101 35.0317 19.9166 35.0317H20.1092L20.06 35.2183C19.9104 35.7948 19.7588 36.3713 19.6093 36.9477C19.5724 37.0913 19.5335 37.2329 19.4946 37.3765C19.4659 37.479 19.4393 37.5816 19.4167 37.6862C19.4065 37.7375 19.3737 37.8975 19.4065 37.9447C19.4761 38.0432 20.1358 38.0288 20.2464 38.0288C20.7319 38.0288 21.2195 38.0288 21.705 38.0288C21.7541 37.8504 21.8033 37.6719 21.8504 37.4934C21.5595 37.4934 21.2707 37.4934 20.9798 37.4934C20.8815 37.4934 20.7831 37.4996 20.6868 37.4975C20.5947 37.4955 20.5004 37.4831 20.4328 37.4113C20.3243 37.2965 20.3734 37.1118 20.4082 36.9764C20.5701 36.3672 20.7258 35.7538 20.8856 35.1424L20.9142 35.0296H21.029C21.2236 35.0296 21.4182 35.0296 21.6128 35.0296C21.662 34.8532 21.7111 34.6747 21.7582 34.4962ZM16.684 38.0022C16.1677 37.7498 16.0079 37.2616 16.0079 36.7118C16.0079 36.3446 16.1001 35.9979 16.2599 35.6676C16.4299 35.3168 16.6635 35.0111 16.981 34.7793C17.2473 34.5865 17.5464 34.4552 17.8803 34.4552C18.0483 34.4552 18.206 34.4962 18.3556 34.5701C18.8718 34.8224 19.0316 35.3024 19.0316 35.8522C19.0316 36.2194 18.9394 36.5661 18.7796 36.8964C18.6096 37.2472 18.3761 37.5529 18.0585 37.7847C17.7922 37.9775 17.4931 38.1088 17.1592 38.1088C16.9933 38.1088 16.8335 38.074 16.684 38.0022ZM17.8885 35.0317C17.6857 35.0317 17.5054 35.1691 17.3702 35.3066C17.1859 35.4953 17.0506 35.7312 16.9503 35.9733C16.8396 36.24 16.77 36.5251 16.77 36.8164C16.77 37.038 16.8048 37.3252 17.0179 37.4462C17.0814 37.4831 17.1531 37.4996 17.2268 37.4996C17.4296 37.4996 17.6079 37.3662 17.7451 37.2288C17.9336 37.04 18.0688 36.798 18.1692 36.5538C18.2777 36.2892 18.3453 36.0102 18.3453 35.723C18.3453 35.4994 18.3105 35.206 18.0934 35.0829C18.0299 35.0481 17.9602 35.0317 17.8885 35.0317Z" fill="#FED705"/>
</svg>
