<svg width="64" height="64" viewBox="0 0 64 64" fill="none" xmlns="http://www.w3.org/2000/svg">
<rect width="64" height="64" rx="7" fill="#CC2229"/>
<path d="M58.9998 20.2119H5.2998V44.9884H58.9998V20.2119Z" fill="white"/>
<path d="M12.8584 24.3064C13.5408 24.2014 14.4857 24.0964 15.6405 24.0964C17.0578 24.0964 18.1077 24.4114 18.7901 25.0413C19.42 25.5662 19.7874 26.4061 19.7874 27.351C19.7874 28.3483 19.4725 29.1357 18.9475 29.7131C18.2126 30.5005 16.9528 30.9205 15.5355 30.9205C15.1156 30.9205 14.6956 30.9205 14.3807 30.8155V35.2774H12.9634V24.3064H12.8584ZM14.2757 29.7131C14.5907 29.8181 15.0106 29.8181 15.483 29.8181C17.2153 29.8181 18.2651 28.9783 18.2651 27.456C18.2651 25.9862 17.2153 25.2513 15.6405 25.2513C15.0106 25.2513 14.5382 25.3038 14.2757 25.3563V29.7131Z" fill="#8F1816"/>
<path d="M23.0945 24.2014V35.3299H21.6772V24.2014H23.0945Z" fill="#8F1816"/>
<path d="M24.8267 34.49L31.0208 25.4612V25.4087H25.3516V24.2014H32.858V25.0938L26.7164 34.07V34.1225H32.963V35.3299H24.8267V34.49Z" fill="#8F1816"/>
<path d="M33.9604 34.49L40.1546 25.4612V25.4087H34.5379V24.2014H42.0443V25.0938L35.9027 34.07V34.1225H42.1493V35.3299H33.9604V34.49Z" fill="#8F1816"/>
<path d="M45.7189 31.8129L44.564 35.3299H43.0942L46.8737 24.2014H48.606L52.3854 35.3299H50.8632L49.6558 31.8129H45.7189ZM49.3409 30.7105L48.2385 27.5085C47.9761 26.7736 47.8186 26.1436 47.6611 25.4612H47.6086C47.4511 26.1436 47.2412 26.826 47.0312 27.456L45.9813 30.7105H49.3409Z" fill="#8F1816"/>
<path d="M20.8898 40.6316H19.1575V42.2064H21.0472V42.6788H18.5801V38.2694H20.9422V38.7418H19.1575V40.1591H20.8898V40.6316V40.6316Z" fill="#FBB040"/>
<path d="M24.2491 42.6788L23.6717 41.7339C23.4618 41.3665 23.3043 41.104 23.1468 40.8416C23.0418 41.104 22.8843 41.314 22.6744 41.7339L22.1494 42.6788H21.5195L22.8843 40.4741L21.572 38.2694H22.2544L22.8318 39.3193C22.9893 39.5817 23.0943 39.8442 23.2518 40.0542C23.3568 39.7917 23.4618 39.5817 23.6717 39.3193L24.2491 38.2694H24.8791L23.5143 40.4216L24.8791 42.6788H24.2491Z" fill="#FBB040"/>
<path d="M25.5615 38.3218C25.824 38.2693 26.1914 38.2169 26.6639 38.2169C27.2413 38.2169 27.6612 38.3218 27.9237 38.5843C28.1862 38.7943 28.2911 39.1092 28.2911 39.5292C28.2911 39.9491 28.1862 40.2641 27.9762 40.474C27.6612 40.789 27.1888 40.9465 26.6114 40.9465C26.4539 40.9465 26.2964 40.9465 26.1389 40.894V42.6787H25.5615V38.3218ZM26.1389 40.474C26.2439 40.5265 26.4014 40.5265 26.6114 40.5265C27.2938 40.5265 27.7137 40.2116 27.7137 39.5817C27.7137 39.0042 27.2938 38.7418 26.6639 38.7418C26.4014 38.7418 26.2439 38.7418 26.1389 38.7943V40.474Z" fill="#FBB040"/>
<path d="M29.0261 38.3744C29.2886 38.3219 29.7085 38.2694 30.1285 38.2694C30.7584 38.2694 31.1258 38.3744 31.3883 38.6369C31.5983 38.8468 31.7557 39.1093 31.7557 39.4767C31.7557 40.0542 31.3883 40.4216 30.9159 40.5791C31.2308 40.6841 31.4408 40.999 31.5458 41.4715C31.7033 42.1014 31.8082 42.5213 31.8607 42.6788H31.2833C31.2308 42.5738 31.1258 42.1539 30.9684 41.6289C30.8634 40.999 30.6009 40.7891 30.076 40.7891H29.5511V42.6788H28.9736V38.3744H29.0261ZM29.6035 40.3691H30.181C30.8109 40.3691 31.1783 40.0542 31.1783 39.5292C31.1783 38.9518 30.7584 38.6893 30.181 38.6893C29.9185 38.6893 29.7085 38.6894 29.6035 38.7418V40.3691Z" fill="#FBB040"/>
<path d="M34.8526 40.6316H33.1204V42.2064H35.0101V42.6788H32.543V38.2694H34.9051V38.7418H33.1204V40.1591H34.8526V40.6316Z" fill="#FBB040"/>
<path d="M35.6924 41.9963C35.9549 42.1538 36.3223 42.2587 36.6897 42.2587C37.2672 42.2587 37.6346 41.9438 37.6346 41.5238C37.6346 41.1039 37.4246 40.8939 36.7947 40.6315C36.0598 40.369 35.6399 40.0016 35.6399 39.3716C35.6399 38.6892 36.2173 38.1643 37.0572 38.1643C37.5296 38.1643 37.8446 38.2693 38.0546 38.3743L37.8971 38.8467C37.7396 38.7942 37.4771 38.6367 37.0572 38.6367C36.4798 38.6367 36.2173 39.0042 36.2173 39.3191C36.2173 39.7391 36.4798 39.9491 37.1097 40.159C37.8446 40.4215 38.212 40.7889 38.212 41.4713C38.212 42.1538 37.6871 42.7312 36.6897 42.7312C36.2698 42.7312 35.7974 42.6262 35.5874 42.4687L35.6924 41.9963Z" fill="#FBB040"/>
<path d="M38.9473 41.9963C39.2097 42.1538 39.5772 42.2587 39.9446 42.2587C40.522 42.2587 40.8895 41.9438 40.8895 41.5238C40.8895 41.1039 40.6795 40.8939 40.0496 40.6315C39.3147 40.369 38.8948 40.0016 38.8948 39.3716C38.8948 38.6892 39.4722 38.1643 40.3121 38.1643C40.7845 38.1643 41.0995 38.2693 41.3094 38.3743L41.152 38.8467C40.9945 38.7942 40.732 38.6367 40.3121 38.6367C39.7347 38.6367 39.4722 39.0042 39.4722 39.3191C39.4722 39.7391 39.7347 39.9491 40.3646 40.159C41.0995 40.4215 41.4669 40.7889 41.4669 41.4713C41.4669 42.1538 40.942 42.7312 39.9446 42.7312C39.5247 42.7312 39.0523 42.6262 38.8423 42.4687L38.9473 41.9963Z" fill="#FBB040"/>
</svg>
