<svg width="64" height="64" viewBox="0 0 64 64" fill="none" xmlns="http://www.w3.org/2000/svg">
<rect width="64" height="64" rx="7" fill="#FFA33F"/>
<path fill-rule="evenodd" clip-rule="evenodd" d="M15.1997 15.0933C28.9197 15.4886 42.6436 15.8876 56.3636 16.2867C58.1917 16.3399 60.2896 16.7808 61.2587 18.5708C62.3381 20.5661 61.2967 23.0631 60.3542 24.8342L50.1763 43.989C49.7088 44.867 49.2604 45.7525 48.7245 46.5886C48.2874 47.2651 47.7895 47.877 47.1054 48.3141C46.4251 48.7473 45.6764 48.9412 44.8745 49.0438C43.9092 49.1692 42.9362 49.1844 41.9633 49.2186C36.7223 49.3972 31.4775 49.5797 26.2365 49.7583C20.9233 49.9407 19.4221 48.2913 17.5978 43.4493C15.1047 36.8364 12.6153 30.2272 10.1259 23.618C9.70405 22.4968 9.29739 21.3224 9.12256 20.1405C8.96294 19.0839 9.01235 17.9817 9.55963 17.062C10.0727 16.1993 10.9012 15.69 11.8514 15.4088C12.9117 15.1009 14.0899 15.0629 15.1997 15.0933Z" fill="#860911"/>
<path fill-rule="evenodd" clip-rule="evenodd" d="M14.6297 14.0102C28.3498 14.4055 42.0698 14.8045 55.7936 15.2036C57.7585 15.2606 59.9515 15.7585 60.9852 17.6701C61.1752 18.0236 61.3121 18.4037 61.3919 18.7951C61.7719 20.6536 60.9244 22.6755 60.0845 24.2527L49.9066 43.4076C49.4353 44.2931 48.983 45.1862 48.4395 46.03C47.9759 46.7483 47.4476 47.3868 46.7217 47.8504C46.0034 48.3103 45.2053 48.5193 44.3577 48.6296C43.3848 48.755 42.3967 48.774 41.4123 48.8082C36.1713 48.9868 30.9265 49.1692 25.6856 49.3479C20.2127 49.5379 18.5861 47.7896 16.7086 42.8109C14.2192 36.2017 11.7299 29.5887 9.24051 22.9795C8.80724 21.828 8.40058 20.6422 8.21815 19.4298C8.04713 18.2934 8.10794 17.1191 8.69702 16.1347C9.25191 15.2036 10.1412 14.6449 11.175 14.3408C12.2772 14.014 13.4781 13.976 14.6297 14.0102Z" fill="#860911"/>
<path fill-rule="evenodd" clip-rule="evenodd" d="M14.6374 14.8499C28.3575 15.2452 42.0775 15.6442 55.8014 16.0433C57.4204 16.0889 59.3853 16.45 60.248 18.05C61.2248 19.8591 60.1872 22.242 59.3397 23.8383L49.1618 42.9931C48.7019 43.8558 48.2611 44.7338 47.729 45.5585C47.3299 46.1742 46.8776 46.7405 46.2544 47.1395C45.6387 47.531 44.947 47.702 44.2211 47.797C43.2747 47.9224 42.3132 47.9376 41.3554 47.9681C36.1144 48.1467 30.8697 48.3291 25.6287 48.5077C20.5511 48.6826 19.2437 47.1737 17.4993 42.5408C15.0099 35.9279 12.5205 29.3149 10.0312 22.7057C9.62069 21.6187 9.22544 20.4748 9.05441 19.3346C8.91379 18.3958 8.94039 17.4001 9.43067 16.583C9.88293 15.8267 10.6126 15.3896 11.445 15.1464C12.4483 14.8499 13.5847 14.8195 14.6374 14.8499Z" fill="white"/>
<path fill-rule="evenodd" clip-rule="evenodd" d="M14.6412 15.3516C28.3612 15.7468 42.0813 16.1459 55.8051 16.5449C57.1771 16.5829 59.0394 16.8528 59.8071 18.2742C60.685 19.897 59.6323 22.1964 58.8912 23.5874L48.7133 42.7422C48.2648 43.586 47.8163 44.4715 47.3032 45.2696C46.9422 45.8321 46.5317 46.349 45.973 46.7062C45.4182 47.0597 44.7873 47.2079 44.1412 47.2915C43.2252 47.4093 42.2523 47.4283 41.3249 47.4587C36.084 47.6374 30.8392 47.8198 25.5982 47.9984C20.8551 48.1619 19.6845 46.9115 17.9781 42.3736C15.4887 35.7644 12.9993 29.1514 10.5099 22.5422C10.1223 21.5085 9.72323 20.3645 9.55981 19.2775C9.43439 18.449 9.44579 17.5635 9.87145 16.8528C10.2629 16.1991 10.9052 15.838 11.6083 15.629C12.5471 15.3516 13.6568 15.325 14.6412 15.3516Z" fill="#FED705"/>
<path fill-rule="evenodd" clip-rule="evenodd" d="M14.6527 15.8572C28.5628 16.26 41.9066 16.6477 55.8167 17.0505C60.2785 17.1798 60.4077 19.6767 58.4657 23.3291L48.2877 42.4839C46.0112 46.7672 46.0492 46.7976 41.2833 46.961C35.7763 47.151 31.0636 47.3107 25.5565 47.5007C21.1061 47.6527 20.0837 46.6228 18.4229 42.2141C15.9335 35.6049 13.4441 28.9919 10.9548 22.3827C9.1913 17.7004 9.43834 15.7051 14.6527 15.8572Z" fill="#EA3C27"/>
<path fill-rule="evenodd" clip-rule="evenodd" d="M22.0715 42.9173C22.0411 42.8869 22.0107 42.8527 21.9803 42.8185C21.6344 42.4195 21.4444 41.9292 21.3646 41.4123C21.2924 40.9562 21.3 40.4888 21.3456 40.0289C21.3646 39.8237 21.395 39.6184 21.4254 39.4132C21.2049 39.607 20.9731 39.7895 20.7337 39.9643C19.7531 40.6788 18.6472 41.1349 17.4538 41.3477C16.9825 41.4313 16.4162 41.4655 15.8842 41.4693C15.7397 42.4575 15.7245 43.4456 15.888 44.4414C15.9184 44.639 15.9868 44.829 16.0172 45.0343C16.0666 45.3687 16.0172 45.6803 15.8727 45.9882C15.6409 46.4785 15.2038 46.7901 14.6832 46.9079C14.0865 47.0448 13.4898 47.1778 12.8931 47.3184C11.8061 47.573 10.6128 47.5426 9.81085 46.6533C9.65502 46.4785 9.5258 46.2884 9.42699 46.0908C9.40799 46.0718 9.39278 46.0528 9.37378 46.0338C8.66307 45.2509 8.58326 44.1335 8.68588 43.1302C8.72768 42.6931 8.79229 42.2598 8.8645 41.8266C8.97852 41.1387 9.11154 40.4508 9.25596 39.7705C9.43459 38.9191 9.61702 38.064 9.81845 37.2165C10.0389 36.2739 10.2631 35.3314 10.5101 34.3927C10.7724 33.3817 11.046 32.3746 11.3235 31.3636C11.4185 31.0102 11.5173 30.6567 11.6161 30.3071C11.3387 30.0828 11.1258 29.8054 10.9738 29.4975C10.5558 29.0681 10.3277 28.5094 10.2517 27.8937C10.1833 27.3502 10.2783 26.8219 10.5406 26.3393C11.0726 25.3625 12.1748 24.781 13.1781 24.4124C14.4171 23.9563 15.7473 23.6561 17.0471 23.4394C18.0467 23.2722 19.0576 23.1544 20.0724 23.1316C22.0411 23.0822 23.5195 23.5534 24.4164 24.6784C24.6369 23.9601 25.0283 23.3216 25.6212 22.8237C26.3547 22.2118 27.2516 21.9268 28.2018 21.9686C29.0911 22.0066 29.9424 22.3297 30.4441 23.1012C30.4973 23.1848 30.5467 23.2722 30.5923 23.3596C30.6988 23.466 30.7938 23.5877 30.8812 23.7207C31.3031 24.3744 31.3791 25.1307 31.2536 25.887C31.2156 26.1112 31.1624 26.3317 31.094 26.5407C31.2498 26.5141 31.4057 26.4989 31.5615 26.4913C33.8304 26.3773 36.1032 26.2709 38.3721 26.172C38.7674 26.153 39.1474 26.2633 39.4705 26.4951C39.5579 26.5597 39.6377 26.6281 39.7099 26.7079C39.8847 26.5635 40.0748 26.4419 40.28 26.3431C40.6905 26.1416 41.1427 26.058 41.5988 26.039C43.8677 25.9516 46.1329 25.8756 48.4018 25.8072C48.7629 25.7958 49.1277 25.8946 49.4318 26.096C49.6712 26.2518 49.8536 26.4609 49.9752 26.7003C49.9942 26.6851 50.017 26.6699 50.0398 26.6547C50.6099 26.2328 51.2598 25.944 51.9325 25.7388C52.704 25.5069 53.5136 25.4081 54.3155 25.3967C55.7825 25.3777 57.3673 25.6362 58.4809 26.6699C58.8078 26.974 59.07 27.3084 59.279 27.6695C60.0505 28.5854 60.3622 29.7294 60.3546 30.9456C60.3508 31.2572 60.3242 31.565 60.2938 31.8729C60.252 32.2833 60.214 32.6976 60.1608 33.1081C60.1151 33.4919 60.0695 33.8758 60.0315 34.2558C60.3242 34.4383 60.5484 34.7081 60.6738 35.0274C61.0083 35.32 61.2173 35.7419 61.2173 36.2283C61.2173 36.6578 61.1527 37.0873 61.0387 37.5053C60.9095 37.988 60.6928 38.4365 60.3926 38.8355C60.0543 39.2878 59.6135 39.6336 59.1156 39.8883C58.5531 40.1733 57.9222 40.2797 57.2989 40.2949C56.4134 40.3177 55.5089 40.1467 54.821 39.5462C54.8058 39.5348 54.7944 39.5234 54.7792 39.5082C54.7107 39.5614 54.6423 39.6108 54.5739 39.6603C53.7416 40.2531 52.7534 40.5192 51.7425 40.5914C51.237 40.6256 50.7277 40.6104 50.2261 40.5268C49.6636 40.4318 49.1315 40.2265 48.6678 39.8921C48.6602 39.8883 48.6564 39.8845 48.6488 39.8807C48.6412 39.8959 48.6298 39.9073 48.6184 39.9225C48.094 40.6408 47.235 40.9144 46.3875 41.0095C43.7879 41.3059 41.1921 41.6441 38.5963 42.0052C38.2049 42.0584 37.8248 41.9786 37.5094 41.7886C37.0343 42.1496 36.4414 42.3397 35.8409 42.4347C33.2223 42.8489 30.6037 43.2898 27.9928 43.7497C27.7039 43.7991 27.4113 43.7763 27.149 43.6851C26.8868 43.8865 26.5713 44.0043 26.2331 44.0651C25.9823 44.1107 25.7314 44.1563 25.4806 44.2057C24.9447 44.3083 24.3746 44.354 23.8387 44.2399C23.2915 44.1221 22.7936 43.8599 22.4249 43.4342C22.2767 43.2784 22.1627 43.1036 22.0715 42.9173ZM29.5662 33.0929C29.475 33.5147 29.3838 33.9366 29.2926 34.3585C29.4446 34.1646 29.5966 33.9708 29.7486 33.777C29.8968 33.5907 30.0413 33.4007 30.1857 33.2107C29.9653 33.2107 29.7562 33.1689 29.5662 33.0929ZM39.307 32.0325C39.136 32.2491 38.9536 32.4544 38.7788 32.6634C38.3265 33.1993 37.897 33.7542 37.46 34.3053C37.0457 34.8335 36.6314 35.3618 36.2248 35.8977C36.3198 35.8863 36.411 35.8749 36.506 35.8635C36.8443 35.8217 37.1863 35.8711 37.4942 36.0193C37.7678 35.6469 38.0605 35.2858 38.3531 34.9285C38.965 34.1874 39.5655 33.4387 40.1698 32.6938C40.2344 32.614 40.3028 32.5304 40.3674 32.4506C39.9607 32.4392 39.5845 32.291 39.307 32.0325Z" fill="#860911"/>
<path fill-rule="evenodd" clip-rule="evenodd" d="M26.5675 42.1381C26.5371 42.2028 26.5029 42.2636 26.4611 42.3206C26.2673 42.579 25.9708 42.7006 25.663 42.7576C25.4083 42.8032 25.1575 42.8527 24.9029 42.8983C24.4658 42.9819 23.9793 43.0275 23.5423 42.9363C23.1432 42.8489 22.7821 42.6664 22.5123 42.3586C22.2539 42.0621 22.1208 41.6935 22.06 41.3096C21.9992 40.9144 22.0068 40.5001 22.0448 40.1048C22.0828 39.721 22.1512 39.3333 22.2121 38.9533C22.3185 38.273 22.4629 37.5927 22.6035 36.9238C22.7441 36.2549 22.8886 35.586 23.0368 34.9171C22.7593 35.4834 22.4401 36.0268 22.079 36.5437C21.4709 37.414 20.7374 38.1628 19.8785 38.786C18.9854 39.4359 17.982 39.8502 16.8913 40.044C16.4542 40.12 15.5535 40.1733 14.8542 40.1505C14.6033 41.4084 14.5425 42.6664 14.7515 43.9472C14.8162 44.3539 15.0024 44.6427 14.7933 45.0798C14.6565 45.3724 14.3905 45.5435 14.0826 45.6119C13.486 45.7487 12.8855 45.8817 12.2888 46.0223C11.4717 46.2124 10.5025 46.2504 9.89062 45.5701C9.32813 44.9506 9.30153 43.9966 9.38134 43.2099C9.42315 42.788 9.48396 42.3662 9.55237 41.9481C9.66258 41.2716 9.7956 40.5951 9.94002 39.9224C10.1187 39.0749 10.2973 38.2274 10.4987 37.3836C10.7191 36.4449 10.9434 35.51 11.1866 34.5788C11.4488 33.5717 11.7187 32.5645 11.9961 31.5612C12.1824 30.8885 12.3686 30.2196 12.5548 29.5507C12.2698 29.5051 11.9961 29.4138 11.7529 29.2504C11.255 28.9198 11.0194 28.3991 10.9472 27.8214C10.7609 26.3278 12.2318 25.5259 13.4175 25.0888C14.5995 24.6555 15.9183 24.3553 17.1611 24.1501C18.1226 23.9904 19.1146 23.8726 20.0875 23.8498C22.9608 23.7814 24.5722 24.8228 24.6862 27.848C24.69 27.9658 24.6938 28.0837 24.6938 28.2015C24.7508 28.057 24.8268 27.924 24.9219 27.8252C25.1119 27.6276 25.3627 27.5516 25.6288 27.525C25.0321 27.1069 24.8002 26.3582 24.9675 25.4043C25.1081 24.6137 25.4501 23.903 26.0734 23.3823C26.6739 22.8807 27.3922 22.6564 28.1713 22.6906C28.825 22.7172 29.4787 22.9263 29.8512 23.504C30.1742 24.0056 30.2161 24.5947 30.1172 25.1686C29.9918 25.9135 29.6764 26.5634 29.1329 27.0841C28.8098 27.3957 28.4336 27.6048 28.0307 27.734C28.2892 27.8784 28.502 28.076 28.6578 28.3383C28.8516 28.6613 28.9315 29.0262 28.9391 29.4024C28.9467 29.7673 28.9087 30.1322 28.844 30.4894C28.7756 30.8771 28.6768 31.2685 28.5932 31.6562C28.4412 32.3441 28.293 33.032 28.1447 33.7199C27.9167 34.7993 27.6849 35.8748 27.472 36.958C27.3846 37.3988 27.301 37.8435 27.225 38.2882C27.5785 37.7485 27.9737 37.2278 28.3652 36.7223C29.0113 35.89 29.6574 35.0577 30.3035 34.2292C30.9458 33.4082 31.5653 32.5645 32.1695 31.717C31.3942 31.7778 30.6189 31.8386 29.8436 31.9032C29.3913 31.9412 28.9695 31.698 28.9049 31.2229C28.8821 31.0633 28.9011 30.8885 28.9353 30.7326C29.0151 30.345 29.1025 29.9611 29.1899 29.5735C29.2469 29.3302 29.3115 29.087 29.3989 28.8514C29.4977 28.5815 29.627 28.3269 29.8018 28.0989C29.9994 27.8404 30.2465 27.639 30.5353 27.4832C30.8621 27.3121 31.2308 27.2399 31.5957 27.2209C33.8646 27.1069 36.1335 27.0005 38.4025 26.9017C38.6419 26.8903 38.8623 26.9511 39.0562 27.0917C39.364 27.3121 39.4742 27.6922 39.3982 28.0532C39.3146 28.4637 39.2234 28.8704 39.1474 29.2808C39.0448 29.8281 38.7863 30.3336 38.4709 30.7897C38.2809 31.0633 38.0186 31.3559 37.802 31.6144C37.3459 32.1579 36.9088 32.7203 36.4718 33.2752C35.8675 34.0429 35.2708 34.8145 34.6855 35.5936C34.3473 36.0458 34.0128 36.5019 33.6822 36.9656C34.6513 36.8364 35.6243 36.7071 36.5934 36.5855C36.8214 36.5589 37.0495 36.5969 37.2509 36.7071C37.4219 36.8022 37.5435 36.9428 37.612 37.11C37.6424 37.0606 37.6728 37.0112 37.707 36.9618C38.068 36.4221 38.4861 35.9014 38.9003 35.3997C39.5122 34.6586 40.1165 33.9061 40.7208 33.1612C41.2909 32.4581 41.842 31.736 42.3779 31.0025C41.6025 31.0481 40.8272 31.0975 40.0519 31.1469C39.6339 31.1735 39.2424 30.9721 39.1398 30.5426C39.098 30.3754 39.1018 30.1968 39.1284 30.0295C39.1854 29.6799 39.2538 29.3302 39.3184 28.9806C39.3602 28.7564 39.4134 28.5359 39.4818 28.3193C39.5654 28.0532 39.6909 27.81 39.8581 27.5896C40.0519 27.3349 40.299 27.1449 40.584 27.0081C40.9032 26.8523 41.2681 26.7877 41.6216 26.7763C43.8867 26.6888 46.1518 26.6128 48.4208 26.5444C48.6374 26.5368 48.8578 26.5976 49.0403 26.7154C49.3481 26.9169 49.4811 27.2665 49.4317 27.6238C49.3899 27.9392 49.3405 28.2547 49.2949 28.5701C49.3063 28.5473 49.3177 28.5283 49.3291 28.5055C49.6065 28.0038 49.9904 27.5858 50.4503 27.2475C50.9557 26.8751 51.5334 26.6204 52.1301 26.4418C52.8332 26.229 53.5819 26.1378 54.3192 26.1302C55.5924 26.115 57.0252 26.3126 57.9944 27.2133C58.8837 28.0418 59.2144 29.1554 59.2068 30.3488C59.203 30.6338 59.1764 30.9265 59.1498 31.2115C59.108 31.6182 59.07 32.0286 59.0205 32.4353C58.9711 32.8306 58.9293 33.2258 58.8875 33.6211C58.8647 33.8529 58.8343 34.1113 58.8305 34.3432C58.8305 34.4002 58.8343 34.5332 58.8533 34.5978C58.8837 34.6282 58.9179 34.651 58.9559 34.6662C59.0662 34.7004 59.184 34.7384 59.298 34.7574C59.7465 34.8411 60.0695 35.1831 60.0695 35.6468C60.0695 36.0154 60.0125 36.3841 59.9175 36.7375C59.8111 37.1328 59.6324 37.5015 59.3892 37.8283C59.1194 38.1932 58.7621 38.4668 58.3592 38.672C57.8918 38.9077 57.3597 38.9913 56.839 39.0065C56.1359 39.0255 55.391 38.9077 54.8437 38.4326C54.6765 38.2882 54.5359 38.1247 54.4143 37.9499C54.1938 38.1476 53.962 38.3338 53.7226 38.5048C52.9966 39.0217 52.1301 39.2459 51.2522 39.3067C50.7999 39.3371 50.3477 39.3219 49.8992 39.2497C49.4431 39.1737 49.0137 39.0065 48.6374 38.7366C48.3866 38.558 48.1775 38.3338 48.0103 38.0791C47.9267 38.3794 47.7975 38.6606 47.6112 38.9191C47.2122 39.4625 46.5053 39.6488 45.8706 39.7248C43.2634 40.0212 40.6638 40.3595 38.0642 40.7205C37.6082 40.7851 37.2205 40.5457 37.0837 40.1543C37.0647 40.1847 37.0457 40.2113 37.0267 40.2417C36.639 40.8156 35.9473 41.0512 35.2936 41.1538C32.6674 41.5681 30.0488 42.0089 27.4302 42.4726C27.0654 42.4992 26.7575 42.3738 26.5675 42.1381ZM48.892 29.7977C48.8198 29.9269 48.74 30.0523 48.6564 30.174C48.4816 30.4286 48.2421 30.6984 48.0407 30.9341C47.615 31.432 47.1932 31.9374 46.7789 32.4467C46.2164 33.1384 45.6578 33.8377 45.1105 34.5408C44.814 34.9209 44.5252 35.3009 44.2363 35.6886C45.2055 35.5936 46.1784 35.5024 47.1514 35.4149C47.2958 35.4035 47.4402 35.4149 47.577 35.4568C47.7937 34.1874 48.5386 33.1802 49.6483 32.4353C49.8232 32.3175 50.0094 32.2073 50.1956 32.1085C49.8346 31.9868 49.5077 31.7854 49.2607 31.4662C48.9376 31.0481 48.8388 30.535 48.8692 30.0181C48.8768 29.9421 48.8806 29.8699 48.892 29.7977ZM54.3496 31.0253C54.3534 30.9873 54.3534 30.9493 54.3534 30.9075C54.361 30.7174 54.3458 30.4666 54.2508 30.2918C54.1634 30.25 53.9354 30.2462 53.8556 30.2462C53.7302 30.25 53.5705 30.2652 53.4565 30.3184C53.3805 30.3564 53.3159 30.4058 53.2627 30.4704C53.1829 30.5692 53.1297 30.6946 53.0841 30.8087C53.0347 30.9379 52.9928 31.0709 52.9548 31.2039C53.4261 31.1241 53.8936 31.0633 54.3496 31.0253ZM16.0399 34.7802C16.1121 34.7802 16.1844 34.7802 16.2604 34.7802C16.4086 34.7802 16.5606 34.7726 16.705 34.7498C17.0395 34.7042 17.3131 34.5636 17.5526 34.328C17.8604 34.0239 18.1112 33.6743 18.3127 33.2942C18.5331 32.8838 18.7079 32.4543 18.8448 32.0096C18.9246 31.7474 19.0044 31.4852 19.0804 31.2229C19.1678 30.9303 19.2704 30.6072 19.3274 30.3108C19.3768 30.0485 19.5251 29.1668 19.2628 28.9578C18.9854 28.7373 18.0846 28.8856 17.4956 29.0072C17.2333 30.0067 16.9445 30.9987 16.7012 32.0058C16.477 32.9256 16.2604 33.8529 16.0399 34.7802ZM53.8404 34.1646C53.5819 34.2178 53.3197 34.2938 53.0803 34.4078C52.9206 34.4838 52.7648 34.5864 52.647 34.7232C52.5748 34.8069 52.5444 34.8981 52.5406 35.0045C52.5406 35.0121 52.5406 35.0197 52.5406 35.0311C52.6014 35.0539 52.666 35.0577 52.7382 35.0539C52.8788 35.0463 53.0195 34.9969 53.1449 34.9361C53.2931 34.8677 53.4223 34.7726 53.5287 34.651C53.6503 34.5066 53.753 34.3356 53.8404 34.1646Z" fill="#EA3C27"/>
<path fill-rule="evenodd" clip-rule="evenodd" d="M25.6593 25.5144C25.7809 24.8227 26.0698 24.2868 26.522 23.9106C26.9743 23.5305 27.514 23.3557 28.1411 23.3823C28.6883 23.4051 29.0646 23.5723 29.2622 23.8725C29.4561 24.169 29.5093 24.5566 29.4257 25.0393C29.323 25.6512 29.0722 26.1567 28.6465 26.5633C28.2209 26.97 27.6584 27.1714 26.9667 27.1714C25.9025 27.1676 25.4655 26.6166 25.6593 25.5144ZM12.1331 45.3267C11.3236 45.5168 10.7421 45.4484 10.4152 45.0911C10.0998 44.7453 9.99716 44.1258 10.0846 43.2744C10.1112 43.0198 10.1606 42.6169 10.2518 42.0583C10.343 41.4996 10.4684 40.8345 10.6319 40.063C10.7953 39.2952 10.9739 38.4477 11.1867 37.5432C11.3996 36.631 11.6238 35.6999 11.8708 34.7536C12.1749 33.5868 12.4485 32.5796 12.6766 31.7435C12.9084 30.9074 13.1098 30.1891 13.277 29.5886C13.3493 29.334 13.4139 29.0983 13.4747 28.8779C12.5777 28.9235 11.7834 28.8285 11.6466 27.7263C11.563 27.0384 12.0191 26.3429 13.6609 25.7424C15.3408 25.1267 18.0582 24.5947 20.1029 24.5452C22.5846 24.4844 23.8806 25.2331 23.9794 27.8669C24.006 28.5967 23.93 29.4366 23.7552 30.3905C23.5652 31.4319 23.2801 32.439 22.9077 33.4272C22.5352 34.4191 22.0678 35.3199 21.4977 36.1332C20.9238 36.9503 20.2473 37.6344 19.4606 38.2083C18.6701 38.786 17.7731 39.166 16.766 39.3409C16.1617 39.4473 14.6947 39.4739 14.2956 39.3789C13.7901 41.4464 13.8737 42.9704 14.0524 44.0498C14.1208 44.483 14.3526 44.8175 13.9269 44.9163C13.6001 44.9923 12.4637 45.2507 12.1331 45.3267ZM16.9218 28.4066C16.7166 29.2047 16.2871 30.6984 16.0135 31.8347C15.7398 32.9749 15.4624 34.1721 15.1583 35.4301C15.3484 35.4795 16.0705 35.4833 16.2605 35.4833C16.4543 35.4833 16.6406 35.4681 16.804 35.4453C17.2866 35.3769 17.7009 35.1716 18.0506 34.8258C18.3926 34.4837 18.6929 34.0809 18.9361 33.621C19.1831 33.1611 19.3732 32.6937 19.5176 32.211C19.6658 31.7283 19.9508 30.7858 20.0193 30.4399C20.5437 27.7605 18.9513 27.9544 16.9218 28.4066ZM54.7678 33.355C54.4144 33.3664 54.0571 33.4006 53.7075 33.469C53.3654 33.5374 53.05 33.6362 52.7763 33.7654C52.5027 33.8946 52.2823 34.0581 52.1112 34.2595C51.9402 34.4571 51.8452 34.6966 51.8338 34.9702C51.8224 35.2818 51.9212 35.4985 52.1188 35.6087C52.3165 35.7189 52.5331 35.7683 52.7687 35.7531C52.9968 35.7417 53.221 35.6733 53.4414 35.5707C53.6657 35.4643 53.8747 35.3123 54.0533 35.1108C54.232 34.9056 54.384 34.6624 54.517 34.3735C54.65 34.0885 54.7336 33.7464 54.7678 33.355ZM48.2195 36.061C48.2765 34.8068 48.8884 33.7882 50.0399 33.0167C51.1839 32.2528 52.8409 31.8081 54.9997 31.6827C55.0187 31.5345 55.0301 31.4091 55.0377 31.3065C55.0491 31.2038 55.0567 31.0784 55.0643 30.9302C55.0795 30.4969 54.9997 30.1549 54.8476 29.9002C54.6956 29.6456 54.3574 29.524 53.8443 29.5392C53.5631 29.5468 53.335 29.5924 53.1526 29.6836C52.974 29.771 52.8295 29.8888 52.7117 30.0333C52.5939 30.1815 52.5027 30.3601 52.4267 30.5653C52.3507 30.7706 52.2785 31.0024 52.2139 31.2494C52.1796 31.3749 52.1112 31.4547 52.0162 31.4927C51.9174 31.5307 51.773 31.5535 51.5678 31.5611C50.1768 31.6219 49.5078 31.1278 49.5763 30.0561C49.6029 29.6266 49.7283 29.2123 49.9449 28.8171C50.1615 28.4256 50.4694 28.076 50.8685 27.7833C51.2675 27.4907 51.7502 27.2627 52.3355 27.084C52.9132 26.9092 53.5821 26.8104 54.327 26.8028C55.8016 26.7838 56.8543 27.0878 57.5156 27.6997C58.1769 28.3154 58.5114 29.1819 58.5038 30.3107C58.5038 30.4589 58.4886 30.7212 58.4506 31.105C58.4126 31.4889 58.3746 31.8917 58.3214 32.3136C58.2682 32.7355 58.2263 33.1383 58.1883 33.5146C58.1503 33.8908 58.1313 34.1493 58.1275 34.2975C58.1237 34.6319 58.1883 34.8714 58.3138 35.012C58.4392 35.1488 58.5798 35.2438 58.7432 35.2971C58.9028 35.3465 59.0435 35.3883 59.1727 35.4111C59.3019 35.4339 59.3665 35.5023 59.3665 35.6087C59.3665 35.9013 59.3209 36.2054 59.2373 36.517C59.1537 36.8287 59.0169 37.1137 58.823 37.3722C58.6292 37.6306 58.3708 37.8396 58.0401 38.0069C57.7095 38.1741 57.299 38.2539 56.8201 38.2653C56.1474 38.2805 55.642 38.1589 55.3075 37.8662C54.9693 37.5698 54.745 37.1479 54.6462 36.5968C54.3042 37.0833 53.8519 37.509 53.3122 37.8928C52.7687 38.2805 52.0694 38.5047 51.1991 38.5655C50.781 38.5959 50.3858 38.5769 50.0095 38.5161C49.6409 38.4553 49.3178 38.3223 49.0442 38.1247C48.7743 37.9308 48.5615 37.661 48.4133 37.319C48.2613 36.9845 48.1967 36.5626 48.2195 36.061ZM37.9579 39.9869C40.5689 39.6221 43.1761 39.2838 45.7833 38.9874C46.4142 38.9152 46.8322 38.748 47.0375 38.4667C47.2427 38.1855 47.3681 37.8358 47.4061 37.414C47.4403 37.0681 47.4897 36.7185 47.5278 36.3764C47.543 36.2586 47.505 36.1902 47.4403 36.1522C47.3757 36.1142 47.2959 36.1028 47.2123 36.1104C45.7187 36.2434 44.2327 36.384 42.7428 36.5398C43.3357 35.7037 43.94 34.8866 44.5519 34.0999C45.1676 33.3132 45.7263 32.6139 46.228 31.9982C46.7296 31.3787 47.1553 30.877 47.5012 30.4741C47.8356 30.0827 48.0256 29.8432 48.075 29.7748C48.3563 29.3682 48.5235 28.9919 48.5691 28.6423C48.6185 28.2622 48.6831 27.8821 48.7325 27.5059C48.7477 27.3957 48.7173 27.3197 48.6527 27.2779C48.5919 27.2398 48.5197 27.217 48.4399 27.2208C46.1748 27.2931 43.9058 27.3653 41.6483 27.4527C41.3442 27.4641 41.0896 27.5173 40.892 27.6123C40.6943 27.7073 40.5347 27.8327 40.4169 27.9886C40.2991 28.1444 40.2079 28.3154 40.1509 28.5054C40.09 28.6955 40.0444 28.8855 40.0064 29.0831C39.9418 29.429 39.8772 29.7748 39.8202 30.1207C39.8012 30.2271 39.8088 30.3031 39.8202 30.3563C39.8316 30.4057 39.8924 30.4285 40.0026 30.4209C41.2758 30.3411 42.5414 30.2613 43.807 30.1891C42.8417 31.5649 41.9865 32.6975 41.2682 33.5868C40.5423 34.4799 39.938 35.2286 39.444 35.8329C38.9499 36.4334 38.566 36.9313 38.2962 37.338C38.0263 37.7446 37.8743 38.1513 37.8325 38.5617C37.7907 38.9722 37.7489 39.3789 37.7299 39.7855C37.7147 39.9413 37.8021 40.0098 37.9579 39.9869ZM27.3011 41.7428C27.1491 41.7694 27.0655 41.6972 27.0731 41.5148C27.0959 41.0701 27.1453 40.6216 27.1947 40.1732C27.2479 39.7209 27.419 39.2686 27.704 38.8202C27.989 38.3717 28.3957 37.8092 28.9164 37.1365C29.4371 36.4676 30.0794 35.6391 30.8547 34.6472C31.6262 33.6628 32.5421 32.4048 33.6025 30.8808C32.3293 30.9758 31.0561 31.0784 29.7829 31.181C29.6727 31.1886 29.6081 31.1696 29.6005 31.1088C29.5929 31.0556 29.5967 30.9682 29.6195 30.8542C29.6993 30.4741 29.7829 30.0903 29.8703 29.7102C29.9197 29.4898 29.9767 29.2808 30.0527 29.0755C30.1288 28.8627 30.2238 28.6765 30.353 28.5054C30.486 28.3306 30.6532 28.1938 30.8547 28.0874C31.0561 27.981 31.3145 27.9201 31.6186 27.9049C33.8875 27.7909 36.1527 27.6845 38.4216 27.5857C38.5052 27.5819 38.5698 27.6009 38.6344 27.6427C38.6914 27.6845 38.7218 27.7681 38.699 27.8897C38.6154 28.304 38.5242 28.7145 38.4482 29.1249C38.376 29.505 38.1936 29.9154 37.8857 30.3601C37.8287 30.4399 37.6235 30.6946 37.2548 31.1316C36.89 31.5687 36.4415 32.1312 35.9094 32.8115C35.3697 33.4994 34.7655 34.2785 34.1156 35.145C33.4581 36.0192 32.812 36.9237 32.1849 37.8548C33.6785 37.6496 35.1759 37.4482 36.6733 37.2619C36.7569 37.2505 36.8368 37.2657 36.9014 37.2999C36.966 37.3342 36.9926 37.4178 36.9736 37.5356C36.9242 37.9118 36.8596 38.2881 36.814 38.6644C36.7646 39.1166 36.6353 39.4967 36.4225 39.8121C36.2135 40.12 35.7992 40.3214 35.1645 40.4202C32.5497 40.8383 29.9197 41.2791 27.3011 41.7428ZM24.77 42.2027C25.0208 42.1533 25.2716 42.1077 25.5339 42.0583C25.7163 42.0241 25.8379 41.9708 25.8949 41.8948C25.9519 41.8188 25.9823 41.6782 26.0089 41.4806C26.2484 39.6563 26.5258 38.0981 26.7805 36.8021C27.0351 35.5023 27.2707 34.4229 27.457 33.5526C27.6432 32.6785 27.7914 31.9906 27.9054 31.4813C28.0194 30.972 28.1069 30.5995 28.1525 30.3449C28.2171 29.9915 28.2399 29.676 28.2361 29.3948C28.2323 29.1135 28.1715 28.8741 28.0537 28.6803C27.9396 28.4864 27.7572 28.3458 27.5254 28.2584C27.2859 28.1672 26.9629 28.1368 26.5448 28.1634C26.2826 28.1786 26.0279 28.1938 25.7657 28.209C25.5947 28.2166 25.4845 28.247 25.4313 28.304C25.3629 28.3762 25.2906 28.6043 25.1956 28.9881C24.713 30.9074 24.3139 32.5188 24.0098 33.8262C23.7096 35.126 23.4816 36.2092 23.2991 37.0643C23.1205 37.9118 22.9913 38.5807 22.9153 39.0596C22.8393 39.5385 22.7785 39.9071 22.7519 40.1694C22.7139 40.5684 22.7177 40.9105 22.7633 41.1993C22.8089 41.4882 22.9001 41.7238 23.0483 41.8948C23.2079 42.0773 23.4284 42.1875 23.6944 42.2483C23.9642 42.3015 24.3329 42.2863 24.77 42.2027Z" fill="#FED705"/>
<path fill-rule="evenodd" clip-rule="evenodd" d="M13.8203 44.5784C13.8127 44.5442 13.8013 44.5062 13.7975 44.4834C13.7633 44.358 13.7291 44.2326 13.7101 44.1034C13.4478 42.4767 13.5694 40.8881 13.9609 39.2919L14.0445 38.9536L14.3866 39.0334C14.5196 39.0638 14.7172 39.0714 14.854 39.0752C15.1087 39.0828 15.3633 39.0828 15.6142 39.0752C15.9676 39.0638 16.3667 39.0524 16.7125 38.9916C17.6437 38.8282 18.495 38.4785 19.2589 37.9198C20.0228 37.365 20.6727 36.6999 21.2162 35.9283C21.7141 35.2176 22.1207 34.4499 22.4476 33.648C21.5012 33.3706 20.5397 33.1843 19.5857 33.0703C19.4831 33.3136 19.3729 33.5568 19.2475 33.7886C18.9929 34.2637 18.6812 34.7008 18.2974 35.077C17.8945 35.4761 17.4118 35.7193 16.8493 35.7953C16.6555 35.8219 16.4541 35.8333 16.2603 35.8333C16.074 35.8333 15.884 35.8295 15.6978 35.8257C15.5115 35.8219 15.2493 35.8181 15.0707 35.7725L14.7324 35.6851L14.8122 35.3469C15.0023 34.5639 15.1847 33.7772 15.3709 32.9905C14.398 33.0627 13.4668 33.1843 12.6041 33.3364C12.4711 33.8342 12.3381 34.3359 12.2088 34.8376C11.9694 35.7611 11.7452 36.6885 11.5285 37.6196C11.3309 38.4557 11.1523 39.2918 10.9775 40.1318C10.8406 40.7893 10.7076 41.4506 10.6012 42.1119C10.5366 42.5071 10.4758 42.9062 10.4378 43.3052C10.396 43.7385 10.3656 44.5024 10.681 44.8521C10.9851 45.1865 11.673 45.0725 12.0568 44.9813C12.6421 44.8483 13.2312 44.7153 13.8203 44.5784ZM59.0052 35.7421C58.8798 35.7155 58.7544 35.6775 58.6328 35.6357C58.4047 35.5635 58.2109 35.4305 58.0513 35.2518C57.8195 34.9972 57.77 34.6286 57.7738 34.2979C57.7776 34.0319 57.8081 33.7468 57.8347 33.4846C57.8575 33.2604 57.8803 33.0361 57.9069 32.8081C57.6446 32.7701 57.371 32.7321 57.0859 32.6865C55.7557 32.4698 54.494 32.3178 53.3006 32.219C52.206 32.4014 51.1039 32.7283 50.2373 33.3098C49.2454 33.9749 48.6259 34.868 48.5727 36.0766C48.5575 36.4414 48.5841 36.8443 48.7361 37.1825C48.8501 37.441 49.0173 37.6766 49.2492 37.8438C49.4924 38.0187 49.7699 38.1213 50.0663 38.1707C50.4312 38.2315 50.8036 38.2429 51.1723 38.2163C51.8488 38.1707 52.5443 38.0073 53.103 37.6082C53.5742 37.2699 54.0151 36.8747 54.3495 36.3958L54.8398 35.7003L54.988 36.5364C55.0602 36.9393 55.2199 37.327 55.5353 37.6006C55.8622 37.8856 56.398 37.9236 56.8085 37.916C57.162 37.9084 57.5572 37.859 57.8765 37.6956C58.1349 37.5664 58.3629 37.3954 58.5378 37.1635C58.705 36.9431 58.8228 36.6961 58.895 36.43C58.9558 36.2058 58.9938 35.974 59.0052 35.7421ZM55.1211 33.3858C55.0868 33.7772 55.0032 34.1687 54.8398 34.5259C54.703 34.8186 54.5358 35.1036 54.3229 35.3469C54.1215 35.5787 53.8745 35.7611 53.597 35.8941C53.3462 36.0158 53.0725 36.0956 52.7951 36.1108C52.4987 36.126 52.2136 36.0652 51.9514 35.9207C51.5979 35.7231 51.4687 35.3507 51.4839 34.9592C51.4991 34.6134 51.6169 34.2941 51.845 34.0319C52.0616 33.781 52.3314 33.591 52.6279 33.4504C52.9471 33.2984 53.2968 33.1957 53.6426 33.1235C54.0113 33.0513 54.3837 33.0133 54.76 33.0019L55.1553 32.9905L55.1211 33.3858ZM38.0869 39.6149C40.6333 39.2614 43.1835 38.9308 45.7412 38.6382C46.0301 38.6039 46.5622 38.5165 46.7484 38.2619C46.9346 38.0073 47.022 37.6956 47.0524 37.384C47.0828 37.0799 47.1247 36.7759 47.1589 36.4718C45.6956 36.601 44.2362 36.7417 42.7768 36.8937L42.0015 36.9735L42.45 36.3388C43.039 35.5065 43.6433 34.6894 44.2704 33.8874C44.6809 33.363 45.0914 32.8461 45.5094 32.3292C44.3236 32.4698 43.2481 32.6599 42.2713 32.8765C42.0281 33.1881 41.7849 33.4998 41.5378 33.8076C40.9297 34.5563 40.3254 35.3089 39.7098 36.0538C39.3183 36.5288 38.923 37.0191 38.581 37.5322C38.3681 37.8514 38.2161 38.2087 38.1743 38.5963C38.1439 38.9308 38.1097 39.2728 38.0869 39.6149ZM36.6123 37.6272C35.1529 37.8096 33.6935 38.0073 32.2378 38.2049L31.4587 38.3113L31.8996 37.6576C32.4545 36.8367 33.0246 36.0272 33.6136 35.2328C32.7471 35.3355 31.8046 35.3773 30.767 35.3317C30.2425 36.0044 29.7219 36.6771 29.1974 37.3498C28.7831 37.8818 28.3651 38.4329 28.004 39.003C27.7722 39.3679 27.5973 39.7745 27.5479 40.2078C27.5023 40.5878 27.4643 40.9717 27.4377 41.3556C29.9955 40.9071 32.5571 40.4738 35.1225 40.071C35.4455 40.0216 35.9472 39.9037 36.1448 39.6111C36.3424 39.3185 36.4375 38.9726 36.4755 38.623C36.5097 38.2923 36.5667 37.9617 36.6123 37.6272ZM25.6134 41.6748C25.6363 41.6102 25.6515 41.4886 25.6591 41.4354C25.8681 39.8619 26.1265 38.2961 26.4306 36.7379C26.556 36.0994 26.689 35.4609 26.822 34.8262C26.0239 34.6628 25.1764 34.4575 24.2794 34.2029C24.0552 35.1796 23.8462 36.1564 23.6372 37.1369C23.5003 37.7906 23.3597 38.4557 23.2571 39.117C23.2001 39.4743 23.1317 39.8467 23.0975 40.204C23.0671 40.5118 23.0595 40.8387 23.1051 41.1465C23.1317 41.3252 23.1887 41.5266 23.3103 41.6634C23.4281 41.7964 23.5953 41.8648 23.7664 41.9028C24.0514 41.9636 24.4239 41.9142 24.7051 41.861C24.9597 41.8116 25.2182 41.7622 25.4728 41.7166C25.5032 41.709 25.5754 41.6938 25.6134 41.6748Z" fill="#FFE863"/>
<path fill-rule="evenodd" clip-rule="evenodd" d="M12.5432 20.6537C12.5622 20.6384 12.5812 20.627 12.6002 20.6118C13.0867 20.2584 13.6416 20.038 14.2497 20.038C14.5955 20.038 14.9262 20.1216 15.2378 20.2698C15.4279 20.3648 15.6065 20.4788 15.7661 20.6156C15.7661 20.6118 15.7699 20.608 15.7699 20.6042C15.8041 20.4788 15.8345 20.3534 15.8687 20.2242L15.9067 20.0836H16.0511C16.1804 20.0836 16.3134 20.0836 16.4426 20.0836C16.4806 20.0836 16.5148 20.0836 16.5528 20.0836C16.6896 19.5591 16.8265 19.0384 16.9633 18.5139C16.9975 18.3885 17.0279 18.2631 17.0621 18.1339L17.1001 17.9933H17.2445C17.3737 17.9933 17.5068 17.9933 17.636 17.9933C18.1035 17.9933 18.5671 17.9933 19.0346 17.9933C19.2512 17.9933 19.4717 17.9933 19.6883 17.9933H19.9315L19.8707 18.2289C19.8175 18.4417 19.7605 18.6508 19.7073 18.8636C19.6009 19.2702 19.4983 19.6769 19.3918 20.0836C19.6123 20.0836 19.8289 20.0836 20.0493 20.0836H20.2964L20.2318 20.3192C20.1748 20.532 20.114 20.7449 20.0569 20.9577C19.9619 21.3073 19.8669 21.657 19.7719 22.0067C19.7377 22.1321 19.7035 22.2537 19.6693 22.3791L19.6313 22.5159H19.4869C19.3576 22.5159 19.2284 22.5159 19.0992 22.5159C18.9852 22.5159 18.8712 22.5159 18.7572 22.5159C18.6431 22.9606 18.5291 23.4015 18.4113 23.8461C18.7724 23.8461 19.1372 23.8461 19.4983 23.8461C19.7187 23.8461 19.9391 23.8461 20.1634 23.8461H20.4104L20.3458 24.0856C20.2888 24.2984 20.228 24.5112 20.171 24.7241C20.0759 25.0737 19.9809 25.4234 19.8859 25.773C19.8517 25.8984 19.8175 26.0201 19.7833 26.1455L19.7453 26.2823H19.6009C19.4717 26.2823 19.3424 26.2823 19.2132 26.2823C18.5519 26.2823 17.8944 26.2823 17.2331 26.2823C16.9253 26.2823 16.6136 26.2861 16.3096 26.2481C15.9713 26.2063 15.6597 26.0923 15.4545 25.8034C15.3975 25.7198 15.3518 25.6324 15.3252 25.5412C15.2226 25.6362 15.1124 25.7274 14.9984 25.811C14.5119 26.1645 13.957 26.3849 13.3489 26.3849C13.0069 26.3849 12.6724 26.3127 12.3608 26.1607C11.9123 25.944 11.5779 25.621 11.3536 25.2143C11.3042 25.3968 11.2586 25.5792 11.2092 25.7616C11.175 25.887 11.1446 26.0125 11.1104 26.1417L11.0724 26.2823H10.928C10.7988 26.2823 10.6657 26.2823 10.5365 26.2823C10.0082 26.2823 9.48377 26.2823 8.95549 26.2823H8.76926C8.70085 26.2823 8.63244 26.2823 8.56783 26.2823H8.3816C7.64049 26.2823 6.90318 26.2823 6.16207 26.2823C5.94164 26.2823 5.72501 26.2823 5.50457 26.2823H5.26134L5.32215 26.0467C5.37535 25.8338 5.43236 25.6248 5.48937 25.412C5.83522 24.0818 6.18488 22.7402 6.53453 21.3986C6.20768 21.2275 5.99485 20.9387 5.85423 20.589C5.85423 20.5852 5.85043 20.5852 5.85043 20.5814C5.35255 20.4712 4.96109 20.1976 4.60384 19.8289C4.47462 19.6959 4.3188 19.5857 4.12117 19.6047C3.86273 19.6275 3.56248 19.8745 3.35725 20.0228L3 20.2812L3.06081 19.8403C3.23183 18.6394 3.92354 17.2483 5.31074 17.2179C6.01765 17.2027 6.63714 17.6132 7.19203 18.0085C7.19583 18.0123 7.19963 18.0161 7.20723 18.0161C7.25664 18.0161 7.34785 17.921 7.37445 17.8906C7.43526 17.8222 7.49227 17.7348 7.53408 17.6512C7.57968 17.5562 7.62909 17.465 7.6747 17.37L7.72791 17.2673H7.84572C7.94834 17.2673 8.05475 17.2673 8.15737 17.2673C8.69325 17.2673 9.22913 17.2673 9.76501 17.2673H9.95124C10.012 17.2673 10.0691 17.2673 10.1299 17.2673H10.3161C11.0534 17.2673 11.7907 17.2673 12.5318 17.2673C12.7523 17.2673 12.9689 17.2673 13.1893 17.2673H13.4326L13.3717 17.503C13.3147 17.7158 13.2615 17.9248 13.2045 18.1377C12.9841 18.9738 12.7637 19.8137 12.5432 20.6537Z" fill="#860911"/>
<path fill-rule="evenodd" clip-rule="evenodd" d="M8.15336 17.959C8.65504 17.959 9.16051 17.959 9.66219 17.959C9.41515 18.894 9.0541 20.2622 8.80706 21.1971C9.26313 21.1971 9.72299 21.1971 10.1791 21.1971C10.4223 20.2622 10.7796 18.894 11.0266 17.959C11.5283 17.959 12.0299 17.959 12.5316 17.959C11.8665 20.5054 11.2014 23.0518 10.5363 25.5944C10.0346 25.5944 9.53297 25.5944 9.03129 25.5944C9.36194 24.3364 9.57857 23.5041 9.90542 22.2461C9.44935 22.2461 8.98949 22.2461 8.53342 22.2461C8.21037 23.5041 7.99754 24.3364 7.67069 25.5944C7.16521 25.5944 6.65974 25.5944 6.15426 25.5944C6.56472 24.0171 6.97518 22.4399 7.38565 20.8665C7.00939 20.8855 6.69774 20.8285 6.49251 20.323C6.76615 20.4522 7.0512 20.475 7.27163 20.4104C7.68969 20.2888 7.97473 19.7643 6.92578 19.9011C6.23787 19.9923 5.7248 19.9847 5.1015 19.3386C5.69059 19.3386 6.34809 19.4185 5.48916 18.7382C5.0977 18.4265 4.59223 18.5519 4.01074 19.0194C4.91148 17.3471 5.83121 17.8906 6.78516 18.5709C7.23362 18.894 7.81511 18.6355 8.15336 17.959ZM17.2291 25.5982C17.6776 25.5982 18.7607 25.5982 19.2092 25.5982C19.3042 25.2485 19.3992 24.8989 19.4943 24.5492C19.1902 24.5492 18.4529 24.5492 18.1527 24.5492C17.6206 24.5492 17.48 24.6404 17.613 24.1388C17.8182 23.3748 18.012 22.5995 18.2135 21.8318C18.5061 21.8318 18.7987 21.8318 19.0914 21.8318C19.1864 21.4822 19.2814 21.1325 19.3764 20.7829C19.08 20.7829 18.7835 20.7829 18.4871 20.7829C18.6657 20.0874 18.8444 19.3919 19.0268 18.6963C18.5593 18.6963 18.0956 18.6963 17.6282 18.6963C17.4457 19.3919 17.2633 20.0874 17.0847 20.7829C16.8681 20.7829 16.6552 20.7829 16.4386 20.7829C16.3474 21.1325 16.2562 21.4822 16.165 21.8318C16.3816 21.8318 16.5982 21.8318 16.8149 21.8318C16.5944 22.6793 16.469 23.1582 16.2486 24.0057C15.8419 25.545 15.6595 25.5982 17.2291 25.5982ZM12.6608 25.545C12.8699 25.6476 13.0979 25.697 13.3411 25.697C13.763 25.697 14.1773 25.5488 14.5839 25.2523C14.9906 24.9559 15.3098 24.5606 15.5531 24.0665C15.7735 23.6105 15.8875 23.1468 15.8875 22.6717C15.8875 21.79 15.5645 21.2009 14.9298 20.8893C14.7169 20.7867 14.4927 20.7258 14.2495 20.7258C13.8276 20.7258 13.4133 20.8741 13.0067 21.1705C12.6 21.467 12.2808 21.8622 12.0375 22.3563C11.8171 22.8124 11.7031 23.276 11.7031 23.7511C11.7031 24.6366 12.0223 25.2333 12.6608 25.545ZM14.2609 21.828C14.5193 21.828 14.6485 22.056 14.6485 22.5121C14.6485 22.8238 14.5801 23.1468 14.4395 23.4851C14.2989 23.8195 14.1355 24.0856 13.9454 24.2756C13.7554 24.4656 13.5806 24.5606 13.4247 24.5606C13.1663 24.5606 13.0371 24.3364 13.0371 23.8879C13.0371 23.5763 13.1093 23.2456 13.2499 22.8998C13.3867 22.5729 13.5502 22.3145 13.7402 22.1207C13.9302 21.9268 14.105 21.828 14.2609 21.828Z" fill="white"/>
<path fill-rule="evenodd" clip-rule="evenodd" d="M9.41902 18.1491C9.03516 18.1491 8.65131 18.1491 8.26745 18.1491C8.14963 18.3544 7.99761 18.5444 7.80758 18.685C7.61375 18.8294 7.38192 18.913 7.13868 18.8978C6.97146 18.8864 6.81563 18.8256 6.67881 18.7268C6.31776 18.4684 5.79328 18.0921 5.33341 18.1035C5.06357 18.1111 4.83554 18.2517 4.64551 18.4418C4.96476 18.3392 5.30301 18.3506 5.60705 18.5938C5.73627 18.6964 5.88449 18.818 5.98711 18.9511C6.07072 19.0575 6.13153 19.1943 6.06692 19.3311C5.99471 19.4831 5.80848 19.5173 5.65646 19.5287C5.64126 19.5287 5.62605 19.5325 5.61085 19.5325C5.99091 19.7834 6.35576 19.791 6.90304 19.7226C7.09307 19.696 7.32491 19.6808 7.51114 19.7264C7.65936 19.7644 7.79998 19.848 7.83418 20.0114C7.86459 20.1558 7.78858 20.2965 7.68596 20.3953C7.58715 20.4903 7.45793 20.5625 7.32871 20.6005C7.21849 20.6309 7.10447 20.6461 6.98666 20.6423C7.08927 20.6879 7.21849 20.6955 7.38192 20.6879L7.63655 20.6765L7.57194 20.9235C7.18049 22.421 6.78903 23.9184 6.40137 25.4158C6.77763 25.4158 7.15388 25.4158 7.52634 25.4158C7.80378 24.3479 8.07742 23.2761 8.35106 22.2081L8.38907 22.0675H8.53349C8.98956 22.0675 9.44942 22.0675 9.90549 22.0675H10.1487L10.0879 22.3032C9.81808 23.3407 9.54444 24.3783 9.2746 25.4158C9.64705 25.4158 10.0195 25.4158 10.392 25.4158C11.0229 22.9949 11.6576 20.5739 12.2884 18.1567C11.916 18.1567 11.5435 18.1567 11.1711 18.1567C10.9012 19.1905 10.6314 20.2204 10.3616 21.2542L10.3236 21.3948H10.1791C9.72307 21.3948 9.2632 21.3948 8.80713 21.3948H8.56389L8.6247 21.1592C8.89074 20.1482 9.15298 19.1487 9.41902 18.1491ZM19.1371 20.9692C18.9204 20.9692 18.7076 20.9692 18.491 20.9692H18.2477L18.3085 20.7335C18.4682 20.1178 18.6278 19.4983 18.7874 18.8826C18.4492 18.8826 18.1147 18.8826 17.7765 18.8826C17.6054 19.5325 17.4382 20.1786 17.2672 20.8285L17.2292 20.9692H17.0848C16.9175 20.9692 16.7503 20.9692 16.5831 20.9692C16.5261 21.1934 16.4653 21.4176 16.4083 21.6419C16.5413 21.6419 16.6781 21.6419 16.8111 21.6419H17.0544L16.9936 21.8775C16.8035 22.6034 16.6135 23.3255 16.4273 24.0514C16.3817 24.23 16.3323 24.4087 16.2828 24.5911C16.2486 24.7203 16.2106 24.8495 16.184 24.9826C16.1726 25.0472 16.1308 25.2486 16.1726 25.3056C16.26 25.431 17.0924 25.412 17.233 25.412C17.8449 25.412 18.4568 25.412 19.0725 25.412C19.1333 25.1878 19.1941 24.9635 19.2549 24.7393C18.89 24.7393 18.5252 24.7393 18.1565 24.7393C18.0349 24.7393 17.9095 24.7469 17.7879 24.7469C17.6701 24.7469 17.5522 24.7279 17.4686 24.6405C17.3318 24.4961 17.3926 24.2642 17.4382 24.0932C17.6434 23.3255 17.8373 22.5578 18.0387 21.7863L18.0767 21.6457H18.2211C18.4644 21.6457 18.7114 21.6457 18.9584 21.6457C19.0155 21.4176 19.0763 21.1934 19.1371 20.9692ZM12.7445 25.3778C12.0946 25.0586 11.8932 24.4467 11.8932 23.755C11.8932 23.2951 12.011 22.8542 12.2086 22.4438C12.4253 22.0029 12.7179 21.619 13.117 21.3264C13.4514 21.0832 13.8315 20.9197 14.2495 20.9197C14.4624 20.9197 14.66 20.9692 14.85 21.0642C15.4999 21.3796 15.7014 21.9877 15.7014 22.6756C15.7014 23.1355 15.5835 23.5763 15.3859 23.9868C15.1693 24.4277 14.8766 24.8115 14.4776 25.1042C14.1431 25.3474 13.7631 25.5108 13.345 25.5108C13.136 25.5108 12.9345 25.469 12.7445 25.3778ZM14.2609 21.6419C14.0063 21.6419 13.7783 21.8129 13.6072 21.9877C13.3754 22.2233 13.2044 22.5198 13.079 22.8276C12.9383 23.1621 12.8509 23.5231 12.8509 23.888C12.8509 24.1654 12.8965 24.5265 13.1626 24.6823C13.2424 24.7279 13.3336 24.7507 13.4248 24.7507C13.6795 24.7507 13.9037 24.5835 14.0785 24.4125C14.3142 24.1768 14.4852 23.869 14.6144 23.5611C14.7512 23.2305 14.8386 22.877 14.8386 22.516C14.8386 22.2347 14.793 21.8661 14.5232 21.7103C14.4396 21.6609 14.3522 21.6419 14.2609 21.6419Z" fill="#FED705"/>
</svg>
