<svg width="64" height="64" viewBox="0 0 64 64" fill="none" xmlns="http://www.w3.org/2000/svg">
<path d="M62 2H2V62H62V2Z" fill="#FEEA96"/>
<path d="M62.0002 35.5933H31.2529V62H62.0002V35.5933Z" fill="#EF4336"/>
<path d="M31.6 2H2V62H31.6V2Z" fill="#FED41B"/>
<path d="M32.4677 0.434082H30.7314V62.7659H32.4677V0.434082Z" fill="#7F1517"/>
<path d="M63.1996 34.5518H31.5996V36.288H63.1996V34.5518Z" fill="#7F1517"/>
<path d="M9.11513 25.3494H15.9734C19.2723 25.3494 21.7899 27.5197 21.7899 30.5582C21.7899 33.5966 19.3591 35.7669 15.9734 35.7669H12.3272V40.7153H9.02832V25.3494H9.11513ZM15.6261 32.6417C17.2756 32.6417 18.4041 31.7735 18.4041 30.4713C18.4041 29.1691 17.2756 28.301 15.6261 28.301H12.3272V32.6417H15.6261Z" fill="#FEEA96"/>
<path d="M41.4966 42.7119H47.8339C50.8724 42.7119 53.1295 44.7086 53.1295 47.4866C53.1295 50.2647 50.8724 52.2614 47.8339 52.2614H44.535V56.7757H41.4966V42.7119ZM47.4867 49.4833C48.9625 49.4833 50.0043 48.702 50.0043 47.4866C50.0043 46.2713 48.9625 45.4899 47.4867 45.4899H44.535V49.4833H47.4867V49.4833Z" fill="#FEEA96"/>
<path d="M46.271 14.7582C46.271 14.4109 46.0974 14.0637 45.837 13.8032L45.0557 15.8867H45.1425C45.7502 15.9736 46.271 15.3659 46.271 14.7582Z" fill="#EF4336"/>
<path d="M48.1812 21.0087C48.1812 22.2241 49.1361 23.179 50.3515 23.179C50.8724 23.179 51.3932 22.9186 51.8273 22.5713L50.3515 18.8384C49.1361 18.8384 48.1812 19.7933 48.1812 21.0087Z" fill="#EF4336"/>
<path d="M52.4352 24.1341C51.8275 24.4813 51.0462 24.7418 50.3517 24.7418C48.2682 24.7418 46.6187 23.0923 46.6187 21.0088C46.6187 19.1857 48.0078 17.6231 49.744 17.3626L47.0528 10.5044L46.3583 12.3275C47.2264 12.7615 47.8341 13.7165 47.8341 14.7582C47.8341 16.2341 46.6187 17.4494 45.0561 17.4494C44.7957 17.4494 44.622 17.4494 44.3616 17.3626L41.2363 25.2626H52.8693L52.4352 24.1341Z" fill="#FED41B"/>
<path d="M54.6055 25.5231L47.8341 8.07361C47.7473 7.81317 47.4001 7.55273 47.1396 7.55273C46.7924 7.55273 46.5319 7.72636 46.4451 8.07361L39.5869 25.5231C38.8055 25.8703 38.2847 26.6516 38.2847 27.5198C38.2847 28.7352 39.2396 29.6901 40.455 29.6901H53.7374C54.9528 29.6901 55.9077 28.7352 55.9077 27.5198C55.9077 26.6516 55.3869 25.8703 54.6055 25.5231ZM50.3517 18.8384L51.8275 22.5714C51.3935 22.9187 50.8726 23.1791 50.3517 23.1791C49.1363 23.1791 48.1814 22.2242 48.1814 21.0088C48.1814 19.7934 49.1363 18.8384 50.3517 18.8384ZM45.7506 13.8033C46.011 13.9769 46.1847 14.3242 46.1847 14.7582C46.1847 15.3659 45.6638 15.9736 45.0561 15.9736H44.9693L45.7506 13.8033ZM44.3616 17.3626C44.622 17.4494 44.7957 17.4494 45.0561 17.4494C46.5319 17.4494 47.8341 16.2341 47.8341 14.7582C47.8341 13.7165 47.2264 12.8483 46.3583 12.3275L47.0528 10.5044L49.744 17.3626C47.9209 17.6231 46.6187 19.1857 46.6187 21.0088C46.6187 23.0923 48.2682 24.7417 50.3517 24.7417C51.133 24.7417 51.8275 24.4813 52.4352 24.1341L52.8693 25.3494H41.2363L44.3616 17.3626ZM53.7374 28.1275H40.455C40.1077 28.1275 39.8473 27.867 39.8473 27.5198C39.8473 27.1725 40.1077 26.9121 40.455 26.9121H53.7374C54.0847 26.9121 54.3451 27.1725 54.3451 27.5198C54.3451 27.867 54.0847 28.1275 53.7374 28.1275Z" fill="#7F1517"/>
<rect x="1" y="1" width="62" height="62" rx="6" stroke="#7F1517" stroke-width="2"/>
</svg>
