<svg width="64" height="64" viewBox="0 0 64 64" fill="none" xmlns="http://www.w3.org/2000/svg">
<rect width="64" height="64" rx="7" fill="#98FF68"/>
<path d="M25.8485 15.0264C25.6112 15.0264 25.4688 14.8365 25.4688 14.6466C25.4688 14.4093 25.6586 14.2668 25.8485 14.2668H38.6193C38.8566 14.2668 38.9991 14.4567 38.9991 14.6466C38.9991 14.884 38.8092 15.0264 38.6193 15.0264H25.8485Z" fill="#FBB040"/>
<path d="M10.2768 34.3013C10.0869 34.3013 9.89697 34.1114 9.89697 33.9215C9.89697 33.6842 10.0869 33.5417 10.2768 33.5417H23.0475C23.2849 33.5417 23.4273 33.7316 23.4273 33.9215C23.4273 34.1589 23.3323 34.3013 23.1424 34.3013H10.2768Z" fill="#FBB040"/>
<path d="M26.3705 19.0142C26.1331 19.0142 25.9907 18.8243 25.9907 18.6344C25.9907 18.3971 26.1806 18.2546 26.3705 18.2546H39.1412C39.3786 18.2546 39.521 18.4445 39.521 18.6344C39.521 18.8718 39.3311 19.0142 39.1412 19.0142H26.3705Z" fill="#FBB040"/>
<path d="M23.6171 22.9073C23.3797 22.9073 23.2373 22.7174 23.2373 22.5275C23.2373 22.2901 23.4272 22.1477 23.6171 22.1477H36.3878C36.6252 22.1477 36.7676 22.3376 36.7676 22.5275C36.7676 22.7649 36.5777 22.9073 36.3878 22.9073H23.6171Z" fill="#FBB040"/>
<path d="M15.4042 30.0284C15.1668 30.0284 15.0244 29.8385 15.0244 29.6486C15.0244 29.4112 15.2143 29.2688 15.4042 29.2688H28.1749C28.4123 29.2688 28.5547 29.4587 28.5547 29.6486C28.5547 29.886 28.3648 30.0284 28.1749 30.0284H15.4042Z" fill="#FBB040"/>
<path d="M20.7211 16.973C20.4837 16.973 20.3413 16.7831 20.3413 16.5932C20.3413 16.3558 20.5312 16.2134 20.7211 16.2134H36.3878C36.6251 16.2134 36.7676 16.4033 36.7676 16.5932C36.7676 16.8306 36.5777 16.973 36.3878 16.973H20.7211Z" fill="#FBB040"/>
<path d="M21.1484 21.1981C20.911 21.1981 20.7686 21.0082 20.7686 20.8183C20.7686 20.5809 20.9585 20.4385 21.1484 20.4385H36.815C37.0524 20.4385 37.1948 20.6284 37.1948 20.8183C37.1948 21.0556 37.0049 21.1981 36.815 21.1981H21.1484Z" fill="#FBB040"/>
<path d="M17.3979 34.0636L54.5707 34.3485C54.4283 26.0404 51.6747 17.7323 46.1676 10.6586C45.4555 9.70909 44.6485 8.80707 43.8414 8L17.3979 34.0636Z" fill="#B44418"/>
<path d="M40.7557 14.9314C40.186 14.2193 39.5688 13.5072 38.9516 12.8425L16.9233 34.3011H47.687C47.5446 27.5122 45.2658 20.6759 40.7557 14.9314Z" fill="#FBB040"/>
<path d="M37.907 21.8627C39.5687 21.8627 40.9454 20.4859 40.9454 18.8243C40.9454 17.1627 39.5687 15.7859 37.907 15.7859C36.2454 15.7859 34.8687 17.1627 34.8687 18.8243C34.8687 20.4859 36.2454 21.8627 37.907 21.8627ZM39.4262 17.2576C39.806 17.2576 40.0909 17.5425 40.0909 17.9223C40.0909 18.3021 39.806 18.5869 39.4262 18.5869C39.0464 18.5869 38.7616 18.3021 38.7616 17.9223C38.7616 17.5425 39.0464 17.2576 39.4262 17.2576ZM39.1414 19.2041C39.6161 19.2041 39.9959 19.5839 39.9959 20.0586C39.9959 20.5334 39.6161 20.9132 39.1414 20.9132C38.6666 20.9132 38.2868 20.5334 38.2868 20.0586C38.2868 19.5839 38.6666 19.2041 39.1414 19.2041ZM38.0495 18.9192C38.0495 19.2041 37.8121 19.4889 37.4798 19.4889C37.1949 19.4889 36.9101 19.2515 36.9101 18.9192C36.9101 18.6344 37.1474 18.3495 37.4798 18.3495C37.8121 18.3495 38.0495 18.5869 38.0495 18.9192ZM37.2899 16.498C37.6222 16.498 37.907 16.7829 37.907 17.1152C37.907 17.4475 37.6222 17.7324 37.2899 17.7324C36.9575 17.7324 36.6727 17.4475 36.6727 17.1152C36.6727 16.7354 36.9575 16.498 37.2899 16.498ZM37.005 19.9162C37.3848 19.9162 37.6697 20.201 37.6697 20.5808C37.6697 20.9606 37.3848 21.2455 37.005 21.2455C36.6252 21.2455 36.3404 20.9606 36.3404 20.5808C36.3404 20.201 36.6727 19.9162 37.005 19.9162ZM35.4383 18.6344C35.4383 18.4445 35.5808 18.2546 35.8181 18.2546C36.008 18.2546 36.1979 18.397 36.1979 18.6344C36.1979 18.8243 36.0555 19.0142 35.8181 19.0142C35.6282 19.0142 35.4383 18.8243 35.4383 18.6344Z" fill="#8F1816"/>
<path d="M42.5599 27.9396C44.2215 27.9396 45.5982 26.5628 45.5982 24.9012C45.5982 23.2396 44.2215 21.8628 42.5599 21.8628C40.8983 21.8628 39.5215 23.2396 39.5215 24.9012C39.5215 26.5628 40.8983 27.9396 42.5599 27.9396ZM44.0791 23.3345C44.4589 23.3345 44.7437 23.6194 44.7437 23.9992C44.7437 24.379 44.4589 24.6638 44.0791 24.6638C43.6993 24.6638 43.4144 24.379 43.4144 23.9992C43.4144 23.6194 43.6993 23.3345 44.0791 23.3345ZM43.7942 25.281C44.269 25.281 44.6488 25.6608 44.6488 26.1355C44.6488 26.6103 44.269 26.9901 43.7942 26.9901C43.3195 26.9901 42.9397 26.6103 42.9397 26.1355C42.9397 25.6608 43.3195 25.281 43.7942 25.281ZM42.7023 24.9961C42.7023 25.281 42.4649 25.5658 42.1326 25.5658C41.8477 25.5658 41.5629 25.3284 41.5629 24.9961C41.5629 24.7113 41.8003 24.4264 42.1326 24.4264C42.4649 24.4264 42.7023 24.6638 42.7023 24.9961ZM41.9427 22.5749C42.275 22.5749 42.5599 22.8598 42.5599 23.1921C42.5599 23.5244 42.275 23.8093 41.9427 23.8093C41.6104 23.8093 41.3255 23.5244 41.3255 23.1921C41.3255 22.8123 41.6104 22.5749 41.9427 22.5749ZM41.6578 25.9931C42.0376 25.9931 42.3225 26.2779 42.3225 26.6577C42.3225 27.0375 42.0376 27.3224 41.6578 27.3224C41.2781 27.3224 40.9932 27.0375 40.9932 26.6577C40.9932 26.2779 41.3255 25.9931 41.6578 25.9931ZM40.0912 24.7113C40.0912 24.5214 40.2336 24.3315 40.471 24.3315C40.6609 24.3315 40.8508 24.4739 40.8508 24.7113C40.8508 24.9012 40.7084 25.0911 40.471 25.0911C40.2811 25.0911 40.0912 24.9012 40.0912 24.7113Z" fill="#8F1816"/>
<path d="M33.0645 28.6041C34.7261 28.6041 36.1029 27.2273 36.1029 25.5657C36.1029 23.9041 34.7261 22.5273 33.0645 22.5273C31.4029 22.5273 30.0261 23.9041 30.0261 25.5657C29.9786 27.2273 31.3554 28.6041 33.0645 28.6041ZM34.5362 23.9991C34.916 23.9991 35.2008 24.2839 35.2008 24.6637C35.2008 25.0435 34.916 25.3284 34.5362 25.3284C34.1564 25.3284 33.8715 25.0435 33.8715 24.6637C33.8715 24.2839 34.1564 23.9991 34.5362 23.9991ZM34.2513 25.9455C34.7261 25.9455 35.1059 26.3253 35.1059 26.8001C35.1059 27.2748 34.7261 27.6546 34.2513 27.6546C33.7766 27.6546 33.3968 27.2748 33.3968 26.8001C33.4443 26.3253 33.8241 25.9455 34.2513 25.9455ZM33.1594 25.6607C33.1594 25.9455 32.9221 26.2304 32.5897 26.2304C32.3049 26.2304 32.02 25.993 32.02 25.6607C32.02 25.3758 32.2574 25.091 32.5897 25.091C32.9221 25.091 33.1594 25.3284 33.1594 25.6607ZM32.3998 23.2395C32.7322 23.2395 33.017 23.5243 33.017 23.8566C33.017 24.189 32.7322 24.4738 32.3998 24.4738C32.0675 24.4738 31.7827 24.189 31.7827 23.8566C31.8301 23.4768 32.0675 23.2395 32.3998 23.2395ZM32.115 26.6576C32.4948 26.6576 32.7796 26.9425 32.7796 27.3223C32.7796 27.7021 32.4948 27.9869 32.115 27.9869C31.7352 27.9869 31.4503 27.7021 31.4503 27.3223C31.4503 26.9425 31.7827 26.6576 32.115 26.6576ZM30.5958 25.3758C30.5958 25.1859 30.7382 24.996 30.9756 24.996C31.1655 24.996 31.3554 25.1385 31.3554 25.3758C31.3554 25.5657 31.213 25.7556 30.9756 25.7556C30.7382 25.7556 30.5958 25.5657 30.5958 25.3758Z" fill="#8F1816"/>
<path d="M39.0464 33.9686C40.708 33.9686 42.0848 32.5918 42.0848 30.9302C42.0848 29.2686 40.708 27.8918 39.0464 27.8918C37.3848 27.8918 36.008 29.2686 36.008 30.9302C35.9606 32.5918 37.3373 33.9686 39.0464 33.9686ZM40.5181 29.3636C40.8979 29.3636 41.1828 29.6484 41.1828 30.0282C41.1828 30.408 40.8979 30.6929 40.5181 30.6929C40.1383 30.6929 39.8535 30.408 39.8535 30.0282C39.8535 29.6959 40.1383 29.3636 40.5181 29.3636ZM40.2333 31.31C40.708 31.31 41.0878 31.6898 41.0878 32.1646C41.0878 32.6393 40.708 33.0191 40.2333 33.0191C39.7585 33.0191 39.3787 32.6393 39.3787 32.1646C39.4262 31.6898 39.7585 31.31 40.2333 31.31ZM39.1414 31.0252C39.1414 31.31 38.904 31.5949 38.5717 31.5949C38.2868 31.5949 38.002 31.3575 38.002 31.0252C38.002 30.7403 38.2393 30.4555 38.5717 30.4555C38.904 30.503 39.1414 30.7403 39.1414 31.0252ZM38.3818 28.604C38.7141 28.604 38.9989 28.8888 38.9989 29.2211C38.9989 29.5535 38.7141 29.8383 38.3818 29.8383C38.0494 29.8383 37.7646 29.5535 37.7646 29.2211C37.8121 28.8888 38.0494 28.604 38.3818 28.604ZM38.0969 32.0696C38.4767 32.0696 38.7616 32.3545 38.7616 32.7343C38.7616 33.1141 38.4767 33.3989 38.0969 33.3989C37.7171 33.3989 37.4323 33.1141 37.4323 32.7343C37.4797 32.3545 37.7646 32.0696 38.0969 32.0696ZM36.5777 30.7403C36.5777 30.5504 36.7201 30.3605 36.9575 30.3605C37.1474 30.3605 37.3373 30.503 37.3373 30.7403C37.3373 30.9302 37.1949 31.1201 36.9575 31.1201C36.7201 31.1201 36.5777 30.9777 36.5777 30.7403Z" fill="#8F1816"/>
<path d="M27.4627 33.9686C29.1243 33.9686 30.5011 32.5918 30.5011 30.9302C30.5011 29.2686 29.1243 27.8918 27.4627 27.8918C25.8011 27.8918 24.4243 29.2686 24.4243 30.9302C24.4243 32.5918 25.8011 33.9686 27.4627 33.9686ZM28.9819 29.3636C29.3617 29.3636 29.6465 29.6484 29.6465 30.0282C29.6465 30.408 29.3617 30.6929 28.9819 30.6929C28.6021 30.6929 28.3172 30.408 28.3172 30.0282C28.3172 29.6959 28.6021 29.3636 28.9819 29.3636ZM28.697 31.31C29.1718 31.31 29.5516 31.6898 29.5516 32.1646C29.5516 32.6393 29.1718 33.0191 28.697 33.0191C28.2223 33.0191 27.8425 32.6393 27.8425 32.1646C27.89 31.6898 28.2223 31.31 28.697 31.31ZM27.6051 31.0252C27.6051 31.31 27.3677 31.5949 27.0354 31.5949C26.7506 31.5949 26.4657 31.3575 26.4657 31.0252C26.4657 30.7403 26.7031 30.4555 27.0354 30.4555C27.3677 30.503 27.6051 30.7403 27.6051 31.0252ZM26.8455 28.604C27.1779 28.604 27.4627 28.8888 27.4627 29.2211C27.4627 29.5535 27.1779 29.8383 26.8455 29.8383C26.5132 29.8383 26.2284 29.5535 26.2284 29.2211C26.2758 28.8888 26.5132 28.604 26.8455 28.604ZM26.5607 32.0696C26.9405 32.0696 27.2253 32.3545 27.2253 32.7343C27.2253 33.1141 26.9405 33.3989 26.5607 33.3989C26.1809 33.3989 25.896 33.1141 25.896 32.7343C25.9435 32.3545 26.2284 32.0696 26.5607 32.0696ZM24.994 30.7403C24.994 30.5504 25.1364 30.3605 25.3738 30.3605C25.5637 30.3605 25.7536 30.503 25.7536 30.7403C25.7536 30.9302 25.6112 31.1201 25.3738 31.1201C25.1839 31.1201 24.994 30.9777 24.994 30.7403Z" fill="#8F1816"/>
<path d="M16.0685 37.7191C16.7806 37.6241 17.6827 37.4817 18.8695 37.4817C20.2938 37.4817 21.3382 37.814 21.9554 38.4312C22.5251 38.9534 22.8099 39.7605 22.7625 40.7574C22.6675 41.7544 22.3352 42.5615 21.718 43.1312C20.8635 43.9383 19.5817 44.3655 18.2049 44.3655C17.7776 44.3655 17.3503 44.3655 17.0655 44.2706L16.5907 48.8282H15.1665L16.0685 37.7191ZM17.0655 43.1312C17.3978 43.2261 17.7776 43.2261 18.2524 43.2261C20.0089 43.2261 21.1483 42.3716 21.2433 40.8524C21.3857 39.3807 20.3887 38.6686 18.7746 38.6686C18.1574 38.6686 17.6352 38.716 17.3978 38.7635L17.0655 43.1312Z" fill="#8F1816"/>
<path d="M26.3708 37.624L25.4213 48.828H23.9971L24.9466 37.624H26.3708Z" fill="#8F1816"/>
<path d="M27.2726 47.9736L34.2514 38.8585V38.811H28.5544L28.6493 37.5767H36.1978L36.1029 38.4787L29.219 47.5464V47.5938H35.5332L35.3908 48.8282H27.2251L27.2726 47.9736Z" fill="#8F1816"/>
<path d="M36.483 47.9736L43.4618 38.8585V38.811H37.7648L37.8598 37.5767H45.4083L45.3133 38.4787L38.4295 47.5464V47.5938H44.6962L44.6012 48.8282H36.4355L36.483 47.9736Z" fill="#8F1816"/>
<path d="M48.4938 45.2674L47.0221 48.828H45.5029L50.2504 37.624H52.007L54.9029 48.828H53.3363L52.4342 45.3149H48.4938V45.2674ZM52.2443 44.1755L51.3898 40.9472C51.1999 40.2351 51.1049 39.5704 50.9625 38.9058H50.9151C50.6777 39.5704 50.4403 40.2351 50.2029 40.9472L48.8262 44.1755H52.2443Z" fill="#8F1816"/>
<path d="M12.5551 54.383C12.745 54.5255 13.0299 54.6204 13.3622 54.6204C13.837 54.6204 14.1218 54.383 14.1693 54.0033C14.2167 53.6709 14.0269 53.481 13.5521 53.2911C12.9824 53.1012 12.6501 52.7689 12.6976 52.2942C12.745 51.7245 13.2198 51.3447 13.9319 51.3447C14.3117 51.3447 14.5491 51.4396 14.6915 51.5346L14.5491 51.9144C14.4066 51.7719 14.1693 51.677 13.837 51.677C13.3622 51.677 13.1248 51.9618 13.1248 52.1992C13.0774 52.5315 13.3147 52.674 13.7895 52.8639C14.3592 53.1012 14.644 53.3861 14.5965 53.9083C14.5491 54.478 14.1218 54.9527 13.2673 54.9527C12.9349 54.9527 12.5551 54.8578 12.3652 54.7154L12.5551 54.383Z" fill="#FBB040"/>
<path d="M15.4509 51.3921C15.6882 51.3447 15.9731 51.3447 16.3529 51.3447C16.8276 51.3447 17.1125 51.4396 17.3499 51.6295C17.5398 51.8194 17.6347 52.0568 17.5872 52.3891C17.5398 52.7214 17.4448 52.9588 17.2549 53.1487C16.9701 53.3861 16.5903 53.5285 16.1155 53.5285C15.9731 53.5285 15.8307 53.5285 15.7357 53.481L15.6408 54.9053H15.166L15.4509 51.3921ZM15.7832 53.1012C15.8781 53.1487 16.0206 53.1487 16.163 53.1487C16.7327 53.1487 17.065 52.8639 17.1125 52.3891C17.16 51.9144 16.8276 51.677 16.3529 51.677C16.163 51.677 15.9731 51.677 15.9256 51.7245L15.7832 53.1012Z" fill="#FBB040"/>
<path d="M19.9612 53.2437H18.5845L18.4895 54.5255H20.0562L20.0087 54.9053H17.9673L18.2521 51.3447H20.1986L20.1511 51.7245H18.6794L18.5845 52.8639H19.9612V53.2437Z" fill="#FBB040"/>
<path d="M23.0946 54.8103C22.9047 54.9053 22.5724 55.0002 22.1451 55.0002C21.1481 55.0002 20.436 54.383 20.5309 53.1962C20.6259 52.0568 21.433 51.3447 22.5249 51.3447C22.9522 51.3447 23.237 51.4396 23.3794 51.4871L23.237 51.8669C23.0471 51.7719 22.8097 51.7245 22.5249 51.7245C21.6703 51.7245 21.1006 52.2467 21.0057 53.1962C20.9107 54.0507 21.3855 54.6204 22.24 54.6204C22.5249 54.6204 22.8097 54.5729 22.9996 54.478L23.0946 54.8103Z" fill="#FBB040"/>
<path d="M24.4237 51.3447L24.1388 54.9053H23.6641L23.9489 51.3447H24.4237Z" fill="#FBB040"/>
<path d="M25.5633 53.8134L25.0885 54.9528H24.6138L26.133 51.3922H26.7027L27.6047 54.9528H27.1299L26.8451 53.8134H25.5633ZM26.7976 53.4336L26.5128 52.3891C26.4653 52.1517 26.4178 51.9618 26.3703 51.7245C26.3229 51.9144 26.2279 52.1517 26.133 52.3891L25.7057 53.4336H26.7976Z" fill="#FBB040"/>
<path d="M28.4593 51.3447H28.934L28.6492 54.5255H30.1684L30.1209 54.9053H28.127L28.4593 51.3447Z" fill="#FBB040"/>
<path d="M32.0671 51.3921C32.3519 51.3446 32.6842 51.2971 33.064 51.2971C33.7287 51.2971 34.2034 51.4395 34.4883 51.7244C34.7731 52.0092 34.9156 52.4365 34.8681 53.0062C34.8206 53.5759 34.5832 54.0507 34.2509 54.383C33.8711 54.7153 33.3489 54.9052 32.6368 54.9052C32.3045 54.9052 32.0196 54.9052 31.7822 54.8577L32.0671 51.3921ZM32.257 54.5729C32.3519 54.5729 32.5418 54.6204 32.7317 54.6204C33.7287 54.6204 34.2984 54.0507 34.3933 53.1012C34.4883 52.2466 34.0135 51.7244 33.064 51.7244C32.8267 51.7244 32.6368 51.7244 32.5418 51.7719L32.257 54.5729Z" fill="#FBB040"/>
<path d="M37.2893 53.2437H35.9126L35.7702 54.5255H37.3368L37.2893 54.9053H35.2954L35.5803 51.3447H37.5267L37.4792 51.7245H36.0075L35.9126 52.8639H37.2893V53.2437Z" fill="#FBB040"/>
<path d="M38.1916 51.3447H38.6663L38.3815 54.5255H39.9007L39.8532 54.9053H37.9067L38.1916 51.3447Z" fill="#FBB040"/>
<path d="M41.1351 51.3447L40.8502 54.9053H40.3755L40.6603 51.3447H41.1351Z" fill="#FBB040"/>
<path d="M42.4166 54.9053L41.562 51.3447H42.0368L42.464 53.1012C42.559 53.576 42.6539 54.0033 42.7489 54.4305C42.8913 54.0033 43.0812 53.576 43.2711 53.1012L44.0307 51.3447H44.5054L42.9388 54.9053H42.4166Z" fill="#FBB040"/>
<path d="M46.5945 53.2437H45.2178L45.0753 54.5255H46.642L46.5945 54.9053H44.6006L44.8854 51.3447H46.8319L46.7844 51.7245H45.3127L45.2178 52.8639H46.5945V53.2437Z" fill="#FBB040"/>
<path d="M47.4964 51.3921C47.7338 51.3446 48.0661 51.2971 48.3984 51.2971C48.8732 51.2971 49.2055 51.3921 49.3954 51.582C49.5853 51.7244 49.6327 51.9618 49.6327 52.2466C49.5853 52.7214 49.253 53.0537 48.8732 53.1486C49.158 53.2436 49.3004 53.481 49.3479 53.8608C49.4428 54.3355 49.4903 54.7153 49.5378 54.8577H49.0631C49.0156 54.7628 48.9681 54.4305 48.8732 54.0032C48.8257 53.5284 48.6358 53.3385 48.2085 53.2911H47.7812L47.6388 54.8577H47.1641L47.4964 51.3921ZM47.8287 53.0062H48.3035C48.7782 53.0062 49.1105 52.7214 49.158 52.3416C49.2055 51.8668 48.8732 51.6769 48.3984 51.6769C48.161 51.6769 48.0186 51.6769 47.9237 51.7244L47.8287 53.0062Z" fill="#FBB040"/>
<path d="M50.7724 54.9053L50.9148 53.3861L49.9653 51.3447H50.4876L50.9148 52.3416C51.0098 52.6265 51.1047 52.8164 51.1997 53.0538C51.3421 52.8164 51.437 52.579 51.6269 52.3416L52.2441 51.3447H52.7663L51.3896 53.3861L51.2471 54.9053H50.7724Z" fill="#FBB040"/>
</svg>
