<svg width="64" height="64" viewBox="0 0 64 64" fill="none" xmlns="http://www.w3.org/2000/svg">
<rect width="64" height="64" rx="7" fill="#18AB5C"/>
<path d="M29.7534 22.376C30.3152 22.2707 31.0173 22.2004 31.9302 22.2004C33.0536 22.2004 33.8611 22.4462 34.3878 22.9377C34.8793 23.359 35.1601 23.991 35.1601 24.7634C35.1601 25.5709 34.9144 26.2028 34.4931 26.6592C33.8962 27.2912 32.9132 27.6423 31.7897 27.6423C31.4386 27.6423 31.1227 27.6423 30.8769 27.5721V31.0829H29.7534V22.376V22.376ZM30.912 26.6241C31.1578 26.6943 31.4737 26.7295 31.8599 26.7295C33.2292 26.7295 34.0718 26.0624 34.0718 24.8336C34.0718 23.675 33.2643 23.1133 32.0004 23.1133C31.5088 23.1133 31.1227 23.1484 30.9471 23.2186V26.6241H30.912Z" fill="#8F1816"/>
<path d="M37.8286 22.2705V31.0828H36.7051V22.2705H37.8286Z" fill="#8F1816"/>
<path d="M39.2324 30.3806L44.1125 23.2535V23.2184H39.6537V22.2705H45.5871V22.9727L40.7421 30.0997V30.1348H45.6573V31.0828H39.2324V30.3806Z" fill="#8F1816"/>
<path d="M46.4297 30.3806L51.3098 23.2535V23.2184H46.851V22.2705H52.7843V22.9727L47.9394 30.0997V30.1348H52.8546V31.0828H46.4297V30.3806V30.3806Z" fill="#8F1816"/>
<path d="M55.6984 28.3092L54.7855 31.0828H53.627L56.6112 22.2705H57.9804L60.9998 31.0828H59.771L58.823 28.3092H55.6984ZM58.5773 27.3964L57.6996 24.8685C57.4889 24.3068 57.3836 23.7802 57.2431 23.2535H57.208C57.0676 23.7802 56.9272 24.3068 56.7516 24.8334L55.8739 27.3964H58.5773Z" fill="#8F1816"/>
<path d="M24.0309 26.3081V21.9546H19.6073C19.6073 22.9025 19.2211 23.8505 18.4838 24.5877C17.0092 26.0623 14.5867 26.0623 13.1122 24.5877C12.3749 23.8505 12.0238 22.9025 11.9887 21.9546H7.31924V26.94C6.37131 26.9751 5.45848 27.3262 4.75631 28.0635C3.28175 29.5381 3.28175 31.9605 4.75631 33.4351C5.45848 34.1373 6.40642 34.5235 7.31924 34.5586V38.6663H11.4972C11.4621 39.6844 11.8131 40.7377 12.6206 41.5101C14.0952 42.9846 16.5177 42.9846 17.9923 41.5101C18.7646 40.7377 19.1508 39.6844 19.1157 38.6663H24.0661V33.8915C23.083 33.8915 22.1 33.5404 21.3627 32.768C19.8881 31.2935 19.8881 28.871 21.3627 27.3964C22.0649 26.6591 23.0479 26.3081 24.0309 26.3081Z" fill="#FBB040"/>
<path d="M21.7839 30.8721C22.1701 27.4315 19.7125 24.3419 16.3069 23.9557C12.9014 23.5695 9.77673 26.0271 9.39054 29.4327C9.00434 32.8733 11.4619 35.998 14.8675 36.3842C18.3081 36.7704 21.3977 34.3128 21.7839 30.8721Z" fill="white"/>
<path d="M22.837 31.0127C23.2934 27.0103 20.4145 23.3941 16.4121 22.9377C12.4097 22.4462 8.79354 25.3251 8.33713 29.3275C7.88071 33.3299 10.7596 36.9461 14.762 37.4025C18.7644 37.894 22.3806 35.0151 22.837 31.0127ZM14.9024 36.1737C11.6022 35.7875 9.21484 32.8032 9.60104 29.503C9.98723 26.1677 12.9715 23.8154 16.2717 24.1665C19.5719 24.5527 21.9593 27.5369 21.5731 30.8372C21.1869 34.1725 18.2026 36.5599 14.9024 36.1737Z" fill="#8F1816"/>
<path d="M11.778 26.1674C12.761 25.2546 14.0249 24.6928 15.4293 24.6577V29.8187L11.778 26.1674ZM15.2537 30.3102H10.0928C10.1279 31.7145 10.6896 33.0136 11.6024 33.9615L15.2537 30.3102ZM11.6024 26.378C10.7949 27.2206 10.2683 28.309 10.1279 29.5378C10.0928 29.7134 10.0928 29.8538 10.0928 30.0293H15.2537L11.6024 26.378ZM15.7453 30.5209V35.6818C17.1496 35.6467 18.4486 35.085 19.3966 34.1721L15.7453 30.5209ZM15.7453 29.8538L19.3966 26.1674C18.554 25.3599 17.4656 24.8333 16.2368 24.6928C16.0612 24.6577 15.9208 24.6577 15.7453 24.6577V29.8538ZM19.5721 26.378L15.9208 30.0293H21.0818C21.0818 28.625 20.52 27.3611 19.5721 26.378ZM15.4644 30.5209L11.778 34.1721C12.6206 34.9796 13.709 35.5063 14.9378 35.6467C15.1133 35.6818 15.2537 35.6818 15.4293 35.6818V30.5209H15.4644ZM21.1169 30.3102H15.9208L19.5721 33.9615C20.3796 33.1189 20.9062 32.0305 21.0467 30.8017C21.0818 30.6262 21.0818 30.4857 21.1169 30.3102Z" fill="#B44418"/>
<path d="M15.6748 30.4158L15.7099 34.699C16.8334 34.6639 17.8866 34.2075 18.6941 33.4702L15.6748 30.4158Z" fill="#FBB040"/>
<path d="M20.1338 30.3105L15.8154 30.2754L18.8699 33.2947C19.5369 32.5926 19.9582 31.7148 20.0636 30.6967C20.1338 30.5563 20.1338 30.4509 20.1338 30.3105Z" fill="#FBB040"/>
<path d="M18.905 27.0454L15.8506 30.0648L20.1338 30.0296C20.0987 28.9062 19.6423 27.8529 18.905 27.0454Z" fill="#FBB040"/>
<path d="M16.0961 25.6408C15.9557 25.6408 15.8503 25.6057 15.7099 25.6057L15.6748 29.889L18.6941 26.8345C18.0271 26.2026 17.1143 25.7813 16.0961 25.6408Z" fill="#FBB040"/>
<path d="M19.6073 30.0291C19.3615 29.8536 19.0104 29.8536 18.7646 30.0291H19.6073Z" fill="#8F1816"/>
<path d="M18.4489 33.2243C18.3786 33.2594 18.3084 33.2594 18.2733 33.2243C18.2382 33.1892 18.2382 33.0839 18.2733 33.0488L18.0978 32.8732C18.0978 32.8732 18.0627 32.8732 18.0627 32.8381L18.0276 32.803L17.8871 32.6626C17.6063 32.9786 17.6063 33.435 17.9222 33.7159C18.2031 33.9967 18.6595 33.9967 18.9755 33.751L18.4489 33.2243ZM17.852 33.4701C17.7818 33.3999 17.7818 33.2946 17.852 33.2243C17.9222 33.1541 18.0276 33.1541 18.0978 33.2243C18.168 33.2946 18.168 33.3999 18.0978 33.4701C18.0276 33.5052 17.9222 33.5052 17.852 33.4701ZM18.3084 33.7861C18.2382 33.7159 18.2382 33.5754 18.3084 33.5052C18.3786 33.435 18.5191 33.435 18.5893 33.5052C18.6595 33.5754 18.6595 33.7159 18.5893 33.7861C18.5191 33.8563 18.3786 33.8563 18.3084 33.7861Z" fill="#8F1816"/>
<path d="M18.1328 32.4867L18.7999 33.1538C18.8701 33.1187 18.9403 33.1187 19.0105 33.1538C19.0807 33.224 19.0807 33.2942 19.0105 33.3644L19.151 33.5049C19.2914 33.224 19.2563 32.8729 19.0105 32.6271C18.7648 32.4165 18.4137 32.3814 18.1328 32.4867ZM18.5541 32.8729C18.4839 32.8027 18.4839 32.7325 18.5541 32.6623C18.6243 32.592 18.6946 32.592 18.7648 32.6623C18.835 32.7325 18.835 32.8027 18.7648 32.8729C18.6946 32.9431 18.5892 32.9431 18.5541 32.8729Z" fill="#8F1816"/>
<path d="M18.3781 29.2219C18.659 29.5027 19.1505 29.5027 19.4665 29.2219C19.7473 28.941 19.7473 28.4495 19.4665 28.1335C19.1856 27.8526 18.6941 27.8526 18.3781 28.1335C18.0621 28.4495 18.0621 28.941 18.3781 29.2219ZM19.4314 28.6952C19.5016 28.7655 19.5016 28.8708 19.4314 28.941C19.3611 29.0112 19.2558 29.0112 19.1856 28.941C19.1154 28.8708 19.1154 28.7655 19.1856 28.6952C19.2909 28.625 19.3962 28.625 19.4314 28.6952ZM19.0452 28.9761C19.1154 29.0463 19.1154 29.1868 19.0452 29.257C18.9749 29.3272 18.8345 29.3272 18.7643 29.257C18.6941 29.1868 18.6941 29.0463 18.7643 28.9761C18.8345 28.9059 18.9749 28.9059 19.0452 28.9761ZM18.9047 28.7303C18.8345 28.8006 18.7643 28.8006 18.6941 28.7303C18.6239 28.6601 18.6239 28.5899 18.6941 28.5197C18.7643 28.4495 18.8345 28.4495 18.9047 28.5197C18.9749 28.5899 18.9749 28.6601 18.9047 28.7303ZM19.2207 28.1686C19.2909 28.2388 19.2909 28.309 19.2207 28.3793C19.1505 28.4495 19.0803 28.4495 19.0101 28.3793C18.9398 28.309 18.9398 28.2388 19.0101 28.1686C19.0452 28.0984 19.1505 28.0984 19.2207 28.1686ZM18.5536 28.7303C18.6239 28.8006 18.6239 28.9059 18.5536 28.9761C18.4834 29.0463 18.3781 29.0463 18.3079 28.9761C18.2377 28.9059 18.2377 28.8006 18.3079 28.7303C18.3781 28.6601 18.4834 28.6601 18.5536 28.7303ZM18.4834 28.2388C18.5185 28.2037 18.5887 28.2037 18.6239 28.2388C18.659 28.2739 18.659 28.3442 18.6239 28.3793C18.5887 28.4144 18.5185 28.4144 18.4834 28.3793C18.4483 28.309 18.4483 28.2739 18.4834 28.2388Z" fill="#8F1816"/>
<path d="M18.6594 31.1878C18.9402 31.4686 19.4318 31.4686 19.7477 31.1878C19.9935 30.942 20.0286 30.5909 19.8882 30.3101H19.5371C19.5371 30.3101 19.5371 30.3452 19.502 30.3452C19.4318 30.4154 19.3615 30.4154 19.2913 30.3452L19.2562 30.3101H18.9402C18.9051 30.3452 18.8349 30.3452 18.7998 30.3101H18.5541C18.3785 30.5909 18.4136 30.942 18.6594 31.1878ZM19.7477 30.6611C19.818 30.7314 19.818 30.8367 19.7477 30.9069C19.6775 30.9771 19.5722 30.9771 19.502 30.9069C19.4318 30.8367 19.4318 30.7314 19.502 30.6611C19.5722 30.5909 19.6775 30.5909 19.7477 30.6611ZM19.3615 30.942C19.4318 31.0122 19.4318 31.1527 19.3615 31.2229C19.2913 31.2931 19.1509 31.2931 19.0807 31.2229C19.0105 31.1527 19.0105 31.0122 19.0807 30.942C19.1158 30.8718 19.2562 30.8718 19.3615 30.942ZM19.2211 30.5207C19.2913 30.5909 19.2913 30.6611 19.2211 30.7314C19.1509 30.8016 19.0807 30.8016 19.0105 30.7314C18.9402 30.6611 18.9402 30.5909 19.0105 30.5207C19.0807 30.4505 19.1509 30.4505 19.2211 30.5207ZM18.8349 30.6963C18.9051 30.7665 18.9051 30.8718 18.8349 30.942C18.7647 31.0122 18.6594 31.0122 18.6243 30.942C18.5541 30.8718 18.5541 30.7665 18.6243 30.6963C18.6945 30.626 18.7647 30.626 18.8349 30.6963Z" fill="#8F1816"/>
<path d="M27.8579 33.716C28.1739 33.6809 28.5601 33.6107 29.0516 33.6107C29.6836 33.6107 30.14 33.7512 30.4208 34.032C30.7017 34.2778 30.8421 34.6289 30.8421 35.0502C30.8421 35.5066 30.7017 35.8226 30.4559 36.1034C30.14 36.4545 29.5782 36.6301 28.9814 36.6301C28.8058 36.6301 28.6303 36.6301 28.4899 36.5949V38.561H27.8579V33.716ZM28.4899 36.0683C28.6303 36.1034 28.8058 36.1034 29.0165 36.1034C29.7889 36.1034 30.2453 35.7172 30.2453 35.0502C30.2453 34.4182 29.7889 34.1022 29.0867 34.1022C28.8058 34.1022 28.5952 34.1373 28.4899 34.1373V36.0683Z" fill="#FBB040"/>
<path d="M32.3517 33.6456V38.5257H31.7197V33.6456H32.3517Z" fill="#FBB040"/>
<path d="M35.9678 36.2436H34.0719V37.999H36.1784V38.5257H33.4399V33.6456H36.0731V34.1722H34.0719V35.717H35.9678V36.2436Z" fill="#FBB040"/>
<path d="M40.3919 38.3506C40.1462 38.456 39.6898 38.5964 39.0929 38.5964C37.7237 38.5964 36.6704 37.7187 36.6704 36.1388C36.6704 34.6291 37.6886 33.5759 39.2333 33.5759C39.8302 33.5759 40.2164 33.7163 40.3919 33.7865L40.2515 34.3131C40.0057 34.2078 39.6898 34.1025 39.2684 34.1025C38.1099 34.1025 37.3726 34.8398 37.3726 36.1037C37.3726 37.2974 38.0748 38.0698 39.2333 38.0698C39.6195 38.0698 40.0057 37.9996 40.2515 37.8591L40.3919 38.3506Z" fill="#FBB040"/>
<path d="M43.727 36.2436H41.8312V37.999H43.9377V38.5257H41.1992V33.6456H43.8324V34.1722H41.8312V35.717H43.727V36.2436Z" fill="#FBB040"/>
<path d="M44.6751 37.7536C44.956 37.9291 45.3773 38.0695 45.7986 38.0695C46.4305 38.0695 46.8167 37.7185 46.8167 37.2269C46.8167 36.7705 46.571 36.5248 45.9039 36.2439C45.0964 35.963 44.6049 35.5417 44.6049 34.8747C44.6049 34.1023 45.2368 33.5405 46.1848 33.5405C46.6763 33.5405 47.0625 33.6459 47.2731 33.7863L47.0976 34.3129C46.9221 34.2427 46.6061 34.0672 46.1848 34.0672C45.5177 34.0672 45.2719 34.4534 45.2719 34.8044C45.2719 35.2608 45.5528 35.4715 46.255 35.7524C47.0625 36.0683 47.4838 36.4545 47.4838 37.1918C47.4838 37.9291 46.9221 38.5962 45.7635 38.5962C45.3071 38.5962 44.7804 38.4557 44.5347 38.2802L44.6751 37.7536Z" fill="#FBB040"/>
</svg>
