<svg width="64" height="64" viewBox="0 0 64 64" fill="none" xmlns="http://www.w3.org/2000/svg">
<rect width="64" height="64" rx="7" fill="#FCF43B"/>
<path d="M40.7068 9.33201C38.4788 9.41771 36.4651 10.2318 34.9226 11.56C32.9089 9.28917 29.9525 7.9181 26.6962 8.00379C20.912 8.21802 16.4132 13.0168 16.6275 18.8009C16.8417 24.5423 21.6404 29.0411 27.4246 28.8697C29.0099 28.8269 30.5095 28.3984 31.8806 27.7129C32.2233 28.8697 33.2945 29.6838 34.5798 29.6409C35.8224 29.5552 36.8078 28.6555 37.0221 27.4986C38.3503 28.1413 39.8499 28.4412 41.3923 28.3984C46.6624 28.227 50.7756 23.8139 50.5613 18.5439C50.3471 13.2738 45.934 9.16063 40.7068 9.33201Z" fill="white"/>
<path d="M42.1633 30.9263H24.2109L24.5965 27.1987H41.3921L42.1633 30.9263Z" fill="#8F1816"/>
<path d="M45.2058 31.9972C44.2203 32.597 43.1063 32.9398 41.9495 33.0255C39.5073 33.1968 37.1079 31.8258 34.7514 32.8969C34.2372 33.1111 33.6802 33.4968 33.3375 33.9252C33.2089 34.0966 33.0804 34.3108 32.9947 34.5251C32.909 34.3108 32.7805 34.0966 32.6519 33.9252C32.2663 33.4968 31.7522 33.1111 31.238 32.8969C28.8815 31.8686 26.4821 33.2397 24.0399 33.0255C22.8831 32.9398 21.7691 32.597 20.7837 31.9972C20.0981 31.6115 19.1984 31.0117 18.8984 30.2405C18.8984 30.2405 22.1119 37.9956 28.6244 37.7813C29.9955 37.7385 31.5379 37.5243 32.6091 36.5388C32.7805 36.3674 32.909 36.1532 33.0375 35.9818C33.1232 36.196 33.2518 36.3674 33.466 36.5388C34.5372 37.5243 36.0796 37.7385 37.4507 37.7813C43.9632 37.9527 47.1767 30.2405 47.1767 30.2405C46.791 30.9689 45.8913 31.5687 45.2058 31.9972Z" fill="#8F1816"/>
<path d="M17.4414 38.9811C18.0841 38.8954 18.8982 38.7668 19.9693 38.7668C21.2547 38.7668 22.2401 39.0668 22.84 39.6238C23.397 40.0951 23.7397 40.8663 23.7397 41.7661C23.7397 42.7087 23.4827 43.437 22.9685 43.9512C22.283 44.6796 21.1261 45.0652 19.8408 45.0652C19.4552 45.0652 19.0695 45.0652 18.7696 44.9795V49.0927H17.4414V38.9811V38.9811ZM18.7696 43.9083C19.0695 43.994 19.4123 43.994 19.8408 43.994C21.4261 43.994 22.4115 43.2228 22.4115 41.8089C22.4115 40.4378 21.4689 39.7951 20.0122 39.7951C19.4552 39.7951 18.9839 39.838 18.7696 39.8808V43.9083V43.9083Z" fill="#8F1816"/>
<path d="M26.6959 39.6664C26.6959 40.1377 26.396 40.4805 25.839 40.4805C25.3677 40.4805 25.0249 40.0948 25.0249 39.6664C25.0249 39.1951 25.3677 38.8523 25.839 38.8523C26.396 38.8095 26.6959 39.1951 26.6959 39.6664ZM25.2391 49.0496V41.723H26.5674V49.0496H25.2391V49.0496Z" fill="#8F1816"/>
<path d="M27.9385 48.2782L31.2804 43.9508C31.5804 43.5651 31.9231 43.2224 32.2231 42.7939V42.7511H28.2384V41.6799H33.8512V42.494L30.5521 46.7786C30.2521 47.207 29.9522 47.5498 29.6095 47.9354V47.9783H33.894V49.0494H27.9385V48.2782Z" fill="#8F1816"/>
<path d="M34.4512 48.2782L37.7931 43.9508C38.0931 43.5651 38.4358 43.2224 38.7358 42.7939V42.7511H34.7511V41.6799H40.3639V42.494L37.0648 46.7786C36.7648 47.207 36.4649 47.5498 36.1222 47.9354V47.9783H40.4067V49.0494H34.4512V48.2782Z" fill="#8F1816"/>
<path d="M45.8482 49.0495L45.7625 48.1069H45.7196C45.2912 48.6639 44.52 49.1781 43.4917 49.1781C41.992 49.1781 41.2637 48.1498 41.2637 47.0786C41.2637 45.3219 42.849 44.3365 45.6768 44.3365V44.1651C45.6768 43.5653 45.5054 42.4513 44.0058 42.4513C43.3203 42.4513 42.5919 42.6655 42.0777 43.0083L41.7778 42.1085C42.3777 41.7229 43.2774 41.4658 44.1772 41.4658C46.4052 41.4658 46.9622 43.0083 46.9622 44.465V47.2072C46.9622 47.8498 47.005 48.4497 47.0907 48.9638H45.8482V49.0495ZM45.6339 45.3219C44.1772 45.2791 42.5062 45.5362 42.5062 46.9929C42.5062 47.8498 43.0632 48.2783 43.7487 48.2783C44.6913 48.2783 45.2912 47.6785 45.5054 47.0358C45.5482 46.9072 45.5911 46.7359 45.5911 46.6073V45.3219H45.6339Z" fill="#8F1816"/>
<path d="M23.8254 54.6201H23.1398L22.9256 53.9774H21.8973L21.6831 54.6201H20.9976L22.0259 51.7923H22.7971L23.8254 54.6201ZM22.7542 53.4633L22.4543 52.5207C22.4115 52.435 22.4115 52.3493 22.4115 52.2636C22.4115 52.3493 22.3686 52.435 22.3686 52.5207L22.0687 53.4633H22.7542Z" fill="#FBB040"/>
<path d="M26.3961 53.3776C26.3961 54.2345 26.0105 54.663 25.1964 54.663C24.4252 54.663 24.0396 54.2345 24.0396 53.4204V51.7923H24.6822V53.4204C24.6822 53.8917 24.8536 54.106 25.2392 54.106C25.582 54.106 25.7534 53.8917 25.7534 53.4204V51.7495H26.3961V53.3776Z" fill="#FBB040"/>
<path d="M29.0096 52.3064H28.1955V54.6201H27.5528V52.3064H26.7388V51.7923H29.0096V52.3064Z" fill="#FBB040"/>
<path d="M31.8802 54.6201H31.2375V53.4633H30.0807V54.6201H29.438V51.7923H30.0807V52.9063H31.2375V51.7923H31.8802V54.6201Z" fill="#FBB040"/>
<path d="M34.1943 54.6201H32.4805V51.7923H34.1086V52.3064H33.1232V52.9491H34.0658V53.4633H33.1232V54.106H34.1943V54.6201Z" fill="#FBB040"/>
<path d="M37.2359 54.6201H36.5932L35.4364 52.8206C35.3507 52.7349 35.3078 52.6492 35.3078 52.6064C35.3078 52.6921 35.3078 52.8634 35.3078 53.0777V54.6201H34.708V51.7923H35.3935L36.5075 53.5061C36.5504 53.5918 36.5932 53.6775 36.6361 53.7204C36.6361 53.6347 36.6361 53.5061 36.6361 53.3347V51.7495H37.2359V54.6201Z" fill="#FBB040"/>
<path d="M39.8499 52.3064H39.0359V54.6201H38.3932V52.3064H37.5791V51.7923H39.8499V52.3064Z" fill="#FBB040"/>
<path d="M40.878 54.6201H40.2354V51.7923H40.878V54.6201Z" fill="#FBB040"/>
<path d="M43.5771 54.4915C43.3629 54.5772 43.1058 54.6629 42.763 54.6629C42.3346 54.6629 41.9918 54.5344 41.7347 54.2773C41.4777 54.0202 41.3491 53.6774 41.3491 53.249C41.3491 52.7777 41.4777 52.4349 41.7776 52.135C42.0775 51.8351 42.4203 51.7065 42.8487 51.7065C43.1058 51.7065 43.3629 51.7494 43.5343 51.7922V52.3921C43.3629 52.2635 43.1486 52.2207 42.8916 52.2207C42.6345 52.2207 42.4203 52.3064 42.2489 52.4778C42.0775 52.6492 41.9918 52.8634 41.9918 53.1633C41.9918 53.4204 42.0775 53.6775 42.206 53.806C42.3774 53.9774 42.5488 54.0631 42.8487 54.0631C43.1058 54.0631 43.32 54.0202 43.5343 53.8917V54.4915H43.5771Z" fill="#FBB040"/>
<path d="M49.6615 50.4211C48.6332 50.4211 47.7763 51.021 47.3907 51.9207H45.2056V53.8917H47.3907C47.7763 54.7486 48.6332 55.3913 49.6615 55.3913C51.0326 55.3913 52.1466 54.2773 52.1466 52.9062C52.1466 51.4923 51.0326 50.4211 49.6615 50.4211Z" fill="#B44418"/>
<path d="M14.4851 50.4216C15.5134 50.4216 16.3703 51.0215 16.7559 51.9212H18.941V53.8921H16.7559C16.3703 54.7491 15.5134 55.3917 14.4851 55.3917C13.114 55.3917 12 54.2778 12 52.9067C12 51.4928 13.114 50.4216 14.4851 50.4216Z" fill="#B44418"/>
</svg>
