<svg width="153" height="192" viewBox="0 0 153 192" fill="none" xmlns="http://www.w3.org/2000/svg">
<g filter="url(#filter0_dd)">
<path d="M42.411 130.826L42.407 130.825C41.558 130.473 41 129.64 41 128.717V23.2812C41 22.0199 42.02 21 43.281 21H108.906C110.168 21 111.188 22.0198 111.188 23.2812C111.188 23.2813 111.188 23.2813 111.188 23.2814V128.718C111.188 129.64 110.63 130.473 109.781 130.825L109.775 130.827C108.953 131.173 107.958 130.995 107.294 130.33C104.56 127.597 100.128 127.597 97.394 130.33C96.503 131.222 95.06 131.222 94.169 130.33C91.435 127.597 87.003 127.597 84.269 130.33C83.378 131.222 81.935 131.222 81.044 130.33C78.31 127.597 73.878 127.597 71.144 130.33C70.253 131.222 68.81 131.222 67.919 130.33C65.185 127.597 60.753 127.597 58.019 130.33C57.128 131.222 55.685 131.222 54.794 130.33C52.06 127.597 47.628 127.597 44.894 130.33C44.238 130.987 43.253 131.178 42.411 130.826Z" fill="url(#paint0_linear)" stroke="url(#paint1_linear)" stroke-width="2"/>
<path d="M76.094 55.3029C74.287 55.3029 72.813 53.832 72.813 52.0216C72.813 50.2112 74.287 48.7404 76.094 48.7404C77.902 48.7404 79.375 50.2112 79.375 52.0216C79.375 53.8353 80.843 55.3029 82.657 55.3029C84.47 55.3029 85.938 53.8353 85.938 52.0216C85.938 47.7494 83.187 44.1414 79.375 42.7823V38.8966C79.375 37.0829 77.908 35.6154 76.094 35.6154C74.281 35.6154 72.813 37.0829 72.813 38.8966V42.7823C69.001 44.1414 66.25 47.7494 66.25 52.0216C66.25 57.4497 70.666 61.8654 76.094 61.8654C77.902 61.8654 79.375 63.3362 79.375 65.1466C79.375 66.957 77.902 68.4279 76.094 68.4279C74.287 68.4279 72.813 66.957 72.813 65.1466C72.813 63.333 71.345 61.8654 69.532 61.8654C67.718 61.8654 66.25 63.333 66.25 65.1466C66.25 69.4188 69.001 73.0269 72.813 74.386V78.2716C72.813 80.0853 74.281 81.5529 76.094 81.5529C77.908 81.5529 79.375 80.0853 79.375 78.2716V74.386C83.187 73.0271 85.938 69.4188 85.938 65.1466C85.938 59.7185 81.523 55.3029 76.094 55.3029ZM76.094 88.1154H56.407C54.593 88.1154 53.125 89.583 53.125 91.3966C53.125 93.2103 54.593 94.6779 56.407 94.6779H76.094C77.908 94.6779 79.375 93.2103 79.375 91.3966C79.375 89.583 77.908 88.1154 76.094 88.1154ZM76.094 101.24H56.407C54.593 101.24 53.125 102.708 53.125 104.522C53.125 106.335 54.593 107.803 56.407 107.803H76.094C77.908 107.803 79.375 106.335 79.375 104.522C79.375 102.708 77.908 101.24 76.094 101.24ZM89.219 94.6779H95.782C97.595 94.6779 99.063 93.2103 99.063 91.3966C99.063 89.583 97.595 88.1154 95.782 88.1154H89.219C87.406 88.1154 85.938 89.583 85.938 91.3966C85.938 93.2103 87.406 94.6779 89.219 94.6779ZM95.782 101.24H89.219C87.406 101.24 85.938 102.708 85.938 104.522C85.938 106.335 87.406 107.803 89.219 107.803H95.782C97.595 107.803 99.063 106.335 99.063 104.522C99.063 102.708 97.595 101.24 95.782 101.24Z" fill="white"/>
</g>
<defs>
<filter id="filter0_dd" x="0" y="0" width="152.188" height="192" filterUnits="userSpaceOnUse" color-interpolation-filters="sRGB">
<feFlood flood-opacity="0" result="BackgroundImageFix"/>
<feColorMatrix in="SourceAlpha" type="matrix" values="0 0 0 0 0 0 0 0 0 0 0 0 0 0 0 0 0 0 127 0" result="hardAlpha"/>
<feOffset dy="20"/>
<feGaussianBlur stdDeviation="20"/>
<feColorMatrix type="matrix" values="0 0 0 0 1 0 0 0 0 0.301961 0 0 0 0 0 0 0 0 0.29 0"/>
<feBlend mode="normal" in2="BackgroundImageFix" result="effect1_dropShadow"/>
<feColorMatrix in="SourceAlpha" type="matrix" values="0 0 0 0 0 0 0 0 0 0 0 0 0 0 0 0 0 0 127 0" result="hardAlpha"/>
<feOffset dy="5"/>
<feGaussianBlur stdDeviation="5"/>
<feColorMatrix type="matrix" values="0 0 0 0 1 0 0 0 0 0.3 0 0 0 0 0 0 0 0 0.26 0"/>
<feBlend mode="normal" in2="effect1_dropShadow" result="effect2_dropShadow"/>
<feBlend mode="normal" in="SourceGraphic" in2="effect2_dropShadow" result="shape"/>
</filter>
<linearGradient id="paint0_linear" x1="76.094" y1="-22.8026" x2="76.094" y2="169.452" gradientUnits="userSpaceOnUse">
<stop offset="0.630208" stop-color="#F96120"/>
<stop offset="1" stop-color="#FD725C"/>
</linearGradient>
<linearGradient id="paint1_linear" x1="76.094" y1="20" x2="76.094" y2="132" gradientUnits="userSpaceOnUse">
<stop stop-color="#F96222"/>
<stop offset="1" stop-color="#FD725A"/>
</linearGradient>
</defs>
</svg>
