<svg width="44" height="31" viewBox="0 0 44 31" fill="none" xmlns="http://www.w3.org/2000/svg">
<path d="M30.0875 20.7883C29.6522 20.7883 29.2348 20.9612 28.927 21.269C28.6192 21.5767 28.4463 21.9942 28.4463 22.4294C28.4463 22.8647 28.6192 23.2822 28.927 23.5899C29.2348 23.8977 29.6522 24.0706 30.0875 24.0706H35.5581C35.9933 24.0706 36.4108 23.8977 36.7185 23.5899C37.0263 23.2822 37.1992 22.8647 37.1992 22.4294C37.1992 21.9942 37.0263 21.5767 36.7185 21.269C36.4108 20.9612 35.9933 20.7883 35.5581 20.7883H30.0875Z" fill="black"/>
<path d="M5.01471 0C3.68472 0 2.40921 0.528333 1.46877 1.46877C0.528334 2.40921 0 3.68472 0 5.01471V25.9853C0 27.3153 0.528334 28.5908 1.46877 29.5312C2.40921 30.4717 3.68472 31 5.01471 31H38.75C40.08 31 41.3555 30.4717 42.2959 29.5312C43.2364 28.5908 43.7647 27.3153 43.7647 25.9853V5.01471C43.7647 3.68472 43.2364 2.40921 42.2959 1.46877C41.3555 0.528333 40.08 0 38.75 0H5.01471ZM2.73529 25.9853V11.8529H41.0294V25.9853C41.0294 27.2435 40.0082 28.2647 38.75 28.2647H5.01471C3.75647 28.2647 2.73529 27.2435 2.73529 25.9853ZM2.73529 9.11765V5.01471C2.73529 3.75647 3.75647 2.73529 5.01471 2.73529H38.75C40.0082 2.73529 41.0294 3.75647 41.0294 5.01471V9.11765H2.73529Z" fill="black"/>
</svg>
