<svg width="166" height="192" viewBox="0 0 166 192" fill="none" xmlns="http://www.w3.org/2000/svg">
<g filter="url(#filter0_dd)">
<path d="M83 131C82.24 131 81.532 130.631 81.102 130.016C73.094 118.563 66.169 109.784 60.615 102.743L60.614 102.742C47.793 86.4889 41 77.825 41 62.6562C41 39.6954 59.835 21 83 21C106.165 21 125 39.6954 125 62.6562C125 77.8084 118.16 86.5393 105.249 102.918C99.719 109.933 92.823 118.681 84.898 130.016C84.468 130.631 83.76 131 83 131Z" fill="url(#paint0_linear)" stroke="url(#paint1_linear)" stroke-width="2"/>
<path d="M83 86C70.318 86 60 75.6822 60 63C60 50.3178 70.318 40 83 40C95.682 40 106 50.3178 106 63C106 75.6822 95.682 86 83 86Z" fill="white"/>
</g>
<defs>
<filter id="filter0_dd" x="0" y="0" width="166" height="192" filterUnits="userSpaceOnUse" color-interpolation-filters="sRGB">
<feFlood flood-opacity="0" result="BackgroundImageFix"/>
<feColorMatrix in="SourceAlpha" type="matrix" values="0 0 0 0 0 0 0 0 0 0 0 0 0 0 0 0 0 0 127 0" result="hardAlpha"/>
<feOffset dy="20"/>
<feGaussianBlur stdDeviation="20"/>
<feColorMatrix type="matrix" values="0 0 0 0 1 0 0 0 0 0.301961 0 0 0 0 0 0 0 0 0.29 0"/>
<feBlend mode="normal" in2="BackgroundImageFix" result="effect1_dropShadow"/>
<feColorMatrix in="SourceAlpha" type="matrix" values="0 0 0 0 0 0 0 0 0 0 0 0 0 0 0 0 0 0 127 0" result="hardAlpha"/>
<feOffset dy="5"/>
<feGaussianBlur stdDeviation="5"/>
<feColorMatrix type="matrix" values="0 0 0 0 1 0 0 0 0 0.3 0 0 0 0 0 0 0 0 0.26 0"/>
<feBlend mode="normal" in2="effect1_dropShadow" result="effect2_dropShadow"/>
<feBlend mode="normal" in="SourceGraphic" in2="effect2_dropShadow" result="shape"/>
</filter>
<linearGradient id="paint0_linear" x1="83" y1="-22.8025" x2="83" y2="169.452" gradientUnits="userSpaceOnUse">
<stop offset="0.630208" stop-color="#F96120"/>
<stop offset="1" stop-color="#FD725C"/>
</linearGradient>
<linearGradient id="paint1_linear" x1="83" y1="20" x2="83" y2="132" gradientUnits="userSpaceOnUse">
<stop stop-color="#F96222"/>
<stop offset="1" stop-color="#FD725A"/>
</linearGradient>
</defs>
</svg>
