<svg width="24" height="21" viewBox="0 0 24 21" fill="none" xmlns="http://www.w3.org/2000/svg">
<path d="M21.539 5.75C22.4764 5.04688 23.3204 4.20311 23.9764 3.21874C23.1324 3.59374 22.1484 3.87499 21.164 3.96874C22.1954 3.35938 22.9454 2.42188 23.3204 1.24999C22.3824 1.81249 21.3046 2.23438 20.2265 2.46874C19.289 1.48438 18.0234 0.921875 16.6172 0.921875C13.8984 0.921875 11.6953 3.125 11.6953 5.84375C11.6953 6.21875 11.7422 6.59375 11.8359 6.96875C7.75784 6.73438 4.10154 4.76561 1.66404 1.81249C1.24224 2.51561 1.00784 3.35937 1.00784 4.29687C1.00784 5.98437 1.85154 7.48438 3.21094 8.375C2.41404 8.32812 1.61724 8.14062 0.960938 7.76562V7.8125C0.960938 10.2031 2.64844 12.1719 4.89844 12.6406C4.52344 12.7344 4.05464 12.8281 3.63284 12.8281C3.30464 12.8281 3.02344 12.7812 2.69534 12.7344C3.30464 14.7031 5.13284 16.1094 7.28904 16.1562C5.60154 17.4688 3.49224 18.2656 1.19534 18.2656C0.773435 18.2656 0.398438 18.2188 0.0234375 18.1719C2.17964 19.5781 4.75784 20.375 7.57034 20.375C16.6172 20.375 21.539 12.9219 21.539 6.40625C21.539 6.17188 21.539 5.98438 21.539 5.75Z" fill="#F5F5F5"/>
</svg>
