<svg width="501" height="504" viewBox="0 0 501 504" fill="none" xmlns="http://www.w3.org/2000/svg">
<path d="M191.249 137.678C191.249 137.678 200.677 148.836 192.074 165.453L172.394 148.361C172.394 148.361 185.711 138.628 191.249 137.678Z" fill="#674B52"/>
<path d="M156.012 254.474C183.478 254.474 205.744 230.189 205.744 200.231C205.744 170.273 183.478 145.987 156.012 145.987C128.545 145.987 106.279 170.273 106.279 200.231C106.279 230.189 128.545 254.474 156.012 254.474Z" fill="#FCC59C"/>
<path d="M297.903 437.265C298.374 432.043 297.903 416.256 291.775 398.333C285.529 380.41 275.629 367.354 268.323 356.197C255.124 336.137 246.049 309.074 246.049 309.074C251.117 310.143 259.72 310.499 265.966 312.042C277.869 315.009 294.839 313.348 304.62 311.211C303.678 308.718 302.735 306.226 301.91 303.733C299.671 296.849 298.139 289.727 297.196 282.605C296.842 280.35 296.607 277.976 296.253 275.721C281.051 276.315 252.649 267.769 235.443 260.647C229.315 258.154 221.183 253.406 208.927 250.676C205.038 249.846 186.3 249.608 184.414 252.813C181.586 257.442 179.582 260.647 174.868 263.139C160.608 270.617 156.484 269.193 146.938 266.344C141.635 264.801 141.281 259.341 136.331 260.053C121.482 262.19 97.4411 276.196 97.4411 292.813C95.6733 307.413 106.633 326.404 112.526 339.698C120.54 357.74 123.486 373.17 133.974 389.55C149.059 413.289 139.278 432.399 133.974 446.167C133.974 446.167 201.856 480.114 257.009 471.212C257.009 471.45 294.014 476.079 297.903 437.265Z" fill="#EFF9FE"/>
<path d="M176.872 246.284L180.997 260.409C180.997 260.409 178.993 264.445 167.326 270.261C155.659 276.077 143.874 268.243 142.931 260.409V249.252C142.931 249.252 161.905 256.136 176.872 246.284Z" fill="#FCC59C"/>
<path d="M154.245 320.232C154.245 320.232 187.833 381.834 191.486 392.28C195.139 402.725 218.002 471.093 217.531 481.301C217.531 481.301 199.264 484.15 187.125 479.164C187.125 479.164 183.472 392.992 169.919 365.336C156.367 337.798 152.713 323.199 152.713 323.199L195.375 297.323L154.245 320.232Z" fill="#D2E9F0"/>
<path d="M130.203 162.485C130.203 162.485 157.191 165.097 180.054 149.785C202.916 134.473 194.431 124.978 185.946 124.74C177.461 124.503 137.628 109.903 106.28 129.251C74.9318 148.598 84.3597 172.1 84.3597 172.1C84.3597 172.1 80.3529 220.409 134.564 249.133C135.271 245.216 126.196 244.504 125.607 238.925C125.371 237.145 126.078 234.771 124.782 233.94C117.122 229.192 114.176 224.326 113.469 219.222C112.997 216.254 113.351 213.406 115.59 211.507C120.893 206.996 133.385 216.373 133.385 216.373C133.385 216.373 125.607 206.64 134.446 196.551C143.284 186.462 138.335 182.189 138.335 182.189L130.203 162.485Z" fill="#674B52"/>
<path d="M82.9448 193.702L57.1357 156.195C57.1357 156.195 27.4377 171.981 7.28542 146.106C-12.8668 120.23 15.1813 102.901 15.1813 102.901C15.1813 102.901 -15.5774 50.7934 41.1082 40.5856C41.1082 40.5856 51.3611 1.53489 91.7835 1.2975C132.206 1.0601 128.788 20.0513 128.788 20.0513C128.788 20.0513 151.062 13.4044 162.257 30.3778C173.453 47.3512 175.574 70.8529 157.544 86.402L181.938 124.503C181.821 124.384 128.788 141.12 82.9448 193.702Z" fill="#EFF9FE"/>
<path d="M75.2849 3.79013C75.2849 3.79013 105.454 4.5023 113.232 39.0426C113.232 39.0426 141.516 41.0604 139.749 63.7312C137.863 86.402 109.815 103.85 85.7735 93.7611C85.7735 93.7611 92.0195 115.126 76.6991 122.248C61.3787 129.37 48.2974 117.263 48.2974 117.263C48.2974 117.263 70.3352 138.865 55.7219 156.67L86.127 196.67C86.127 196.67 129.731 145.275 181.821 124.384L158.84 87.1142C158.84 87.1142 178.05 62.663 168.74 41.0604C159.429 19.4579 140.456 16.4905 129.378 19.4579C129.378 19.5766 125.371 -10.3346 75.2849 3.79013Z" fill="#D2E9F0"/>
<path d="M137.98 117.263C127.492 118.568 100.151 134.829 73.5166 173.405L82.1196 185.868C82.1196 185.868 124.074 140.764 158.957 127.708C158.957 127.708 155.658 125.453 151.297 123.079C151.062 122.96 111.111 144.325 99.5613 155.839C116.65 131.15 146.348 120.705 146.112 120.586C141.516 118.687 142.459 118.45 137.98 117.263Z" fill="#EFF9FE"/>
<path d="M329.015 194.414C329.015 194.532 329.133 194.65 329.015 194.414C329.015 194.296 329.015 194.296 329.015 194.414C329.015 194.296 329.015 194.296 329.015 194.414Z" fill="#FCC394"/>
<path d="M310.749 307.294C294.132 317.145 291.775 273.347 291.775 273.347C291.775 273.347 311.692 230.142 316.759 220.29C320.059 213.881 324.538 198.925 324.773 194.059C324.773 194.059 324.773 193.94 324.891 193.94C324.538 193.109 324.302 192.159 324.066 191.329C322.416 185.987 311.456 182.783 310.867 177.204C310.867 176.61 320.766 173.88 321.12 173.406C321.356 172.931 321.827 172.693 322.298 172.575C322.77 172.456 323.359 172.575 323.713 172.812C323.948 172.931 324.302 173.287 324.42 173.643C326.305 173.88 328.191 174.118 329.959 174.236C332.08 174.355 334.083 174.355 336.205 174.118C336.44 174.118 336.794 174.118 337.03 173.999H337.147H337.265C337.737 173.999 338.326 173.88 338.797 173.88C339.858 173.762 340.801 173.643 341.861 173.406C343.865 173.05 345.868 172.575 347.872 171.863C348.343 171.744 348.815 171.506 349.404 171.388C349.639 171.269 349.875 171.269 350.111 171.15C350.229 171.15 350.347 171.032 350.464 171.032C351.407 170.676 352.35 170.32 353.293 169.845C354 169.489 376.509 171.625 377.216 171.863C387.941 174.355 384.052 176.017 383.698 176.729C382.873 178.866 352.704 182.545 349.875 188.599C348.815 191.091 346.811 194.296 344.925 204.86C343.393 215.305 334.437 293.644 310.749 307.294Z" fill="#FCC394"/>
<path d="M156.601 246.166C156.483 246.166 156.483 246.401 156.601 246.401C156.719 246.401 156.719 246.166 156.601 246.166Z" fill="#E8A378"/>
<path d="M203.269 417.68C203.151 417.205 202.916 416.849 202.444 416.493C202.091 416.137 201.737 415.9 201.266 415.662C200.794 415.425 200.323 415.306 199.852 415.306C199.498 415.306 199.144 415.425 198.909 415.425C198.32 415.544 197.73 415.9 197.259 416.374C197.023 416.612 196.905 416.849 196.67 417.087C196.316 417.68 196.198 418.274 196.198 418.986V419.579C196.198 420.054 196.316 420.529 196.552 421.004C196.67 421.478 196.905 421.834 197.377 422.191C197.73 422.547 198.084 422.784 198.555 423.021C199.027 423.259 199.498 423.378 199.969 423.378C200.323 423.378 200.677 423.259 200.912 423.259C201.501 423.14 202.091 422.784 202.562 422.309C202.798 422.072 202.916 421.834 203.151 421.597C203.505 421.004 203.623 420.41 203.623 419.698V419.104C203.623 418.63 203.505 418.155 203.269 417.68Z" fill="#C2C2C2"/>
<path d="M294.603 267.65C294.603 267.65 304.738 307.65 309.099 308.837C309.099 308.837 296.253 319.638 286.354 311.686C276.455 303.733 277.633 268.837 283.525 269.311C289.418 269.905 294.603 267.65 294.603 267.65Z" fill="#D2E9F0"/>
<path d="M445.803 171.388C445.803 168.539 443.682 165.334 440.5 165.453C414.573 165.809 388.764 166.046 362.837 166.046C336.91 166.046 311.101 165.809 285.175 165.334C270.679 165.097 256.066 164.741 241.57 164.385C238.624 164.266 235.678 166.521 235.678 169.726C235.678 172.693 237.799 175.661 240.981 175.661C266.908 176.373 292.717 176.848 318.644 177.085C344.571 177.322 370.38 177.441 396.307 177.204C410.802 177.085 425.415 176.966 439.911 176.729C442.739 176.61 445.685 174.592 445.803 171.388Z" fill="#B3B3B3"/>
<path d="M369.084 402.131C367.552 398.333 365.666 394.772 364.252 392.042C356.12 376.968 344.689 363.911 329.133 356.315C327.836 355.721 326.658 355.128 325.362 354.534C319.351 352.042 313.105 350.38 306.741 349.549C306.506 349.549 305.091 345.039 304.974 344.683C303.913 342.428 302.617 340.41 300.495 338.985C298.02 337.324 294.838 337.086 292.01 338.036C287.296 339.698 285.764 343.021 284.114 347.294C283.643 348.481 284.232 348.837 283.289 349.668C281.875 350.974 277.986 351.211 276.336 351.686C273.036 352.635 269.737 353.822 266.555 355.128C242.631 365.454 226.25 388.363 223.304 414.357C222.125 424.208 224.482 434.772 236.032 434.535C276.572 433.704 317.23 432.992 357.77 432.161C360.716 432.161 364.252 431.805 366.844 430.024C375.683 424.208 373.208 412.102 369.084 402.131Z" fill="#E3E3E3"/>
<path d="M365.666 414.238C363.898 409.016 361.777 403.912 359.42 398.926C357.534 394.891 355.295 390.974 352.82 387.294C349.874 382.784 346.574 378.392 343.039 374.238C340.093 370.796 337.029 367.591 333.729 364.505C332.786 363.674 331.843 362.843 330.9 362.012C329.722 361.063 328.426 359.994 327.129 359.164C325.715 358.333 324.183 357.621 322.651 357.146C321.826 356.908 321.001 356.908 320.176 356.79C319.469 356.671 318.644 356.552 317.937 356.552C316.405 356.671 314.873 356.79 313.341 357.264C310.63 358.333 309.098 359.045 306.977 361.063C306.859 361.181 306.859 361.181 306.741 361.3C306.388 361.775 306.034 362.25 305.681 362.606C305.327 363.08 304.974 363.555 304.62 364.03C303.913 365.098 303.559 366.404 303.088 367.472C302.852 368.066 302.734 368.659 302.734 369.253C302.97 369.609 303.324 369.965 303.559 370.321C304.031 371.27 304.502 372.339 304.974 373.288C305.327 373.407 305.681 373.644 306.034 373.763C307.448 374.594 308.863 375.543 310.159 376.612C310.866 376.849 311.455 377.087 312.044 377.443C312.869 377.799 313.577 378.511 314.284 379.104C315.462 380.054 316.405 381.36 317.23 382.547L317.348 382.665C318.762 383.971 320.058 385.276 321.355 386.701C323.594 388.956 325.597 391.449 327.601 393.941C331.49 399.164 334.907 404.743 337.736 410.559C338.325 411.864 339.032 413.17 339.621 414.476C340.446 416.493 341.153 418.511 341.86 420.648C342.214 422.191 342.921 423.615 344.1 424.802C344.924 426.108 346.103 427.176 347.517 428.007C348.931 428.956 350.463 429.431 352.113 429.431C353.763 429.787 355.413 429.669 356.945 429.194C357.888 428.838 358.831 428.363 359.891 428.007C361.777 426.939 363.191 425.396 364.252 423.615C364.605 422.666 365.077 421.597 365.43 420.648C366.255 418.63 366.255 416.375 365.666 414.238Z" fill="#E0E0E0"/>
<path d="M358.713 404.861C357.299 400.707 355.767 396.553 353.999 392.517C352.467 388.956 350.581 385.514 348.578 382.309C344.1 375.425 338.325 369.253 331.136 365.098C329.015 363.793 326.776 362.843 324.419 361.894C322.533 361.181 320.648 360.588 318.762 360.232C317.819 359.994 316.994 359.876 316.052 360.113C315.109 360.113 314.284 360.469 313.459 360.944C312.045 361.775 310.63 363.437 310.277 365.098C309.923 366.879 309.923 368.897 310.984 370.44C311.927 371.864 313.341 373.288 315.109 373.644C316.994 374 318.88 374.594 320.648 375.306C323.123 376.493 325.479 377.799 327.601 379.461C330.193 381.597 332.55 383.971 334.672 386.582C337.854 390.855 340.329 395.484 342.45 400.47C343.51 403.2 344.571 405.93 345.514 408.778C346.103 410.44 347.046 411.983 348.696 412.933C349.521 413.407 350.346 413.763 351.289 413.763C352.231 414.001 353.056 413.882 353.999 413.645C355.649 413.051 357.299 412.102 358.124 410.44C358.831 408.541 359.302 406.642 358.713 404.861Z" fill="#F5F5F5"/>
<path d="M283.289 349.905C283.289 349.905 226.485 386.701 256.537 434.416C256.537 434.416 238.624 435.128 232.142 434.416C225.543 433.704 215.172 420.173 227.546 394.891C239.802 369.609 254.651 355.009 283.289 349.905Z" fill="#CFCFCF"/>
<path d="M209.281 287.59C209.281 287.59 209.163 287.59 209.281 287.59C204.802 287.472 200.088 286.166 196.435 283.555C194.667 282.249 193.135 280.587 192.546 278.451C191.839 276.077 191.721 276.195 192.428 273.822C193.607 270.261 194.196 268.48 194.55 266.106C195.021 262.902 195.492 259.816 194.196 256.373C192.782 252.456 191.603 250.676 188.539 249.133C187.125 249.964 185.357 249.133 183.118 249.608C181.115 249.964 179.229 252.338 178.758 252.812C178.993 253.762 180.997 257.204 178.286 260.29C170.744 269.074 162.966 270.379 151.652 267.531C149.178 266.937 148.117 266.581 145.996 265.394C143.992 264.326 143.992 263.614 143.403 261.952C143.049 261.002 143.049 258.272 142.931 257.323C140.574 257.679 133.975 258.391 131.382 259.341C129.143 260.172 127.847 261.715 125.725 263.02C124.901 265.75 125.608 269.786 126.55 272.753C127.258 275.246 132.325 282.012 133.975 283.673C136.45 286.166 141.753 289.845 145.76 290.558C146.938 290.795 148.235 290.676 149.178 291.507C150.827 292.931 150.71 296.374 150.827 298.391C151.181 305.751 149.413 312.991 146.585 319.757C145.053 323.317 142.107 326.047 140.574 329.608C143.992 329.371 147.881 326.997 150.945 325.573C154.952 323.555 159.43 321.537 162.848 318.57C166.619 315.365 169.683 311.329 171.687 306.819C172.747 304.564 173.572 302.19 174.044 299.697C174.162 298.866 175.458 293.644 174.869 293.169C177.461 295.068 179.347 297.323 182.411 298.748C193.489 303.851 209.045 297.917 214.348 286.878C214.348 286.878 214.348 286.759 214.466 286.759C214.113 287.709 210.224 287.59 209.281 287.59Z" fill="#D24D3E"/>
<path d="M132.089 259.341C132.089 259.341 133.621 275.365 155.187 279.4C176.754 283.436 193.842 267.768 185.357 251.982L186.653 250.32C186.653 250.32 193.96 258.272 192.074 267.649C190.188 277.026 161.315 295.424 141.634 285.098C121.954 274.771 129.142 260.884 129.142 260.884L132.089 259.341Z" fill="#DC5040"/>
<path d="M158.252 290.202C158.252 290.202 161.316 306.344 152.713 315.721C152.713 315.721 162.259 311.211 166.502 288.065L158.252 290.202Z" fill="#DC5040"/>
<path d="M188.656 277.145C188.656 277.145 193.724 295.187 211.401 289.845C211.401 289.845 194.431 295.78 181.585 282.012L188.656 277.145Z" fill="#DC5040"/>
<path d="M129.025 260.884C129.025 260.884 133.15 283.08 152.948 286.285C172.747 289.371 194.667 274.059 190.778 260.884C189.01 255.187 184.768 249.608 184.768 249.608C184.768 249.608 187.478 248.54 189.01 249.489C190.542 250.439 199.735 255.78 192.781 272.991C185.828 290.202 154.127 292.813 146.467 291.032C138.806 289.252 123.486 280.706 125.725 263.376L129.025 260.884Z" fill="#BB4335"/>
<path d="M192.663 274.178C192.781 273.584 192.781 272.753 192.781 271.566C192.663 267.887 191.603 266.106 189.01 263.614C187.831 262.427 183.825 260.409 181.939 260.528C179.228 260.646 178.05 260.646 176.164 261.952C167.561 267.887 156.601 268.243 146.82 265.988C149.059 266.462 153.419 272.991 153.655 274.771C154.126 278.213 154.244 280.587 152.83 284.029C152.005 285.928 149.295 289.727 147.527 291.032C147.88 290.795 149.648 291.27 150.12 291.388C155.659 291.745 161.197 290.676 166.619 289.371C172.04 288.065 177.461 286.285 182.41 283.555C184.414 282.486 186.417 281.181 188.303 279.638C189.835 278.451 191.249 277.501 192.192 275.958C191.956 275.958 192.545 274.652 192.663 274.178Z" fill="#BB4335"/>
<path d="M212.463 290.202C212.463 290.202 195.256 305.157 178.64 285.335L169.919 288.065C169.919 288.065 165.558 321.775 141.517 329.846C141.517 329.846 159.312 325.336 167.09 314.534C174.869 303.852 175.693 298.154 174.986 293.288C174.869 293.288 189.835 316.196 212.463 290.202Z" fill="#BB4335"/>
<path d="M366.138 421.834C365.902 421.241 365.667 420.766 365.431 420.173C364.842 419.104 364.017 418.273 362.956 417.68C362.603 417.443 362.131 417.324 361.778 417.087C360.953 416.612 360.128 416.256 359.185 416.256C358.242 416.018 357.417 416.137 356.474 416.374C355.532 416.612 354.825 416.968 354.117 417.561C353.41 418.036 352.821 418.748 352.35 419.46L351.643 421.122C351.289 422.309 351.289 423.615 351.643 424.802C351.878 425.395 352.114 425.87 352.35 426.463C352.939 427.532 353.764 428.362 354.825 428.956C355.178 429.193 355.65 429.312 356.003 429.549C356.828 430.024 357.653 430.38 358.596 430.38C359.539 430.618 360.364 430.499 361.306 430.262C362.249 430.024 362.956 429.668 363.663 429.075C364.37 428.6 364.96 427.888 365.431 427.176C365.667 426.582 365.902 426.107 366.138 425.514C366.492 424.327 366.492 423.14 366.138 421.834Z" fill="#F5F5F5"/>
<path d="M169.801 331.982C171.948 331.982 173.69 330.229 173.69 328.065C173.69 325.902 171.948 324.149 169.801 324.149C167.653 324.149 165.912 325.902 165.912 328.065C165.912 330.229 167.653 331.982 169.801 331.982Z" fill="#CFCFCF"/>
<path d="M183.353 343.733C183.353 345.87 181.585 347.65 179.464 347.65C177.342 347.65 175.575 345.87 175.575 343.733C175.575 341.597 177.342 339.816 179.464 339.816C181.585 339.935 183.353 341.597 183.353 343.733Z" fill="#CFCFCF"/>
<path d="M189.127 363.437C191.275 363.437 193.016 361.683 193.016 359.52C193.016 357.357 191.275 355.603 189.127 355.603C186.979 355.603 185.238 357.357 185.238 359.52C185.238 361.683 186.979 363.437 189.127 363.437Z" fill="#CFCFCF"/>
<path d="M198.91 379.104C201.057 379.104 202.799 377.35 202.799 375.187C202.799 373.024 201.057 371.27 198.91 371.27C196.762 371.27 195.021 373.024 195.021 375.187C195.021 377.35 196.762 379.104 198.91 379.104Z" fill="#CFCFCF"/>
<path d="M215.761 405.336C215.761 405.336 224.011 420.885 229.314 440.47C225.189 448.541 203.151 460.41 192.781 460.767C195.138 433.111 191.484 420.41 191.484 420.41L215.761 405.336Z" fill="white"/>
<path d="M271.387 367.235C275.512 362.131 290.361 359.164 293.778 353.941C297.196 348.837 300.614 339.579 301.91 334.119C303.324 328.659 297.196 324.861 292.364 318.57C287.65 312.279 282.111 317.976 275.276 320.706C268.441 323.436 258.777 332.101 260.545 344.92C244.399 363.081 189.717 380.41 173.336 387.294L165.087 374.001C165.087 374.001 135.742 382.309 139.278 405.573C145.877 418.036 155.423 428.244 162.258 430.381C169.093 432.517 169.211 431.805 175.104 429.194C191.367 422.191 266.791 372.932 271.387 367.235Z" fill="#FCC394"/>
<path d="M162.613 373.763C162.613 373.763 143.522 378.392 135.272 393.229C134.094 395.365 133.386 406.167 134.683 408.303L138.925 415.069C141.4 418.986 147.175 418.867 149.414 414.832C155.542 403.912 166.62 387.175 178.051 385.632C178.051 385.514 172.041 371.626 162.613 373.763Z" fill="#D2E9F0"/>
<path d="M200.088 377.68C200.088 377.68 189.011 369.015 185.004 429.312C181.115 489.61 205.745 499.105 205.745 499.105C205.745 499.105 201.503 503.26 170.508 503.26C158.841 503.26 145.524 509.194 146.703 476.434C147.881 443.675 132.679 396.434 169.919 387.532C170.037 387.413 193.725 372.339 200.088 377.68Z" fill="white"/>
<path d="M170.272 217.56C170.272 217.56 180.878 205.216 191.838 213.168" stroke="#D58582" stroke-width="2" stroke-miterlimit="10" stroke-linecap="round"/>
<path d="M118.418 213.999C118.418 213.999 114.412 218.509 120.068 224.563" stroke="#ECA17C" stroke-width="1.5" stroke-miterlimit="10" stroke-linecap="round"/>
<path d="M196.435 184.919C196.435 184.919 191.603 189.666 185.121 186.699" stroke="#674C53" stroke-width="2" stroke-miterlimit="10" stroke-linecap="round"/>
<path d="M172.394 190.023C172.394 190.023 167.562 194.771 161.08 191.803" stroke="#674C53" stroke-width="2" stroke-miterlimit="10" stroke-linecap="round"/>
<path d="M247.039 129.228C247.039 147.186 258.355 156.616 272.213 156.616C278.855 156.616 284.759 153.91 289.187 148.744L282.545 141.446C279.921 144.316 276.805 146.202 272.377 146.202C264.587 146.202 259.421 139.806 259.421 128.818C259.421 118.076 265.243 111.598 272.705 111.598C276.477 111.598 279.019 113.156 281.725 115.616L288.367 108.154C284.759 104.464 279.183 101.184 272.541 101.184C258.765 101.184 247.039 111.516 247.039 129.228ZM296.245 143.004C296.245 151.204 299.033 156.616 307.315 156.616C310.021 156.616 312.071 156.206 313.383 155.632L311.907 146.694C311.251 146.858 310.923 146.858 310.431 146.858C309.447 146.858 308.299 146.038 308.299 143.496V98.1496H296.245V143.004ZM317.33 135.296C317.33 148.826 326.842 156.616 337.174 156.616C347.424 156.616 356.936 148.826 356.936 135.296C356.936 121.766 347.424 113.976 337.174 113.976C326.842 113.976 317.33 121.766 317.33 135.296ZM329.712 135.296C329.712 128.244 332.172 123.734 337.174 123.734C342.094 123.734 344.636 128.244 344.636 135.296C344.636 142.348 342.094 146.858 337.174 146.858C332.172 146.858 329.712 142.348 329.712 135.296ZM361.184 150.958C365.284 154.32 371.434 156.616 376.764 156.616C387.67 156.616 393.492 150.876 393.492 143.496C393.492 136.034 387.67 133.164 382.504 131.278C378.322 129.72 374.55 128.736 374.55 126.112C374.55 124.062 376.026 122.914 379.142 122.914C382.012 122.914 384.8 124.226 387.752 126.358L393.164 119.142C389.638 116.518 385.046 113.976 378.814 113.976C369.384 113.976 363.234 119.142 363.234 126.686C363.234 133.41 369.056 136.772 373.976 138.658C378.158 140.298 382.258 141.528 382.258 144.234C382.258 146.366 380.7 147.678 377.092 147.678C373.648 147.678 370.286 146.202 366.596 143.414L361.184 150.958ZM398.769 135.296C398.769 148.744 407.707 156.616 419.351 156.616C424.189 156.616 429.601 154.894 433.783 152.024L429.765 144.726C426.813 146.53 424.025 147.432 420.991 147.432C415.579 147.432 411.479 144.726 410.413 138.576H434.767C435.013 137.592 435.259 135.624 435.259 133.492C435.259 122.422 429.519 113.976 417.957 113.976C408.199 113.976 398.769 122.094 398.769 135.296ZM410.331 131.114C411.151 125.702 414.431 123.16 418.203 123.16C423.041 123.16 425.009 126.44 425.009 131.114H410.331Z" fill="#E3E3E3"/>
</svg>
